<?xml version="1.0" encoding="utf-8"?>
<!-- Generator: Adobe Illustrator 25.3.1, SVG Export Plug-In . SVG Version: 6.00 Build 0)  -->
<svg version="1.1" id="图层_1" xmlns="http://www.w3.org/2000/svg" xmlns:xlink="http://www.w3.org/1999/xlink" x="0px" y="0px"
	 viewBox="0 0 31.9 32" style="enable-background:new 0 0 31.9 32;" xml:space="preserve">
<style type="text/css">
	.st0{fill:#FFFFFF;}
</style>
<g>
	<path class="st0" d="M30.5,32c-9.8,0-19.5,0-29.2,0c0-10.1,0-20.2,0-30.4c9.7,0,19.5,0,29.2,0C30.5,11.7,30.5,21.9,30.5,32z
		 M29.9,22.9c-0.8-0.5-1.5-0.9-2.3-1.3c-0.3-0.1-0.4-0.3-0.4-0.6c0-1.1,0-2.2,0-3.3c0-0.2-0.1-0.4-0.2-0.5c-1.1-0.6-2.1-1.3-3.2-1.9
		c-0.1-0.1-0.4-0.1-0.5,0c-1.1,0.6-2.3,1.3-3.4,2c-0.1,0.1-0.3,0.3-0.3,0.5c0,1.3,0,2.6,0,4c0,0.2,0.1,0.4,0.3,0.5
		c1,0.6,2.1,1.2,3.1,1.8c0.3,0.1,0.5,0.1,0.7,0c0.9-0.6,1.9-1.1,2.8-1.7c0.1-0.1,0.3-0.1,0.4-0.1c0.4,0.2,0.8,0.4,1.2,0.7
		c-2.3,1.3-4.5,2.6-6.7,3.9c-0.1,0-0.2,0.1-0.3,0.1c-0.8-0.5-1.6-0.9-2.5-1.4c0.4-0.2,0.7-0.4,1-0.6c-0.2-0.2-0.3-0.4-0.5-0.7
		c-0.5,0.3-0.9,0.5-1.4,0.8c-1.3-0.8-2.7-1.6-4.1-2.4c1.5-0.9,2.9-1.8,4.4-2.6c0.3-0.2,0.4-0.3,0.4-0.6c0-4.4-0.1-8.8-0.1-13.2
		c0-0.2-0.1-0.4-0.3-0.5c-1.6-1-3.3-1.9-4.9-2.9c-0.1-0.1-0.4-0.1-0.6,0c-1.7,0.9-3.3,1.9-5,2.9C7.4,5.7,7.3,5.9,7.3,6.2
		c0,4.2,0,8.3,0,12.5c0,0.3-0.1,0.4-0.3,0.6c-1.6,0.9-3.2,1.9-4.9,2.9c0.1,0.1,0.2,0.2,0.3,0.2c4.6,2.7,9.3,5.4,13.9,8.1
		c0.1,0.1,0.4,0.1,0.5,0c3.4-2,6.8-3.9,10.2-5.9C28,24,28.9,23.4,29.9,22.9z M24.1,11.9c0.8,0.6,1.5,0.6,2.2,0.1
		c0.6-0.4,0.9-1.2,0.7-1.9c-0.3-1-1.2-1.6-2.2-1.4c-0.9,0.2-1.5,1-1.4,2c0.1,0.3,0,0.5-0.3,0.7c-0.7,0.4-1.3,0.9-1.9,1.3
		c-0.5,0.4-0.7,0.9-0.6,1.5c0.1,0.7,0.3,0.8,0.9,0.4c0,0,0,0,0-0.1c-0.2-0.8-0.1-1,0.6-1.5C22.8,12.7,23.4,12.3,24.1,11.9z"/>
	<path d="M29.9,22.9c-1,0.6-1.9,1.1-2.9,1.7c-3.4,2-6.8,4-10.2,5.9c-0.1,0.1-0.4,0.1-0.5,0c-4.6-2.7-9.3-5.4-13.9-8.1
		c-0.1-0.1-0.2-0.1-0.3-0.2c1.6-1,3.2-1.9,4.9-2.9c0.2-0.1,0.3-0.3,0.3-0.6c0-4.2,0-8.3,0-12.5c0-0.3,0.1-0.5,0.4-0.7
		c1.7-0.9,3.3-1.9,5-2.9c0.1-0.1,0.4-0.1,0.6,0c1.6,0.9,3.3,1.9,4.9,2.9c0.2,0.1,0.3,0.3,0.3,0.5c0,4.4,0.1,8.8,0.1,13.2
		c0,0.3-0.1,0.5-0.4,0.6c-1.4,0.8-2.9,1.7-4.4,2.6c1.4,0.8,2.7,1.6,4.1,2.4c0.5-0.3,0.9-0.5,1.4-0.8c0.2,0.2,0.3,0.4,0.5,0.7
		c-0.4,0.2-0.7,0.4-1,0.6c0.8,0.5,1.7,1,2.5,1.4c0.1,0,0.2,0,0.3-0.1c2.2-1.3,4.5-2.6,6.7-3.9c-0.4-0.2-0.8-0.5-1.2-0.7
		c-0.1,0-0.3,0-0.4,0.1c-0.9,0.6-1.9,1.1-2.8,1.7c-0.2,0.1-0.4,0.2-0.7,0c-1-0.6-2.1-1.2-3.1-1.8c-0.2-0.1-0.3-0.3-0.3-0.5
		c0-1.3,0-2.7,0-4c0-0.2,0.1-0.4,0.3-0.5c1.1-0.7,2.2-1.3,3.4-2c0.1-0.1,0.4-0.1,0.5,0c1.1,0.6,2.2,1.2,3.2,1.9
		c0.1,0.1,0.2,0.3,0.2,0.5c0,1.1,0,2.2,0,3.3c0,0.3,0.1,0.5,0.4,0.6C28.4,21.9,29.1,22.4,29.9,22.9z M8.2,6.8c0,4,0,8,0,12
		c0,0.3,0.1,0.5,0.4,0.7c1.3,0.7,2.5,1.5,3.7,2.2c0.1,0,0.2,0.1,0.3,0.1c0-4.1,0-8.1,0-12.1c0-0.1-0.1-0.3-0.2-0.4
		C11,8.5,9.6,7.6,8.2,6.8z M8.7,6c1.4,0.8,2.8,1.6,4.1,2.4c0.1,0.1,0.3,0,0.4,0c1.3-0.7,2.6-1.5,3.9-2.3c0,0,0-0.1,0-0.1
		c-1.3-0.8-2.6-1.6-4-2.3c-0.1-0.1-0.4-0.1-0.5,0C11.3,4.4,10,5.2,8.7,6z M12.1,22.5c-1.5-0.9-2.8-1.7-4.3-2.5C7.7,20,7.5,20,7.5,20
		c-1.2,0.7-2.4,1.4-3.6,2.2c1.5,0.9,2.9,1.7,4.3,2.5c0.1,0.1,0.3,0,0.4-0.1C9.7,23.9,10.9,23.3,12.1,22.5z M9.1,25.2
		c1.3,0.7,2.5,1.4,3.7,2.2c0.3,0.2,0.5,0.2,0.8,0c0.7-0.4,1.5-0.9,2.2-1.3c0.4-0.2,0.7-0.4,1.1-0.7c-1.3-0.8-2.6-1.5-3.8-2.3
		c-0.1-0.1-0.3-0.1-0.4,0C11.5,23.8,10.3,24.5,9.1,25.2z M20.3,27.4c-0.8-0.5-1.5-0.9-2.2-1.3c-0.2-0.1-0.3-0.1-0.6,0
		c-1.1,0.6-2.1,1.3-3.2,1.9c-0.1,0-0.1,0.1-0.2,0.2c0.9,0.5,1.7,1,2.5,1.4C17.9,28.8,19.1,28.1,20.3,27.4z M23.1,23c0-1.1,0-2.1,0-3
		c0-0.1-0.1-0.2-0.1-0.2c-0.8-0.5-1.7-0.9-2.5-1.5c0,1,0,2,0,3c0,0.1,0.1,0.2,0.1,0.2C21.4,22,22.2,22.5,23.1,23z M26.2,17.6
		c-0.9-0.5-1.7-1-2.5-1.4c-0.1,0-0.2-0.1-0.3,0c-0.8,0.5-1.6,0.9-2.4,1.4c0.8,0.5,1.6,0.9,2.5,1.4c0.1,0,0.3,0.1,0.3,0
		C24.5,18.5,25.3,18,26.2,17.6z"/>
	<path d="M24.1,11.9c-0.6,0.4-1.3,0.8-1.9,1.2c-0.7,0.5-0.8,0.7-0.6,1.5c0,0,0,0.1,0,0.1c-0.6,0.4-0.8,0.3-0.9-0.4
		c-0.1-0.6,0.1-1.2,0.6-1.5c0.6-0.5,1.3-0.9,1.9-1.3c0.3-0.2,0.4-0.3,0.3-0.7c-0.2-1,0.5-1.9,1.4-2c1-0.2,1.9,0.4,2.2,1.4
		c0.2,0.7-0.1,1.5-0.7,1.9C25.6,12.5,24.8,12.5,24.1,11.9z M26.2,10.6c0-0.5-0.5-1-1-1c-0.5,0-0.9,0.5-0.9,1c0,0.5,0.4,0.9,0.9,0.9
		C25.8,11.5,26.2,11.1,26.2,10.6z"/>
	<path class="st0" d="M8.2,6.8c1.4,0.9,2.8,1.7,4.2,2.5c0.1,0.1,0.2,0.3,0.2,0.4c0,4,0,8,0,12.1c-0.1,0-0.2-0.1-0.3-0.1
		c-1.2-0.7-2.5-1.5-3.7-2.2c-0.3-0.2-0.4-0.4-0.4-0.7C8.2,14.8,8.2,10.8,8.2,6.8z"/>
	<path class="st0" d="M8.7,6c1.3-0.8,2.6-1.5,3.9-2.3c0.1-0.1,0.4-0.1,0.5,0c1.3,0.8,2.7,1.6,4,2.3c0,0,0,0,0,0.1
		c-1.3,0.8-2.6,1.5-3.9,2.3c-0.1,0.1-0.3,0.1-0.4,0C11.4,7.6,10.1,6.8,8.7,6z"/>
	<path class="st0" d="M12.1,22.5c-1.2,0.7-2.3,1.4-3.5,2c-0.1,0.1-0.3,0.1-0.4,0.1c-1.4-0.8-2.8-1.6-4.3-2.5
		c1.2-0.7,2.4-1.5,3.6-2.2c0.1,0,0.3,0,0.4,0C9.2,20.9,10.6,21.7,12.1,22.5z"/>
	<path class="st0" d="M9.1,25.2c1.2-0.7,2.4-1.4,3.6-2.1c0.1-0.1,0.3,0,0.4,0c1.3,0.7,2.5,1.5,3.8,2.3c-0.4,0.2-0.7,0.4-1.1,0.7
		c-0.7,0.4-1.5,0.8-2.2,1.3c-0.3,0.2-0.5,0.2-0.8,0C11.6,26.7,10.4,26,9.1,25.2z"/>
	<path class="st0" d="M20.3,27.4c-1.3,0.7-2.5,1.5-3.7,2.2c-0.8-0.5-1.6-0.9-2.5-1.4c0.1-0.1,0.2-0.1,0.2-0.2
		c1.1-0.6,2.1-1.2,3.2-1.9c0.2-0.1,0.3-0.1,0.6,0C18.8,26.5,19.6,26.9,20.3,27.4z"/>
	<path class="st0" d="M23.1,23c-0.9-0.5-1.7-1-2.5-1.5c-0.1,0-0.1-0.2-0.1-0.2c0-1,0-1.9,0-3c0.9,0.5,1.7,1,2.5,1.5
		c0.1,0,0.1,0.1,0.1,0.2C23.1,20.9,23.1,21.9,23.1,23z"/>
	<path class="st0" d="M26.2,17.6c-0.8,0.5-1.6,0.9-2.4,1.4c-0.1,0-0.3,0-0.3,0c-0.8-0.4-1.6-0.9-2.5-1.4c0.8-0.5,1.6-1,2.4-1.4
		c0.1,0,0.2,0,0.3,0C24.5,16.6,25.3,17.1,26.2,17.6z"/>
	<path class="st0" d="M26.2,10.6c0,0.5-0.4,1-1,0.9c-0.5,0-0.9-0.4-0.9-0.9c0-0.5,0.4-1,0.9-1C25.7,9.6,26.2,10,26.2,10.6z"/>
</g>
</svg>
