{
  "extensionsUsed": [
    "KHR_materials_transmission",
    "KHR_materials_clearcoat",
    "KHR_materials_ior",
    "KHR_materials_specular",
    "KHR_materials_emissive_strength"
  ],
  "accessors": [
    {
      "bufferView": 0,
      "componentType": 5126,
      "count": 1991,
      "type": "VEC3",
      "max": [
        79.71741,
        31.776405,
        142.18935
      ],
      "min": [
        -78.22828,
        -0.17562142,
        -120.72506
      ]
    },
    {
      "bufferView": 1,
      "componentType": 5125,
      "count": 11520,
      "type": "SCALAR",
      "max": [
        1990.0
      ],
      "min": [
        0.0
      ]
    },
    {
      "bufferView": 2,
      "componentType": 5126,
      "count": 1991,
      "type": "VEC3",
      "max": [
        0.7047935,
        -0.20751159,
        0.9368194
      ],
      "min": [
        -0.76334816,
        -0.9999915,
        -0.46145034
      ]
    },
    {
      "bufferView": 3,
      "componentType": 5126,
      "count": 1991,
      "type": "VEC2",
      "max": [
        1.0,
        1.0
      ],
      "min": [
        0.0,
        0.0
      ]
    }
  ],
  "asset": {
    "version": "2.0"
  },
  "buffers": [
    {
      "uri": "data:application/octet-stream;base64,",
      "byteLength": 23892
    },
    {
      "uri": "data:application/octet-stream;base64,",
      "byteLength": 46080
    },
    {
      "uri": "data:application/octet-stream;base64,",
      "byteLength": 23892
    },
    {
      "uri": "data:application/octet-stream;base64,",
      "byteLength": 15928
    }
  ],
  "bufferViews": [
    {
      "buffer": 0,
      "byteLength": 23892,
      "target": 34962
    },
    {
      "buffer": 1,
      "byteLength": 46080,
      "target": 34963
    },
    {
      "buffer": 2,
      "byteLength": 23892,
      "target": 34962
    },
    {
      "buffer": 3,
      "byteLength": 15928,
      "target": 34962
    }
  ],
  "materials": [
    {
      "pbrMetallicRoughness": {
        "baseColorFactor": [
          0.0,
          0.0,
          0.0,
          1.0
        ]
      }
    }
  ],
  "meshes": [
    {
      "primitives": [
        {
          "attributes": {
            "POSITION": 0,
            "NORMAL": 2,
            "TEXCOORD_0": 3
          },
          "indices": 1,
          "material": 0
        }
      ]
    }
  ],
  "nodes": [
    {
      "mesh": 0
    }
  ],
  "samplers": [
    {
      "magFilter": 9729,
      "minFilter": 9729
    }
  ],
  "scene": 0,
  "scenes": [
    {
      "nodes": [
        0
      ],
      "extensions": {}
    }
  ],
  "extensions": {}
}