<?xml version="1.0" encoding="utf-8"?>
<!-- Generator: Adobe Illustrator 25.3.1, SVG Export Plug-In . SVG Version: 6.00 Build 0)  -->
<svg version="1.1" id="图层_1" xmlns="http://www.w3.org/2000/svg" xmlns:xlink="http://www.w3.org/1999/xlink" x="0px" y="0px"
	 viewBox="0 0 31.9 32" style="enable-background:new 0 0 31.9 32;" xml:space="preserve">
<style type="text/css">
	.st0{fill:url(#SVGID_1_);}
	.st1{fill:url(#SVGID_2_);}
</style>
<linearGradient id="SVGID_1_" gradientUnits="userSpaceOnUse" x1="-41.4228" y1="75.6051" x2="-40.8382" y2="74.8975" gradientTransform="matrix(31.8754 0 0 -28.4068 1327.6464 2147.8293)">
	<stop  offset="0" style="stop-color:#41D1FF"/>
	<stop  offset="1" style="stop-color:#BD34FE"/>
</linearGradient>
<path class="st0" d="M31.8,4.7l-15,26.8c-0.3,0.6-1.1,0.6-1.4,0L0.1,4.7C-0.2,4.1,0.3,3.4,1,3.5l15,2.7c0.1,0,0.2,0,0.3,0l14.7-2.7
	C31.6,3.4,32.1,4.1,31.8,4.7z"/>
<linearGradient id="SVGID_2_" gradientUnits="userSpaceOnUse" x1="-39.5897" y1="75.3666" x2="-39.5203" y2="74.4987" gradientTransform="matrix(14.6164 0 0 -26.6459 596.5032 2008.7314)">
	<stop  offset="0" style="stop-color:#FFEA83"/>
	<stop  offset="8.333001e-02" style="stop-color:#FFDD35"/>
	<stop  offset="1" style="stop-color:#FFA800"/>
</linearGradient>
<path class="st1" d="M23.1,0L12,2.2c-0.2,0-0.3,0.2-0.3,0.4L11,14.1c0,0.2,0.2,0.4,0.4,0.4c0,0,0.1,0,0.1,0l3.1-0.7
	c0.3-0.1,0.5,0.2,0.5,0.5l-0.9,4.5c-0.1,0.3,0.2,0.6,0.5,0.5l1.9-0.6c0.3-0.1,0.6,0.2,0.5,0.5l-1.5,7.1c-0.1,0.4,0.5,0.7,0.7,0.3
	l0.2-0.3l9-18c0.2-0.3-0.1-0.6-0.4-0.6L22,8.2c-0.3,0.1-0.6-0.2-0.5-0.5l2.1-7.2C23.6,0.2,23.4-0.1,23.1,0L23.1,0z"/>
</svg>
