<?xml version="1.0" encoding="utf-8"?>
<!-- Generator: Adobe Illustrator 25.3.1, SVG Export Plug-In . SVG Version: 6.00 Build 0)  -->
<svg version="1.1" id="图层_1" xmlns="http://www.w3.org/2000/svg" xmlns:xlink="http://www.w3.org/1999/xlink" x="0px" y="0px"
	 viewBox="0 0 687.6 218.6" style="enable-background:new 0 0 687.6 218.6;" xml:space="preserve">
<style type="text/css">
	.st0{fill:#FFFFFF;stroke:#231815;stroke-miterlimit:10;}
	.st1{fill:none;}
	.st2{fill:#231815;}
	.st3{font-family:'HarmonyOS_Sans_SC_Light';}
	.st4{font-size:14px;}
	.st5{fill:none;stroke:#231815;stroke-width:0.5;stroke-miterlimit:10;}
	.st6{fill:#FFFFFF;stroke:#231815;stroke-width:0.5;stroke-miterlimit:10;}
	.st7{font-size:6.45px;}
	.st8{font-size:10px;glyph-orientation-vertical:0;writing-mode:tb;}
	.st9{font-family:'HarmonyOS_Sans_SC';}
	.st10{font-size:12px;}
	.st11{font-family:'HarmonyOS_Sans_SC_Thin';}
	.st12{font-size:7px;}
	.st13{font-size:5.2776px;}
	.st14{font-size:5.1186px;}
	.st15{font-size:4.5px;}
	.st16{font-size:4px;}
	.st17{fill:#FFFFFF;}
	.st18{fill:none;stroke:#231815;stroke-width:0.4;stroke-miterlimit:10;}
	.st19{fill:#FFFFFF;stroke:#231815;stroke-width:0.4;stroke-miterlimit:10;}
	.st20{fill:none;stroke:#231815;stroke-width:0.8;stroke-miterlimit:10;stroke-dasharray:2,2;}
</style>
<path class="st0" d="M312.7,200.6H31.3c-6.7,0-12.1-5.4-12.1-12.1V29.9c0-6.7,5.4-12.1,12.1-12.1h281.5c6.7,0,12.1,5.4,12.1,12.1
	v158.6C324.8,195.2,319.4,200.6,312.7,200.6z"/>
<path class="st0" d="M657.2,200.6H375.7c-6.7,0-12.1-5.4-12.1-12.1V29.9c0-6.7,5.4-12.1,12.1-12.1h281.5c6.7,0,12.1,5.4,12.1,12.1
	v158.6C669.3,195.2,663.9,200.6,657.2,200.6z"/>
<rect x="32.1" y="29.2" class="st1" width="43.5" height="18.5"/>
<text transform="matrix(1 0 0 1 32.0811 41.6731)" class="st2 st3 st4">感知</text>
<text transform="matrix(1 0 0 1 32.0811 41.6731)" class="st5 st3 st4">感知</text>
<g>
	<rect x="376.5" y="27.5" class="st1" width="43.5" height="18.5"/>
	<text transform="matrix(1 0 0 1 376.5037 39.9484)" class="st2 st3 st4">分析</text>
	<text transform="matrix(1 0 0 1 376.5037 39.9484)" class="st5 st3 st4">分析</text>
</g>
<g>
	<path class="st6" d="M55.8,74.8H43.3c-5.2,0-9.5-4.2-9.5-9.5l0,0c0-5.2,4.2-9.5,9.5-9.5h12.4c5.2,0,9.5,4.2,9.5,9.5l0,0
		C65.2,70.6,61,74.8,55.8,74.8z"/>
	<g>
		<rect x="45.5" y="62.5" class="st1" width="13.2" height="7.2"/>
		<text transform="matrix(1 0 0 1 45.4878 68.2788)" class="st2 st3 st7">C1</text>
	</g>
</g>
<g>
	<path class="st6" d="M115.2,175.9h-12.4c-5.2,0-9.5-4.2-9.5-9.5V65.9c0-5.2,4.2-9.5,9.5-9.5h12.4c5.2,0,9.5,4.2,9.5,9.5v100.6
		C124.7,171.7,120.4,175.9,115.2,175.9z"/>
	<text transform="matrix(1 0 0 1 108.9533 102.0055)" class="st2 st3 st8">摄像头</text>
</g>
<g>
	<path class="st6" d="M303.1,175.7h-127c-5.2,0-9.5-4.2-9.5-9.5V65.6c0-5.2,4.2-9.5,9.5-9.5h127c5.2,0,9.5,4.2,9.5,9.5v100.6
		C312.6,171.4,308.4,175.7,303.1,175.7z"/>
	<rect x="204" y="62.6" class="st1" width="77.6" height="19.3"/>
	<text transform="matrix(1 0 0 1 204.0366 75.2603)" class="st2 st9 st10">Java Service</text>
	<rect x="175.8" y="85" class="st1" width="130.4" height="29.1"/>
	<text transform="matrix(1 0 0 1 175.7501 91.172)" class="st2 st11 st12">1. 视频抽帧算法 </text>
	<text transform="matrix(1 0 0 1 175.7501 99.572)" class="st2 st11 st12">2. YoLov5图像识别 + DeepSORT 目标追踪 </text>
	<text transform="matrix(1 0 0 1 175.7501 107.972)" class="st2 st11 st12">3. 数字孪生–前端平台应用 </text>
	<rect x="175.8" y="129.2" class="st1" width="130.4" height="27.8"/>
	<text transform="matrix(1 0 0 1 175.7501 135.3817)" class="st2 st11 st12">1. 保存图像和视频数据并提供相应数据处</text>
	<text transform="matrix(1 0 0 1 175.7501 144.6893)" class="st2 st11 st12">理结果</text>
	<text transform="matrix(1 0 0 1 175.7501 152.1817)" class="st2 st11 st12">2. 提供管理人员可视化的平台和结果</text>
	<rect x="175.2" y="117.2" class="st1" width="28.3" height="10.3"/>
	<text transform="matrix(1 0 0 1 175.1938 123.3911)" class="st2 st3 st12">功能</text>
</g>
<g>
	<path class="st6" d="M649.4,189.4H386.6c-5.2,0-9.5-4.2-9.5-9.5V58.2c0-5.2,4.2-9.5,9.5-9.5h262.8c5.2,0,9.5,4.2,9.5,9.5V180
		C658.8,185.2,654.6,189.4,649.4,189.4z"/>
	<rect x="472.6" y="51.5" class="st1" width="89.3" height="19.3"/>
	<text transform="matrix(1 0 0 1 472.6124 64.1763)" class="st2 st9 st10">Python Service</text>
	<g>
		<path class="st6" d="M445.5,95h-37.4c-4.3,0-7.8-3.5-7.8-7.8l0,0c0-4.3,3.5-7.8,7.8-7.8h37.4c4.3,0,7.8,3.5,7.8,7.8l0,0
			C453.3,91.5,449.8,95,445.5,95z"/>
		<g>
			<rect x="404.2" y="84.9" class="st1" width="52.4" height="5.9"/>
			<text transform="matrix(1 0 0 1 404.2014 89.6374)" class="st2 st3 st13">C1f1  单视角单时刻</text>
		</g>
	</g>
	<g>
		<path class="st6" d="M539.5,86.3h-45.5c-3.8,0-6.9-3.1-6.9-6.9v-1.2c0-3.8,3.1-6.9,6.9-6.9h45.5c3.8,0,6.9,3.1,6.9,6.9v1.2
			C546.5,83.2,543.4,86.3,539.5,86.3z"/>
		<g>
			<rect x="490.8" y="76.6" class="st1" width="53.5" height="5.7"/>
			<text transform="matrix(1 0 0 1 490.8215 81.1208)" class="st2 st3 st14">局部高响应高容错应用</text>
		</g>
	</g>
	<g>
		<path class="st6" d="M539.5,104.9h-45.5c-3.8,0-6.9-3.1-6.9-6.9v-1.2c0-3.8,3.1-6.9,6.9-6.9h45.5c3.8,0,6.9,3.1,6.9,6.9V98
			C546.5,101.8,543.4,104.9,539.5,104.9z"/>
		<g>
			<rect x="490.8" y="95.2" class="st1" width="43.9" height="6.1"/>
			<text transform="matrix(1 0 0 1 490.8225 99.7263)" class="st2 st3 st14">局部低响应应用</text>
		</g>
	</g>
	<g>
		<path class="st6" d="M629.5,81.5h-41.2c-3.7,0-6.7-3-6.7-6.7v-0.5c0-3.7,3-6.7,6.7-6.7h41.2c3.7,0,6.7,3,6.7,6.7v0.5
			C636.2,78.5,633.2,81.5,629.5,81.5z"/>
		<g>
			<rect x="585" y="72.5" class="st1" width="49.2" height="5.2"/>
			<text transform="matrix(1 0 0 1 585.0338 76.5329)" class="st2 st3 st15">例：电梯内电动车警告</text>
		</g>
	</g>
	<g>
		<path class="st6" d="M629.5,98.6h-41.2c-3.7,0-6.7-3-6.7-6.7v-0.5c0-3.7,3-6.7,6.7-6.7h41.2c3.7,0,6.7,3,6.7,6.7v0.5
			C636.2,95.6,633.2,98.6,629.5,98.6z"/>
		<g>
			<rect x="585" y="89.7" class="st1" width="47.2" height="5.6"/>
			<text transform="matrix(1 0 0 1 585.0328 93.6491)" class="st2 st3 st15">例：未佩戴口罩警告</text>
		</g>
	</g>
	<g>
		<path class="st6" d="M630.2,115.8h-41.2c-3.7,0-6.7-3-6.7-6.7v-0.5c0-3.7,3-6.7,6.7-6.7h41.2c3.7,0,6.7,3,6.7,6.7v0.5
			C636.9,112.8,634,115.8,630.2,115.8z"/>
		<g>
			<rect x="585.8" y="106.8" class="st1" width="51.2" height="5.2"/>
			<text transform="matrix(1 0 0 1 585.7584 110.7726)" class="st2 st3 st15">例：违章停车、流量采样</text>
		</g>
	</g>
	<g>
		<path class="st6" d="M630.2,132.9h-41.2c-3.7,0-6.7-3-6.7-6.7v-0.5c0-3.7,3-6.7,6.7-6.7h41.2c3.7,0,6.7,3,6.7,6.7v0.5
			C636.9,129.9,634,132.9,630.2,132.9z"/>
		<g>
			<rect x="585.8" y="123.9" class="st1" width="51.2" height="5.6"/>
			<text transform="matrix(1 0 0 1 585.7584 127.8893)" class="st2 st3 st15">例：聚集侦测、燃放侦测</text>
		</g>
	</g>
	<g>
		<path class="st6" d="M630.2,150.7h-41.2c-3.7,0-6.7-3-6.7-6.7v-0.5c0-3.7,3-6.7,6.7-6.7h41.2c3.7,0,6.7,3,6.7,6.7v0.5
			C636.9,147.7,634,150.7,630.2,150.7z"/>
		<g>
			<rect x="585.8" y="141.7" class="st1" width="49.2" height="5.2"/>
			<text transform="matrix(1 0 0 1 585.7584 145.6921)" class="st2 st3 st15">例：车闸识别</text>
		</g>
	</g>
	<g>
		<path class="st6" d="M630.2,167.8h-41.2c-3.7,0-6.7-3-6.7-6.7v-0.5c0-3.7,3-6.7,6.7-6.7h41.2c3.7,0,6.7,3,6.7,6.7v0.5
			C636.9,164.8,634,167.8,630.2,167.8z"/>
		<g>
			<rect x="583.8" y="158.8" class="st1" width="53.2" height="5.6"/>
			<text transform="matrix(1 0 0 1 583.7584 162.364)" class="st2 st3 st16">例：分析人流车流的运动方向</text>
		</g>
	</g>
	<g>
		<path class="st6" d="M630.2,184.5h-41.2c-3.7,0-6.7-3-6.7-6.7v-0.5c0-3.7,3-6.7,6.7-6.7h41.2c3.7,0,6.7,3,6.7,6.7v0.5
			C636.9,181.5,634,184.5,630.2,184.5z"/>
		<g>
			<rect x="583.8" y="175.5" class="st1" width="53.2" height="5.6"/>
			<text transform="matrix(1 0 0 1 583.7584 179.0949)" class="st2 st3 st16">例：找出特定对象的运动轨迹</text>
		</g>
	</g>
	<g>
		<path class="st6" d="M539.5,124h-45.5c-3.8,0-6.9-3.1-6.9-6.9v-1.2c0-3.8,3.1-6.9,6.9-6.9h45.5c3.8,0,6.9,3.1,6.9,6.9v1.2
			C546.5,120.9,543.4,124,539.5,124z"/>
		<g>
			<rect x="490.8" y="114.2" class="st1" width="46.5" height="6.5"/>
			<text transform="matrix(1 0 0 1 490.8225 118.7707)" class="st2 st3 st14">局部高响应应用</text>
		</g>
	</g>
	<g>
		<path class="st6" d="M539.5,142.6h-45.5c-3.8,0-6.9-3.1-6.9-6.9v-1.2c0-3.8,3.1-6.9,6.9-6.9h45.5c3.8,0,6.9,3.1,6.9,6.9v1.2
			C546.5,139.5,543.4,142.6,539.5,142.6z"/>
		<g>
			<rect x="491.3" y="131.3" class="st1" width="50.5" height="14.4"/>
			<text transform="matrix(1 0 0 1 491.3299 136.1115)" class="st2 st3 st16">应用较少、可用于 3D 重建</text>
			<text transform="matrix(1 0 0 1 491.3299 140.9114)" class="st2 st3 st16">的建模应用</text>
		</g>
	</g>
	<g>
		<path class="st6" d="M539.5,161.6h-45.5c-3.8,0-6.9-3.1-6.9-6.9v-1.2c0-3.8,3.1-6.9,6.9-6.9h45.5c3.8,0,6.9,3.1,6.9,6.9v1.2
			C546.5,158.5,543.4,161.6,539.5,161.6z"/>
		<g>
			<rect x="490.8" y="151.8" class="st1" width="52.7" height="5.4"/>
			<text transform="matrix(1 0 0 1 490.8225 155.3913)" class="st2 st3 st16">全局低响应采样与分析应用</text>
		</g>
	</g>
	<g>
		<path class="st6" d="M539.5,180.2h-45.5c-3.8,0-6.9-3.1-6.9-6.9v-1.2c0-3.8,3.1-6.9,6.9-6.9h45.5c3.8,0,6.9,3.1,6.9,6.9v1.2
			C546.5,177.1,543.4,180.2,539.5,180.2z"/>
		<g>
			<rect x="490.8" y="170.4" class="st1" width="40.2" height="6.6"/>
			<text transform="matrix(1 0 0 1 490.8225 174.9909)" class="st2 st3 st14">全局高响应应用</text>
		</g>
	</g>
	<g>
		<path class="st6" d="M445.1,119.7h-37.4c-4.3,0-7.8-3.5-7.8-7.8l0,0c0-4.3,3.5-7.8,7.8-7.8h37.4c4.3,0,7.8,3.5,7.8,7.8l0,0
			C452.9,116.2,449.4,119.7,445.1,119.7z"/>
		<g>
			<rect x="403.8" y="109.7" class="st1" width="52.4" height="5.9"/>
			<text transform="matrix(1 0 0 1 403.7854 114.3415)" class="st2 st3 st13">C1fn 单视角多时刻</text>
		</g>
	</g>
	<g>
		<path class="st6" d="M445.1,143.4h-37.4c-4.3,0-7.8-3.5-7.8-7.8l0,0c0-4.3,3.5-7.8,7.8-7.8h37.4c4.3,0,7.8,3.5,7.8,7.8l0,0
			C452.9,139.9,449.4,143.4,445.1,143.4z"/>
		<g>
			<rect x="403.8" y="133.4" class="st1" width="52.4" height="5.9"/>
			<text transform="matrix(1 0 0 1 403.7854 138.0471)" class="st2 st3 st13">Cmf1  多视角单时刻</text>
		</g>
	</g>
	<g>
		<path class="st6" d="M445.1,167.1h-37.4c-4.3,0-7.8-3.5-7.8-7.8l0,0c0-4.3,3.5-7.8,7.8-7.8h37.4c4.3,0,7.8,3.5,7.8,7.8l0,0
			C452.9,163.6,449.4,167.1,445.1,167.1z"/>
		<g>
			<rect x="403.8" y="157.1" class="st1" width="52.4" height="5.9"/>
			<text transform="matrix(1 0 0 1 403.7854 161.7517)" class="st2 st3 st13">Cmfn  多视角多时刻</text>
		</g>
	</g>
	<g>
		<g>
			<path class="st17" d="M483.7,79.4h-11.3c-1.1,0-2,0.9-2,2v5.1c0,1.1-0.9,2-2,2h-12.2"/>
			<g>
				<path class="st18" d="M483.3,79.4h-11c-1.1,0-2,0.9-2,2v5.1c0,1.1-0.9,2-2,2h-12.2"/>
				<g>
					<path class="st2" d="M481.1,77.9c0,0.1,0,0.2,0,0.2l2.1,1.3l-2.1,1.3c-0.1,0.1-0.1,0.2,0,0.2c0,0.1,0.1,0.1,0.2,0.1l2.3-1.4
						c0,0,0.1-0.1,0.1-0.1s0-0.1-0.1-0.1l-2.3-1.4c0,0-0.1,0-0.1,0C481.2,77.8,481.2,77.9,481.1,77.9z"/>
				</g>
			</g>
		</g>
		<path class="st19" d="M456.6,69.2"/>
		<g>
			<path class="st17" d="M483.7,98.4h-11.3c-1.1,0-2,0.9-2,2v13.2l0,0"/>
			<g>
				<path class="st18" d="M483.3,98.4h-11c-1.1,0-2,0.9-2,2v13.2"/>
				<g>
					<path class="st2" d="M481.1,96.9c0,0.1,0,0.2,0,0.2l2.1,1.3l-2.1,1.3c-0.1,0.1-0.1,0.2,0,0.2c0,0.1,0.1,0.1,0.2,0.1l2.3-1.4
						c0,0,0.1-0.1,0.1-0.1s0-0.1-0.1-0.1l-2.3-1.4c0,0-0.1,0-0.1,0C481.2,96.8,481.2,96.8,481.1,96.9z"/>
				</g>
			</g>
		</g>
		<g>
			<path class="st17" d="M456.2,113.6h14.2v2.8c0,1.1,0.9,2,2,2h11.3"/>
			<g>
				<path class="st18" d="M456.2,113.6h14.2v2.8c0,1.1,0.9,2,2,2h11"/>
				<g>
					<path class="st2" d="M481.1,119.9c0-0.1,0-0.2,0-0.2l2.1-1.3l-2.1-1.3c-0.1-0.1-0.1-0.2,0-0.2c0-0.1,0.1-0.1,0.2-0.1l2.3,1.4
						c0,0,0.1,0.1,0.1,0.1s0,0.1-0.1,0.1l-2.3,1.4c0,0-0.1,0-0.1,0C481.2,120,481.2,120,481.1,119.9z"/>
				</g>
			</g>
		</g>
		<g>
			<line class="st1" x1="456.2" y1="136.3" x2="483.7" y2="136.3"/>
			<g>
				<line class="st18" x1="456.2" y1="136.3" x2="483.3" y2="136.3"/>
				<g>
					<path class="st2" d="M481.1,137.8c0-0.1,0-0.2,0-0.2l2.1-1.3l-2.1-1.3c-0.1-0.1-0.1-0.1,0-0.2c0-0.1,0.1-0.1,0.2-0.1l2.3,1.4
						c0,0,0.1,0.1,0.1,0.1s0,0.1-0.1,0.1l-2.3,1.4c0,0-0.1,0-0.1,0C481.2,137.9,481.2,137.9,481.1,137.8z"/>
				</g>
			</g>
		</g>
		<g>
			<g>
				<path class="st17" d="M456.2,158.9h14.2v-0.7v-2.9c0-1.1,0.9-2,2-2h11.3"/>
				<g>
					<path class="st18" d="M456.2,158.9h14.2v-0.7v-2.9c0-1.1,0.9-2,2-2h11"/>
					<g>
						<path class="st2" d="M481.1,154.8c0-0.1,0-0.2,0-0.2l2.1-1.3l-2.1-1.3c-0.1-0.1-0.1-0.1,0-0.2c0-0.1,0.1-0.1,0.2-0.1l2.3,1.4
							c0,0,0.1,0.1,0.1,0.1s0,0.1-0.1,0.1l-2.3,1.4c0,0-0.1,0-0.1,0C481.2,154.9,481.2,154.9,481.1,154.8z"/>
					</g>
				</g>
			</g>
			<g>
				<path class="st17" d="M470.4,158.2v13.2c0,1.1,0.9,2,2,2h11.3"/>
				<g>
					<path class="st18" d="M470.4,158.2v13.2c0,1.1,0.9,2,2,2h11"/>
					<g>
						<path class="st2" d="M481.1,174.9c0-0.1,0-0.2,0-0.2l2.1-1.3l-2.1-1.3c-0.1-0.1-0.1-0.1,0-0.2c0-0.1,0.1-0.1,0.2-0.1l2.3,1.4
							c0,0,0.1,0.1,0.1,0.1s0,0.1-0.1,0.1l-2.3,1.4c0,0-0.1,0-0.1,0C481.2,175,481.2,175,481.1,174.9z"/>
					</g>
				</g>
			</g>
		</g>
		<path class="st19" d="M470.4,173.4"/>
	</g>
	<g>
		<g>
			<path class="st1" d="M550.5,63.7"/>
		</g>
		<g>
			<path class="st1" d="M564.3,167.9"/>
		</g>
		<g>
			<g>
				<path class="st18" d="M550.1,77.8h12.3c1,0,1.9-0.8,1.9-1.9s0.8-1.9,1.9-1.9h11.1"/>
				<g>
					<path class="st2" d="M575.1,75.6c0-0.1,0-0.2,0-0.2l2.1-1.3l-2.1-1.3c-0.1-0.1-0.1-0.2,0-0.2s0.2-0.1,0.2-0.1l2.3,1.4
						c0,0,0.1,0.1,0.1,0.1s0,0.1-0.1,0.1l-2.3,1.4c0,0-0.1,0-0.1,0C575.2,75.6,575.1,75.6,575.1,75.6z"/>
				</g>
			</g>
		</g>
		<g>
			<g>
				<path class="st18" d="M577.2,92.5h-11.1c-1,0-1.9-0.9-1.9-2.1V75.9"/>
				<g>
					<path class="st2" d="M575.1,90.9c0,0.1,0,0.2,0,0.2l2.1,1.3l-2.1,1.3c-0.1,0.1-0.1,0.2,0,0.2s0.2,0.1,0.2,0.1l2.3-1.4
						c0,0,0.1-0.1,0.1-0.1s0-0.1-0.1-0.1l-2.3-1.4c0,0-0.1,0-0.1,0C575.2,90.8,575.1,90.9,575.1,90.9z"/>
				</g>
			</g>
		</g>
		<g>
			<path class="st1" d="M546.5,98"/>
		</g>
		<g>
			<g>
				<path class="st18" d="M550.1,98h12.3c1,0,1.9,0.8,1.9,1.9v8.3c0,1,0.8,1.9,1.9,1.9h11.1"/>
				<g>
					<path class="st2" d="M575.1,111.6c0-0.1,0-0.2,0-0.2l2.1-1.3l-2.1-1.3c-0.1-0.1-0.1-0.2,0-0.2s0.2-0.1,0.2-0.1l2.3,1.4
						c0,0,0.1,0.1,0.1,0.1s0,0.1-0.1,0.1l-2.3,1.4c0,0-0.1,0-0.1,0C575.2,111.7,575.1,111.6,575.1,111.6z"/>
				</g>
			</g>
		</g>
		<g>
			<g>
				<path class="st18" d="M577.2,126.6h-11.1c-1,0-1.9-0.8-1.9-1.9v-17.9"/>
				<g>
					<path class="st2" d="M575.1,125c0,0.1,0,0.2,0,0.2l2.1,1.3l-2.1,1.3c-0.1,0.1-0.1,0.2,0,0.2c0,0.1,0.2,0.1,0.2,0.1l2.3-1.4
						c0,0,0.1-0.1,0.1-0.1s0-0.1-0.1-0.1l-2.3-1.4c0,0-0.1,0-0.1,0C575.2,124.9,575.1,125,575.1,125z"/>
				</g>
			</g>
		</g>
		<g>
			<g>
				<path class="st18" d="M550.1,135.3h12.3c1,0,1.9,0.8,1.9,1.9v5.6c0,1,0.8,1.9,1.9,1.9h11.1"/>
				<g>
					<path class="st2" d="M575.1,146.2c0-0.1,0-0.2,0-0.2l2.1-1.3l-2.1-1.3c-0.1-0.1-0.1-0.1,0-0.2s0.2-0.1,0.2-0.1l2.3,1.4
						c0,0,0.1,0.1,0.1,0.1s0,0.1-0.1,0.1l-2.3,1.4c0,0-0.1,0-0.1,0C575.2,146.3,575.1,146.2,575.1,146.2z"/>
				</g>
			</g>
		</g>
		<g>
			<g>
				<path class="st18" d="M550.1,154.6h12.3c1,0,1.9,0.8,1.9,1.9v2.3c0,1,0.8,1.9,1.9,1.9h11.1"/>
				<g>
					<path class="st2" d="M575.1,162.1c0-0.1,0-0.2,0-0.2l2.1-1.3l-2.1-1.3c-0.1-0.1-0.1-0.1,0-0.2s0.2-0.1,0.2-0.1l2.3,1.4
						c0,0,0.1,0.1,0.1,0.1s0,0.1-0.1,0.1l-2.3,1.4c0,0-0.1,0-0.1,0C575.2,162.2,575.1,162.1,575.1,162.1z"/>
				</g>
			</g>
		</g>
		<g>
			<g>
				<path class="st18" d="M577.2,177.6h-11.1c-1,0-1.9-0.8-1.9-1.9v-17"/>
				<g>
					<path class="st2" d="M575.1,176.1c0,0.1,0,0.2,0,0.2l2.1,1.3l-2.1,1.3c-0.1,0.1-0.1,0.1,0,0.2s0.2,0.1,0.2,0.1l2.3-1.4
						c0,0,0.1-0.1,0.1-0.1s0-0.1-0.1-0.1l-2.3-1.4c0,0-0.1,0-0.1,0C575.2,176,575.1,176,575.1,176.1z"/>
				</g>
			</g>
		</g>
	</g>
</g>
<g>
	<path class="st6" d="M55.6,100.1H43.1c-5.2,0-9.5-4.2-9.5-9.5l0,0c0-5.2,4.2-9.5,9.5-9.5h12.4c5.2,0,9.5,4.2,9.5,9.5l0,0
		C65.1,95.8,60.8,100.1,55.6,100.1z"/>
	<g>
		<rect x="45.3" y="87.8" class="st1" width="13.2" height="7.2"/>
		<text transform="matrix(1 0 0 1 45.2909 93.5003)" class="st2 st3 st7">C2</text>
	</g>
</g>
<g>
	<path class="st6" d="M56,125.4H43.6c-5.2,0-9.5-4.2-9.5-9.5l0,0c0-5.2,4.2-9.5,9.5-9.5H56c5.2,0,9.5,4.2,9.5,9.5l0,0
		C65.5,121.1,61.2,125.4,56,125.4z"/>
	<g>
		<rect x="45.7" y="113.1" class="st1" width="13.2" height="7.2"/>
		<text transform="matrix(1 0 0 1 45.7108 118.8253)" class="st2 st3 st7">......</text>
	</g>
</g>
<g>
	<path class="st6" d="M56.4,150.7H44c-5.2,0-9.5-4.2-9.5-9.5l0,0c0-5.2,4.2-9.5,9.5-9.5h12.4c5.2,0,9.5,4.2,9.5,9.5l0,0
		C65.9,146.5,61.6,150.7,56.4,150.7z"/>
	<g>
		<rect x="42.5" y="138.4" class="st1" width="16.8" height="7.2"/>
		<text transform="matrix(1 0 0 1 42.5484 144.1497)" class="st2 st3 st7">Cn-1</text>
	</g>
</g>
<g>
	<path class="st6" d="M56.2,175.9H43.8c-5.2,0-9.5-4.2-9.5-9.5l0,0c0-5.2,4.2-9.5,9.5-9.5h12.4c5.2,0,9.5,4.2,9.5,9.5l0,0
		C65.7,171.7,61.4,175.9,56.2,175.9z"/>
	<g>
		<rect x="45.9" y="163.6" class="st1" width="13.2" height="7.2"/>
		<text transform="matrix(1 0 0 1 45.9024 169.3718)" class="st2 st3 st7">Cn</text>
	</g>
</g>
<g>
	<g>
		<line class="st20" x1="69.9" y1="66.1" x2="88.5" y2="66.1"/>
		<g>
			<path class="st2" d="M84.1,69.2c-0.1-0.2-0.1-0.3,0.1-0.4l4.1-2.6l-4.1-2.6c-0.2-0.1-0.2-0.3-0.1-0.4c0.1-0.2,0.3-0.2,0.4-0.1
				l4.6,2.9c0.1,0.1,0.2,0.2,0.2,0.3s-0.1,0.2-0.2,0.3l-4.6,2.9c-0.1,0-0.1,0.1-0.2,0.1C84.2,69.3,84.2,69.3,84.1,69.2z"/>
		</g>
	</g>
</g>
<g>
	<g>
		<line class="st20" x1="69.9" y1="91.4" x2="88.5" y2="91.4"/>
		<g>
			<path class="st2" d="M84.1,94.5C84,94.3,84,94.1,84.2,94l4.1-2.6l-4.1-2.6c-0.2-0.1-0.2-0.3-0.1-0.4c0.1-0.2,0.3-0.2,0.4-0.1
				l4.6,2.9c0.1,0.1,0.2,0.2,0.2,0.3s-0.1,0.2-0.2,0.3l-4.6,2.9c-0.1,0-0.1,0.1-0.2,0.1C84.2,94.6,84.2,94.6,84.1,94.5z"/>
		</g>
	</g>
</g>
<g>
	<g>
		<line class="st20" x1="69.9" y1="116.7" x2="88.5" y2="116.7"/>
		<g>
			<path class="st2" d="M84.1,119.8c-0.1-0.2-0.1-0.3,0.1-0.4l4.1-2.6l-4.1-2.6c-0.2-0.1-0.2-0.3-0.1-0.4c0.1-0.2,0.3-0.2,0.4-0.1
				l4.6,2.9c0.1,0.1,0.2,0.2,0.2,0.3s-0.1,0.2-0.2,0.3l-4.6,2.9c-0.1,0-0.1,0.1-0.2,0.1C84.2,119.9,84.2,119.9,84.1,119.8z"/>
		</g>
	</g>
</g>
<g>
	<g>
		<line class="st20" x1="130.9" y1="115.9" x2="159.7" y2="115.9"/>
		<g>
			<path class="st2" d="M155.3,119c-0.1-0.2-0.1-0.3,0.1-0.4l4.1-2.6l-4.1-2.6c-0.1-0.1-0.2-0.3-0.1-0.4c0.1-0.2,0.3-0.2,0.4-0.1
				l4.6,2.9c0.1,0.1,0.1,0.2,0.1,0.3s-0.1,0.2-0.1,0.3l-4.6,2.9c-0.1,0-0.1,0.1-0.2,0.1C155.5,119.1,155.4,119.1,155.3,119z"/>
		</g>
	</g>
</g>
<g>
	<g>
		<line class="st20" x1="69.9" y1="142" x2="88.5" y2="142"/>
		<g>
			<path class="st2" d="M84.1,145c-0.1-0.1-0.1-0.4,0.1-0.4l4.1-2.6l-4.1-2.6c-0.2-0.1-0.2-0.3-0.1-0.4s0.3-0.2,0.4-0.1l4.6,2.9
				c0.1,0.1,0.2,0.2,0.2,0.3s-0.1,0.2-0.2,0.3l-4.6,2.9c-0.1,0-0.1,0.1-0.2,0.1C84.2,145.2,84.2,145.1,84.1,145z"/>
		</g>
	</g>
</g>
<g>
	<g>
		<line class="st20" x1="69.9" y1="167.3" x2="88.5" y2="167.3"/>
		<g>
			<path class="st2" d="M84.1,170.4c-0.1-0.1-0.1-0.4,0.1-0.4l4.1-2.6l-4.1-2.6c-0.2-0.1-0.2-0.3-0.1-0.4s0.3-0.2,0.4-0.1l4.6,2.9
				c0.1,0.1,0.2,0.2,0.2,0.3s-0.1,0.2-0.2,0.3l-4.6,2.9c-0.1,0-0.1,0.1-0.2,0.1C84.2,170.6,84.2,170.5,84.1,170.4z"/>
		</g>
	</g>
</g>
<g>
	<text transform="matrix(1 0 0 1 131.2509 110.0541)" class="st2 st11 st12">SDK接口</text>
</g>
<g>
	<g>
		<line class="st20" x1="329.6" y1="115.1" x2="358.4" y2="115.1"/>
		<g>
			<path class="st2" d="M354,118.2c-0.1-0.2,0-0.3,0.1-0.4l4.1-2.6l-4.1-2.6c-0.1-0.1-0.2-0.3-0.1-0.4c0.1-0.2,0.3-0.2,0.4-0.1
				l4.5,2.9c0.1,0.1,0.1,0.2,0.1,0.3s-0.1,0.2-0.1,0.3l-4.5,2.9c0,0-0.1,0.1-0.2,0.1C354.2,118.3,354.1,118.3,354,118.2z"/>
		</g>
	</g>
</g>
<g>
	<text transform="matrix(1 0 0 1 329.9593 109.2648)" class="st2 st11 st12">API接口</text>
</g>
<g>
	<rect x="390" y="180.1" class="st1" width="131.7" height="9.8"/>
	<text transform="matrix(1 0 0 1 389.9922 183.6312)" class="st2 st3 st16">注：m 为采样源个数，n 为采样时间间隔。</text>
</g>
</svg>
