<?xml version="1.0" encoding="utf-8"?>
<!-- Generator: Adobe Illustrator 25.3.1, SVG Export Plug-In . SVG Version: 6.00 Build 0)  -->
<svg version="1.1" id="图层_1" xmlns="http://www.w3.org/2000/svg" xmlns:xlink="http://www.w3.org/1999/xlink" x="0px" y="0px"
	 viewBox="0 0 741.28 218.61" style="enable-background:new 0 0 741.28 218.61;" xml:space="preserve">
<style type="text/css">
	.st0{fill:#FFFFFF;stroke:#231815;stroke-miterlimit:10;}
	.st1{fill:none;stroke:#231815;stroke-miterlimit:10;}
	.st2{fill:none;}
	.st3{fill:#231815;stroke:#231815;stroke-width:0.5;stroke-miterlimit:10;}
	.st4{font-family:'HarmonyOS_Sans_SC_Light';}
	.st5{font-size:14px;}
	.st6{fill:#FFFFFF;stroke:#231815;stroke-width:0.5;stroke-miterlimit:10;}
	.st7{fill:#231815;}
	.st8{font-size:6.45px;}
	.st9{font-size:10px;glyph-orientation-vertical:0;writing-mode:tb;}
	.st10{fill:none;stroke:#231815;stroke-width:0.5;stroke-miterlimit:10;}
	.st11{font-family:'HarmonyOS_Sans_SC';}
	.st12{font-size:12px;}
	.st13{font-size:5.2776px;}
	.st14{font-size:4px;}
	.st15{font-size:4.5px;}
	.st16{font-size:3.5px;}
	.st17{fill:#FFFFFF;}
	.st18{fill:none;stroke:#231815;stroke-width:0.4;stroke-miterlimit:10;}
	.st19{fill:#FFFFFF;stroke:#231815;stroke-width:0.4;stroke-miterlimit:10;}
	.st20{fill:none;stroke:#231815;stroke-width:0.8;stroke-miterlimit:10;stroke-dasharray:2,2;}
	.st21{font-family:'HarmonyOS_Sans_SC_Thin';}
	.st22{font-size:7px;}
</style>
<g>
	<path class="st0" d="M307.9,198.77H26.42c-6.68,0-12.09-5.41-12.09-12.09V28.05c0-6.68,5.41-12.09,12.09-12.09H307.9
		c6.68,0,12.09,5.41,12.09,12.09v158.64C319.99,193.36,314.57,198.77,307.9,198.77z"/>
	<path class="st1" d="M710.81,198.77H370.87c-6.68,0-12.09-5.41-12.09-12.09V28.04c0-6.68,5.41-12.09,12.09-12.09h339.94
		c6.68,0,12.09,5.41,12.09,12.09v158.65C722.9,193.36,717.48,198.77,710.81,198.77z"/>
	<g>
		<rect x="27.23" y="27.36" class="st2" width="57.15" height="18.53"/>
		<text transform="matrix(1 0 0 1 27.234 39.8151)" class="st3 st4 st5">Sensing</text>
	</g>
	<g>
		<rect x="371.66" y="25.64" class="st2" width="60.53" height="18.53"/>
		<text transform="matrix(1 0 0 1 371.6571 38.0905)" class="st3 st4 st5">Analysis</text>
	</g>
	<g>
		<path class="st6" d="M50.91,72.98H38.49c-5.24,0-9.49-4.25-9.49-9.49v0c0-5.24,4.25-9.49,9.49-9.49h12.42
			c5.24,0,9.49,4.25,9.49,9.49v0C60.4,68.73,56.15,72.98,50.91,72.98z"/>
		<g>
			<rect x="40.64" y="60.68" class="st2" width="13.2" height="7.18"/>
			<text transform="matrix(1 0 0 1 40.641 66.4209)" class="st7 st4 st8">C1</text>
		</g>
	</g>
	<g>
		<path class="st6" d="M110.32,174.07H97.9c-5.24,0-9.49-4.25-9.49-9.49V64.02c0-5.24,4.25-9.49,9.49-9.49h12.42
			c5.24,0,9.49,4.25,9.49,9.49v100.57C119.8,169.83,115.56,174.07,110.32,174.07z"/>
		<text transform="matrix(1 0 0 1 104.1067 83.1476)" class="st7 st4 st9">Camera</text>
	</g>
	<g>
		<path class="st10" d="M701.84,189.98h-320.1c-5.24,0-9.49-4.25-9.49-9.49V56.36c0-5.24,4.25-9.49,9.49-9.49h320.1
			c5.24,0,9.49,4.25,9.49,9.49v124.13C711.32,185.73,707.08,189.98,701.84,189.98z"/>
		<rect x="498.77" y="49.65" class="st2" width="89.27" height="19.3"/>
		<text transform="matrix(1 0 0 1 498.7655 62.3184)" class="st7 st11 st12">Python Service</text>
		<g>
			<path class="st6" d="M462.14,93.97h-71.43c-4.29,0-7.76-3.48-7.76-7.76v-3.44c0-4.29,3.48-7.76,7.76-7.76h71.43
				c4.29,0,7.76,3.48,7.76,7.76v3.44C469.9,90.5,466.43,93.97,462.14,93.97z"/>
			<g>
				<rect x="389.16" y="78.65" class="st2" width="78.61" height="13.43"/>
				<text transform="matrix(1 0 0 1 389.1548 83.3433)"><tspan x="0" y="0" class="st7 st4 st13">C1f1  </tspan><tspan x="0" y="6.33" class="st7 st4 st13">Single-camera,single-timestamp</tspan></text>
			</g>
		</g>
		<g>
			<path class="st6" d="M565.98,84.47h-54.76c-3.83,0-6.93-3.1-6.93-6.93v-1.2c0-3.83,3.1-6.93,6.93-6.93h54.76
				c3.83,0,6.93,3.1,6.93,6.93v1.2C572.91,81.37,569.81,84.47,565.98,84.47z"/>
			<g>
				<rect x="508.72" y="72.67" class="st2" width="64.19" height="20.5"/>
				<text transform="matrix(1 0 0 1 508.7234 76.2225)"><tspan x="0" y="0" class="st7 st4 st14">Local high-response, </tspan><tspan x="0" y="4.8" class="st7 st4 st14">high-fault-tolerance applications</tspan></text>
			</g>
		</g>
		<g>
			<path class="st6" d="M565.98,103.07h-54.76c-3.83,0-6.93-3.1-6.93-6.93v-1.2c0-3.83,3.1-6.93,6.93-6.93h54.76
				c3.83,0,6.93,3.1,6.93,6.93v1.2C572.91,99.97,569.81,103.07,565.98,103.07z"/>
			<g>
				<rect x="508.97" y="93.54" class="st2" width="63.69" height="6.01"/>
				<text transform="matrix(1 0 0 1 508.9735 97.0996)" class="st7 st4 st14">Local low-response applications</text>
			</g>
		</g>
		<g>
			<path class="st6" d="M691.7,79.65h-78.2c-3.7,0-6.7-3-6.7-6.7v-0.46c0-3.7,3-6.7,6.7-6.7h78.2c3.7,0,6.7,3,6.7,6.7v0.46
				C698.4,76.65,695.4,79.65,691.7,79.65z"/>
			<g>
				<rect x="610.19" y="70.67" class="st2" width="120.51" height="5.24"/>
				<text transform="matrix(1 0 0 1 610.186 74.6745)" class="st7 st4 st15">Example: e-bike warning inside elevator</text>
			</g>
		</g>
		<g>
			<path class="st6" d="M691.7,96.77h-77.2c-3.7,0-6.7-3-6.7-6.7v-0.46c0-3.7,3-6.7,6.7-6.7h77.2c3.7,0,6.7,3,6.7,6.7v0.46
				C698.4,93.77,695.4,96.77,691.7,96.77z"/>
			<g>
				<rect x="611.19" y="87.79" class="st2" width="67.43" height="5.62"/>
				<text transform="matrix(1 0 0 1 611.186 91.7912)" class="st7 st4 st15">Example: no-mask alert</text>
			</g>
		</g>
		<g>
			<path class="st6" d="M691.7,113.89h-76.48c-3.7,0-6.7-3-6.7-6.7v-0.46c0-3.7,3-6.7,6.7-6.7h76.48c3.7,0,6.7,3,6.7,6.7v0.46
				C698.4,110.89,695.4,113.89,691.7,113.89z"/>
			<g>
				<rect x="611.91" y="104.91" class="st2" width="89.62" height="5.24"/>
				<text transform="matrix(1 0 0 1 611.9106 108.9152)" class="st7 st4 st15">Example: illegal parking or flow-sampling</text>
			</g>
		</g>
		<g>
			<path class="st6" d="M691.7,131.01h-76.48c-3.7,0-6.7-3-6.7-6.7v-0.46c0-3.7,3-6.7,6.7-6.7h76.48c3.7,0,6.7,3,6.7,6.7v0.46
				C698.4,128.01,695.4,131.01,691.7,131.01z"/>
			<g>
				<rect x="612.47" y="120.31" class="st2" width="80.26" height="11.39"/>
				<text transform="matrix(1 0 0 1 612.4694 123.8722)"><tspan x="0" y="0" class="st7 st4 st14">Examples: crowd-gathering detection; </tspan><tspan x="0" y="4.8" class="st7 st4 st14">ignition/fire-discharge detection</tspan></text>
			</g>
		</g>
		<g>
			<path class="st6" d="M691.7,148.81h-76.48c-3.7,0-6.7-3-6.7-6.7v-0.46c0-3.7,3-6.7,6.7-6.7h76.48c3.7,0,6.7,3,6.7,6.7v0.46
				C698.4,145.81,695.4,148.81,691.7,148.81z"/>
			<g>
				<rect x="612.91" y="139.83" class="st2" width="69.98" height="6.66"/>
				<text transform="matrix(1 0 0 1 612.9106 143.8341)" class="st7 st4 st15">Example: barrier-gate recognition</text>
			</g>
		</g>
		<g>
			<path class="st6" d="M691.7,165.93h-76.48c-3.7,0-6.7-3-6.7-6.7v-0.46c0-3.7,3-6.7,6.7-6.7h76.48c3.7,0,6.7,3,6.7,6.7v0.46
				C698.4,162.93,695.4,165.93,691.7,165.93z"/>
			<g>
				<rect x="612.91" y="156.95" class="st2" width="90.35" height="5.62"/>
				<text transform="matrix(1 0 0 1 612.9106 160.506)" class="st7 st4 st14">Example: analyze movement direction of flows</text>
			</g>
		</g>
		<g>
			<path class="st6" d="M691.7,182.66h-76.48c-3.7,0-6.7-3-6.7-6.7v-0.46c0-3.7,3-6.7,6.7-6.7h76.48c3.7,0,6.7,3,6.7,6.7v0.46
				C698.4,179.66,695.4,182.66,691.7,182.66z"/>
			<g>
				<rect x="612.91" y="173.68" class="st2" width="78.44" height="5.62"/>
				<text transform="matrix(1 0 0 1 612.9106 177.237)" class="st7 st4 st14">Example: track a specific target’s trajectory</text>
			</g>
		</g>
		<g>
			<path class="st6" d="M565.98,122.12h-54.76c-3.83,0-6.93-3.1-6.93-6.93v-1.2c0-3.83,3.1-6.93,6.93-6.93h54.76
				c3.83,0,6.93,3.1,6.93,6.93v1.2C572.91,119.02,569.81,122.12,565.98,122.12z"/>
			<g>
				<rect x="508.35" y="112.53" class="st2" width="61.52" height="4.53"/>
				<text transform="matrix(1 0 0 1 508.3496 116.0907)" class="st7 st4 st14">Local high-response applications</text>
			</g>
		</g>
		<g>
			<path class="st6" d="M565.98,140.72h-54.76c-3.83,0-6.93-3.1-6.93-6.93v-1.2c0-3.83,3.1-6.93,6.93-6.93h54.76
				c3.83,0,6.93,3.1,6.93,6.93v1.2C572.91,137.62,569.81,140.72,565.98,140.72z"/>
			<g>
				<rect x="508.72" y="129.93" class="st2" width="68.28" height="14.41"/>
				<text transform="matrix(1 0 0 1 508.7235 133.0442)"><tspan x="0" y="0" class="st7 st4 st16">Less-common modeling applications </tspan><tspan x="0" y="4.2" class="st7 st4 st16">(suitable for 3D reconstruction)</tspan></text>
			</g>
		</g>
		<g>
			<path class="st6" d="M565.98,159.73h-54.76c-3.83,0-6.93-3.1-6.93-6.93v-1.2c0-3.83,3.1-6.93,6.93-6.93h54.76
				c3.83,0,6.93,3.1,6.93,6.93v1.2C572.91,156.63,569.81,159.73,565.98,159.73z"/>
			<g>
				<rect x="508.72" y="148.45" class="st2" width="60.77" height="8.48"/>
				<text transform="matrix(1 0 0 1 508.7234 152.0038)"><tspan x="0" y="0" class="st7 st4 st14">Global low-response sampling &amp; </tspan><tspan x="0" y="4.8" class="st7 st4 st14">analysis applications</tspan></text>
			</g>
		</g>
		<g>
			<path class="st6" d="M565.98,177.14h-54.76c-3.83,0-6.93-3.1-6.93-6.93v0c0-3.83,3.1-6.93,6.93-6.93h54.76
				c3.83,0,6.93,3.1,6.93,6.93v0C572.91,174.04,569.81,177.14,565.98,177.14z"/>
			<g>
				<rect x="507.98" y="168.58" class="st2" width="55.69" height="4.72"/>
				<text transform="matrix(1 0 0 1 507.9758 171.6931)" class="st7 st4 st16">Global high-response applications</text>
			</g>
		</g>
		<g>
			<path class="st6" d="M462.26,118.59h-71.55c-4.29,0-7.76-3.48-7.76-7.76v-3.74c0-4.29,3.48-7.76,7.76-7.76h71.55
				c4.29,0,7.76,3.48,7.76,7.76v3.74C470.02,115.11,466.55,118.59,462.26,118.59z"/>
			<g>
				<rect x="388.7" y="102.96" class="st2" width="79.51" height="12.81"/>
				<text transform="matrix(1 0 0 1 388.7038 107.6514)"><tspan x="0" y="0" class="st7 st4 st13">C1fn </tspan><tspan x="0" y="6.33" class="st7 st4 st13">Single-camera, multi-timestamp</tspan></text>
			</g>
		</g>
		<g>
			<path class="st6" d="M462.26,143.74h-71.55c-4.29,0-7.76-3.48-7.76-7.76v-4.18c0-4.29,3.48-7.76,7.76-7.76h71.55
				c4.29,0,7.76,3.48,7.76,7.76v4.18C470.02,140.27,466.55,143.74,462.26,143.74z"/>
			<g>
				<rect x="388.83" y="128.26" class="st2" width="76.92" height="13.54"/>
				<text transform="matrix(1 0 0 1 388.8308 132.9492)"><tspan x="0" y="0" class="st7 st4 st13">Cmf1  </tspan><tspan x="0" y="6.33" class="st7 st4 st13">Multi-camera, single-timestamp</tspan></text>
			</g>
		</g>
		<g>
			<path class="st6" d="M462.26,169.06h-71.55c-4.29,0-7.76-3.48-7.76-7.76v-4.79c0-4.29,3.48-7.76,7.76-7.76h71.55
				c4.29,0,7.76,3.48,7.76,7.76v4.79C470.02,165.58,466.55,169.06,462.26,169.06z"/>
			<g>
				<rect x="389.16" y="153.21" class="st2" width="75.4" height="13.64"/>
				<text transform="matrix(1 0 0 1 389.1551 157.8995)"><tspan x="0" y="0" class="st7 st4 st13">Cmfn  </tspan><tspan x="0" y="6.33" class="st7 st4 st13">Multi-camera, multi-timestamp</tspan></text>
			</g>
		</g>
		<g>
			<g>
				<path class="st17" d="M500.86,77.58h-11.34c-1.1,0-2,0.9-2,2v5.09c0,1.1-0.9,2-2,2h-12.18"/>
				<g>
					<path class="st18" d="M500.48,77.58h-10.95c-1.1,0-2,0.9-2,2v5.09c0,1.1-0.9,2-2,2h-12.18"/>
					<g>
						<path class="st7" d="M498.29,76.05c-0.05,0.07-0.03,0.17,0.05,0.22l2.06,1.32l-2.06,1.31c-0.07,0.05-0.1,0.15-0.05,0.22
							c0.05,0.07,0.15,0.1,0.22,0.05l2.28-1.45c0.05-0.03,0.07-0.08,0.07-0.13s-0.03-0.11-0.07-0.14L498.51,76
							c-0.03-0.02-0.06-0.02-0.09-0.02C498.37,75.97,498.32,76,498.29,76.05z"/>
					</g>
				</g>
			</g>
			<path class="st19" d="M473.77,67.3"/>
			<g>
				<path class="st17" d="M500.86,96.55h-11.33c-1.11,0-2,0.9-2,2v13.24l0,0"/>
				<g>
					<path class="st18" d="M500.48,96.55h-10.95c-1.11,0-2,0.9-2,2v13.24"/>
					<g>
						<path class="st7" d="M498.29,95.01c-0.05,0.07-0.03,0.17,0.05,0.22l2.06,1.32l-2.06,1.32c-0.07,0.05-0.1,0.15-0.05,0.22
							c0.05,0.07,0.15,0.1,0.22,0.05l2.28-1.45c0.05-0.03,0.07-0.08,0.07-0.14s-0.03-0.11-0.07-0.14l-2.28-1.45
							c-0.03-0.02-0.06-0.02-0.09-0.02C498.37,94.94,498.32,94.96,498.29,95.01z"/>
					</g>
				</g>
			</g>
			<g>
				<path class="st17" d="M473.35,111.79h14.18v2.75c0,1.1,0.89,2,2,2h11.34"/>
				<g>
					<path class="st18" d="M473.35,111.79h14.18v2.75c0,1.1,0.89,2,2,2h10.95"/>
					<g>
						<path class="st7" d="M498.29,118.07c-0.05-0.07-0.03-0.17,0.05-0.22l2.06-1.32l-2.06-1.32c-0.07-0.05-0.1-0.15-0.05-0.22
							c0.05-0.07,0.15-0.1,0.22-0.05l2.28,1.45c0.05,0.03,0.07,0.08,0.07,0.14s-0.03,0.11-0.07,0.14l-2.28,1.45
							c-0.03,0.02-0.06,0.02-0.09,0.02C498.37,118.14,498.32,118.12,498.29,118.07z"/>
					</g>
				</g>
			</g>
			<g>
				<line class="st17" x1="473.35" y1="134.43" x2="500.86" y2="134.43"/>
				<g>
					<line class="st18" x1="473.35" y1="134.43" x2="500.48" y2="134.43"/>
					<g>
						<path class="st7" d="M498.29,135.97c-0.05-0.07-0.03-0.17,0.05-0.22l2.06-1.32l-2.06-1.32c-0.07-0.05-0.1-0.15-0.05-0.22
							c0.05-0.07,0.15-0.1,0.22-0.05l2.28,1.45c0.05,0.03,0.07,0.08,0.07,0.14s-0.03,0.11-0.07,0.13l-2.28,1.45
							c-0.03,0.02-0.06,0.02-0.09,0.02C498.37,136.04,498.32,136.02,498.29,135.97z"/>
					</g>
				</g>
			</g>
			<g>
				<g>
					<path class="st17" d="M473.35,157.09h14.18v-0.73v-2.93c0-1.1,0.89-2,2-2h11.34"/>
					<g>
						<path class="st18" d="M473.35,157.09h14.18v-0.73v-2.93c0-1.1,0.89-2,2-2h10.95"/>
						<g>
							<path class="st7" d="M498.29,152.96c-0.05-0.07-0.03-0.17,0.05-0.22l2.06-1.31l-2.06-1.32c-0.07-0.05-0.1-0.15-0.05-0.22
								c0.05-0.07,0.15-0.1,0.22-0.05l2.28,1.45c0.05,0.03,0.07,0.08,0.07,0.14s-0.03,0.11-0.07,0.13l-2.28,1.45
								c-0.03,0.02-0.06,0.02-0.09,0.02C498.37,153.04,498.32,153.01,498.29,152.96z"/>
						</g>
					</g>
				</g>
				<g>
					<path class="st17" d="M487.53,156.35v13.18c0,1.1,0.89,2,2,2h11.34"/>
					<g>
						<path class="st18" d="M487.53,156.35v13.18c0,1.1,0.89,2,2,2h10.95"/>
						<g>
							<path class="st7" d="M498.29,173.06c-0.05-0.07-0.03-0.17,0.05-0.22l2.06-1.32l-2.06-1.32c-0.07-0.05-0.1-0.15-0.05-0.22
								c0.05-0.07,0.15-0.1,0.22-0.05l2.28,1.45c0.05,0.03,0.07,0.08,0.07,0.13s-0.03,0.11-0.07,0.14l-2.28,1.45
								c-0.03,0.02-0.06,0.02-0.09,0.02C498.37,173.14,498.32,173.11,498.29,173.06z"/>
						</g>
					</g>
				</g>
			</g>
			<path class="st19" d="M487.53,171.53"/>
		</g>
		<g>
			<g>
				<path class="st2" d="M576.7,61.86"/>
			</g>
			<g>
				<path class="st2" d="M590.46,166.08"/>
			</g>
			<g>
				<g>
					<path class="st18" d="M576.28,75.92h12.3c1.04,0,1.87-0.84,1.87-1.87s0.84-1.87,1.87-1.87h11.08"/>
					<g>
						<path class="st7" d="M601.22,73.7c-0.05-0.07-0.03-0.17,0.05-0.22l2.06-1.32l-2.06-1.31c-0.07-0.05-0.1-0.15-0.05-0.22
							c0.05-0.07,0.15-0.1,0.22-0.05l2.28,1.45c0.05,0.03,0.07,0.08,0.07,0.13s-0.03,0.11-0.07,0.14l-2.28,1.45
							c-0.03,0.02-0.06,0.02-0.09,0.02C601.3,73.78,601.25,73.75,601.22,73.7z"/>
					</g>
				</g>
			</g>
			<g>
				<g>
					<path class="st18" d="M603.41,90.6h-11.08c-1.04,0-1.87-0.95-1.87-2.11V74.04"/>
					<g>
						<path class="st7" d="M601.22,89.06c-0.05,0.07-0.03,0.17,0.05,0.22l2.06,1.32l-2.06,1.32c-0.07,0.05-0.1,0.15-0.05,0.22
							c0.05,0.07,0.15,0.1,0.22,0.05l2.28-1.45c0.05-0.03,0.07-0.08,0.07-0.14s-0.03-0.11-0.07-0.13l-2.28-1.45
							c-0.03-0.02-0.06-0.02-0.09-0.02C601.3,88.99,601.25,89.02,601.22,89.06z"/>
					</g>
				</g>
			</g>
			<g>
				<path class="st2" d="M572.61,96.14"/>
			</g>
			<g>
				<g>
					<path class="st18" d="M576.28,96.14h12.3c1.04,0,1.87,0.84,1.87,1.87v8.3c0,1.04,0.84,1.87,1.87,1.87h11.08"/>
					<g>
						<path class="st7" d="M601.22,109.73c-0.05-0.07-0.03-0.17,0.05-0.22l2.06-1.32l-2.06-1.32c-0.07-0.05-0.1-0.15-0.05-0.22
							c0.05-0.07,0.15-0.1,0.22-0.05l2.28,1.45c0.05,0.03,0.07,0.08,0.07,0.14s-0.03,0.11-0.07,0.14l-2.28,1.45
							c-0.03,0.02-0.06,0.03-0.09,0.03C601.3,109.81,601.25,109.78,601.22,109.73z"/>
					</g>
				</g>
			</g>
			<g>
				<g>
					<path class="st18" d="M603.41,124.69h-11.08c-1.04,0-1.87-0.84-1.87-1.87v-17.9"/>
					<g>
						<path class="st7" d="M601.22,123.15c-0.05,0.07-0.03,0.17,0.05,0.22l2.06,1.32l-2.06,1.32c-0.07,0.05-0.1,0.15-0.05,0.22
							c0.05,0.07,0.15,0.1,0.22,0.05l2.28-1.45c0.05-0.03,0.07-0.08,0.07-0.14s-0.03-0.11-0.07-0.13l-2.28-1.45
							c-0.03-0.02-0.06-0.02-0.09-0.02C601.3,123.08,601.25,123.1,601.22,123.15z"/>
					</g>
				</g>
			</g>
			<g>
				<g>
					<path class="st18" d="M576.28,133.42h12.3c1.04,0,1.87,0.84,1.87,1.87v5.63c0,1.04,0.84,1.87,1.87,1.87h11.08"/>
					<g>
						<path class="st7" d="M601.22,144.34c-0.05-0.07-0.03-0.17,0.05-0.22l2.06-1.32l-2.06-1.32c-0.07-0.05-0.1-0.15-0.05-0.22
							c0.05-0.07,0.15-0.1,0.22-0.05l2.28,1.45c0.05,0.03,0.07,0.08,0.07,0.13s-0.03,0.11-0.07,0.14l-2.28,1.45
							c-0.03,0.02-0.06,0.02-0.09,0.02C601.3,144.41,601.25,144.39,601.22,144.34z"/>
					</g>
				</g>
			</g>
			<g>
				<g>
					<path class="st18" d="M576.28,152.69h12.3c1.04,0,1.87,0.84,1.87,1.87v2.26c0,1.04,0.84,1.87,1.87,1.87h11.08"/>
					<g>
						<path class="st7" d="M601.22,160.23c-0.05-0.07-0.03-0.17,0.05-0.22l2.06-1.32l-2.06-1.32c-0.07-0.05-0.1-0.15-0.05-0.22
							c0.05-0.07,0.15-0.1,0.22-0.05l2.28,1.45c0.05,0.03,0.07,0.08,0.07,0.13s-0.03,0.11-0.07,0.14l-2.28,1.45
							c-0.03,0.02-0.06,0.02-0.09,0.02C601.3,160.31,601.25,160.28,601.22,160.23z"/>
					</g>
				</g>
			</g>
			<g>
				<g>
					<path class="st18" d="M603.41,175.73h-11.08c-1.04,0-1.87-0.84-1.87-1.87v-17.03"/>
					<g>
						<path class="st7" d="M601.22,174.19c-0.05,0.07-0.03,0.17,0.05,0.22l2.06,1.32l-2.06,1.32c-0.07,0.05-0.1,0.15-0.05,0.22
							c0.05,0.07,0.15,0.1,0.22,0.05l2.28-1.45c0.05-0.03,0.07-0.08,0.07-0.14s-0.03-0.11-0.07-0.14l-2.28-1.45
							c-0.03-0.02-0.06-0.03-0.09-0.03C601.3,174.12,601.25,174.15,601.22,174.19z"/>
					</g>
				</g>
			</g>
		</g>
	</g>
	<g>
		<path class="st6" d="M50.72,98.2H38.3c-5.24,0-9.49-4.25-9.49-9.49v0c0-5.24,4.25-9.49,9.49-9.49h12.42
			c5.24,0,9.49,4.25,9.49,9.49v0C60.2,93.95,55.95,98.2,50.72,98.2z"/>
		<g>
			<rect x="40.44" y="85.91" class="st2" width="13.2" height="7.18"/>
			<text transform="matrix(1 0 0 1 40.4442 91.6424)" class="st7 st4 st8">C2</text>
		</g>
	</g>
	<g>
		<path class="st6" d="M51.14,123.53H38.72c-5.24,0-9.49-4.25-9.49-9.49v0c0-5.24,4.25-9.49,9.49-9.49h12.42
			c5.24,0,9.49,4.25,9.49,9.49v0C60.62,119.28,56.37,123.53,51.14,123.53z"/>
		<g>
			<rect x="40.86" y="111.23" class="st2" width="13.2" height="7.18"/>
			<text transform="matrix(1 0 0 1 40.864 116.9673)" class="st7 st4 st8">......</text>
		</g>
	</g>
	<g>
		<path class="st6" d="M51.52,148.85H39.1c-5.24,0-9.49-4.25-9.49-9.49v0c0-5.24,4.25-9.49,9.49-9.49h12.42
			c5.24,0,9.49,4.25,9.49,9.49v0C61.01,144.6,56.76,148.85,51.52,148.85z"/>
		<g>
			<rect x="37.7" y="136.56" class="st2" width="16.75" height="7.18"/>
			<text transform="matrix(1 0 0 1 37.7017 142.2918)" class="st7 st4 st8">Cn-1</text>
		</g>
	</g>
	<g>
		<path class="st6" d="M51.33,174.07H38.91c-5.24,0-9.49-4.25-9.49-9.49v0c0-5.24,4.25-9.49,9.49-9.49h12.42
			c5.24,0,9.49,4.25,9.49,9.49v0C60.81,169.83,56.57,174.07,51.33,174.07z"/>
		<g>
			<rect x="41.06" y="161.78" class="st2" width="13.2" height="7.18"/>
			<text transform="matrix(1 0 0 1 41.0556 167.5139)" class="st7 st4 st8">Cn</text>
		</g>
	</g>
	<g>
		<g>
			<line class="st20" x1="65.04" y1="64.28" x2="83.62" y2="64.28"/>
			<g>
				<path class="st7" d="M79.24,67.35c-0.09-0.15-0.05-0.35,0.1-0.44l4.13-2.63l-4.13-2.63c-0.15-0.1-0.19-0.29-0.1-0.44
					c0.09-0.15,0.29-0.19,0.44-0.1l4.55,2.9c0.09,0.06,0.15,0.16,0.15,0.27s-0.06,0.21-0.15,0.27l-4.55,2.9
					c-0.05,0.03-0.11,0.05-0.17,0.05C79.41,67.5,79.3,67.44,79.24,67.35z"/>
			</g>
		</g>
	</g>
	<g>
		<g>
			<line class="st20" x1="65.04" y1="89.55" x2="83.62" y2="89.55"/>
			<g>
				<path class="st7" d="M79.24,92.62c-0.09-0.15-0.05-0.35,0.1-0.44l4.13-2.63l-4.13-2.63c-0.15-0.09-0.19-0.29-0.1-0.44
					c0.09-0.15,0.29-0.19,0.44-0.1l4.55,2.9c0.09,0.06,0.15,0.16,0.15,0.27s-0.06,0.21-0.15,0.27l-4.55,2.9
					c-0.05,0.03-0.11,0.05-0.17,0.05C79.41,92.77,79.3,92.72,79.24,92.62z"/>
			</g>
		</g>
	</g>
	<g>
		<g>
			<line class="st20" x1="65.04" y1="114.85" x2="83.62" y2="114.85"/>
			<g>
				<path class="st7" d="M79.24,117.92c-0.09-0.15-0.05-0.35,0.1-0.44l4.13-2.63l-4.13-2.63c-0.15-0.1-0.19-0.29-0.1-0.44
					s0.29-0.19,0.44-0.1l4.55,2.9c0.09,0.06,0.15,0.16,0.15,0.27s-0.06,0.21-0.15,0.27l-4.55,2.9c-0.05,0.03-0.11,0.05-0.17,0.05
					C79.41,118.07,79.3,118.02,79.24,117.92z"/>
			</g>
		</g>
	</g>
	<g>
		<g>
			<line class="st20" x1="126.04" y1="114.04" x2="154.84" y2="114.04"/>
			<g>
				<path class="st7" d="M150.46,117.11c-0.09-0.15-0.05-0.35,0.1-0.44l4.13-2.63l-4.13-2.63c-0.15-0.09-0.19-0.29-0.1-0.44
					s0.29-0.19,0.44-0.1l4.55,2.9c0.09,0.06,0.15,0.16,0.15,0.27s-0.06,0.21-0.15,0.27l-4.55,2.9c-0.05,0.03-0.11,0.05-0.17,0.05
					C150.63,117.26,150.52,117.21,150.46,117.11z"/>
			</g>
		</g>
	</g>
	<g>
		<g>
			<line class="st20" x1="65.04" y1="140.11" x2="83.62" y2="140.11"/>
			<g>
				<path class="st7" d="M79.24,143.18c-0.09-0.15-0.05-0.35,0.1-0.44l4.13-2.63l-4.13-2.63c-0.15-0.1-0.19-0.29-0.1-0.44
					c0.09-0.15,0.29-0.19,0.44-0.1l4.55,2.9c0.09,0.06,0.15,0.16,0.15,0.27c0,0.11-0.06,0.21-0.15,0.27l-4.55,2.9
					c-0.05,0.03-0.11,0.05-0.17,0.05C79.41,143.33,79.3,143.28,79.24,143.18z"/>
			</g>
		</g>
	</g>
	<g>
		<g>
			<line class="st20" x1="65.04" y1="165.47" x2="83.62" y2="165.47"/>
			<g>
				<path class="st7" d="M79.24,168.54c-0.09-0.15-0.05-0.35,0.1-0.44l4.13-2.63l-4.13-2.63c-0.15-0.09-0.19-0.29-0.1-0.44
					s0.29-0.19,0.44-0.1l4.55,2.9c0.09,0.06,0.15,0.16,0.15,0.27s-0.06,0.21-0.15,0.27l-4.55,2.9c-0.05,0.03-0.11,0.05-0.17,0.05
					C79.41,168.69,79.3,168.64,79.24,168.54z"/>
			</g>
		</g>
	</g>
	<g>
		<text transform="matrix(1 0 0 1 132.2901 109.473)" class="st7 st21 st22">SDK</text>
	</g>
	<g>
		<text transform="matrix(1 0 0 1 124.9708 124.5288)" class="st7 st21 st22">Interface</text>
	</g>
	<g>
		<g>
			<line class="st20" x1="324.75" y1="113.25" x2="353.54" y2="113.25"/>
			<g>
				<path class="st7" d="M349.17,116.32c-0.09-0.15-0.05-0.35,0.1-0.44l4.13-2.63l-4.13-2.63c-0.15-0.09-0.19-0.29-0.1-0.44
					s0.29-0.19,0.44-0.1l4.55,2.9c0.09,0.06,0.15,0.16,0.15,0.27s-0.06,0.21-0.15,0.27l-4.55,2.9c-0.05,0.03-0.11,0.05-0.17,0.05
					C349.34,116.47,349.23,116.42,349.17,116.32z"/>
			</g>
		</g>
	</g>
	<g>
		<text transform="matrix(1 0 0 1 333.2635 107.7906)" class="st7 st21 st22">API</text>
	</g>
	<g>
		<text transform="matrix(1 0 0 1 325.2459 123.1323)" class="st7 st21 st22">Interface</text>
	</g>
	<g>
		<rect x="385.15" y="181.22" class="st2" width="131.74" height="9.76"/>
		<text transform="matrix(1 0 0 1 385.1454 184.7733)" class="st7 st4 st14">Note: m = number of camera sources; n = time-interval between samples.</text>
	</g>
	<g>
		<path class="st0" d="M296.46,174.62H169.49c-5.24,0-9.49-4.25-9.49-9.49l0-100.57c0-5.24,4.25-9.49,9.49-9.49h126.97
			c5.24,0,9.49,4.25,9.49,9.49v100.57C305.95,170.37,301.7,174.62,296.46,174.62z"/>
		<rect x="197.35" y="61.54" class="st2" width="77.59" height="19.3"/>
		<text transform="matrix(1 0 0 1 197.3514 74.2102)" class="st7 st11 st12">Java Service</text>
		<rect x="177.4" y="84.39" class="st2" width="125.55" height="47.21"/>
		<text transform="matrix(1 0 0 1 177.4024 90.5926)"><tspan x="0" y="0" class="st7 st21 st22">1. Video frame-sampling algorithm</tspan><tspan x="0" y="8.4" class="st7 st21 st22">2. YOLOv5 + DeepSORT tracking</tspan><tspan x="0" y="16.8" class="st7 st21 st22">3. Digital-twin front-end application</tspan></text>
		<text transform="matrix(1 0 0 1 177.4029 137.4994)"><tspan x="0" y="0" class="st7 st21 st22">1. Stores images/video and outputs </tspan><tspan x="0" y="8.4" class="st7 st21 st22">processed results</tspan><tspan x="0" y="16.8" class="st7 st21 st22">2. Provides a visualization dashboard</tspan><tspan x="0" y="25.2" class="st7 st21 st22"> for managers</tspan></text>
		<rect x="177.4" y="120.01" class="st2" width="28.29" height="10.35"/>
		<text transform="matrix(1 0 0 1 177.4032 126.2382)" class="st7 st4 st22">Feature</text>
	</g>
</g>
</svg>
