<?xml version="1.0" encoding="utf-8"?>
<!-- Generator: Adobe Illustrator 25.3.1, SVG Export Plug-In . SVG Version: 6.00 Build 0)  -->
<svg version="1.1" id="图层_1" xmlns="http://www.w3.org/2000/svg" xmlns:xlink="http://www.w3.org/1999/xlink" x="0px" y="0px"
	 viewBox="0 0 476.89 396.48" style="enable-background:new 0 0 476.89 396.48;" xml:space="preserve">
<style type="text/css">
	.st0{fill:none;}
	.st1{fill:#231815;}
	.st2{font-family:'HarmonyOS_Sans_SC_Light';}
	.st3{font-size:10px;}
	.st4{font-family:'HarmonyOS_Sans_SC_Thin';}
	.st5{font-size:8px;}
	.st6{fill:none;stroke:#231815;stroke-miterlimit:10;}
	.st7{fill:none;stroke:#231815;stroke-width:0.5;stroke-miterlimit:10;}
	.st8{fill:none;stroke:#231815;stroke-width:0.8;stroke-miterlimit:10;}
	.st9{fill:none;stroke:#231815;stroke-width:0.8;stroke-miterlimit:10;stroke-dasharray:2.1166,2.1166;}
	.st10{fill:none;stroke:#231815;stroke-width:0.5;stroke-miterlimit:10;stroke-dasharray:0.4906,0.4906;}
	.st11{fill:none;stroke:#231815;stroke-width:0.5;stroke-miterlimit:10;stroke-dasharray:0.5233,0.5233;}
	.st12{font-family:'AdobeSongStd-Light-GBpc-EUC-H';}
	.st13{fill:#CC5A40;}
	.st14{opacity:0.2;fill:#DA8080;stroke:#231815;stroke-width:0.5;stroke-miterlimit:10;stroke-dasharray:2;}
	.st15{fill:none;stroke:#231815;stroke-width:0.5;stroke-miterlimit:10;stroke-dasharray:2;}
	.st16{fill:none;stroke:#CC5A40;stroke-width:0.5;stroke-miterlimit:10;}
	.st17{fill:#1D1E1E;}
	.st18{font-family:'HarmonyOS_Sans_SC_Bold';}
	.st19{fill:none;stroke:#231815;stroke-width:0.4;stroke-miterlimit:10;}
	.st20{fill:none;stroke:#231815;stroke-width:0.8;stroke-miterlimit:10;stroke-dasharray:2,2;}
	.st21{fill:none;stroke:#231815;stroke-width:0.8;stroke-miterlimit:10;stroke-dasharray:2;}
	.st22{fill:#DA8080;}
	.st23{fill:#FFFFFF;stroke:#231815;stroke-miterlimit:10;}
	.st24{font-size:6px;}
	.st25{font-size:4px;}
	.st26{fill:#EFEFEF;stroke:#040000;stroke-width:0.5;stroke-miterlimit:10;}
	.st27{fill:#DAD8D8;stroke:#040000;stroke-width:0.5;stroke-miterlimit:10;}
	.st28{fill:none;stroke:#040000;stroke-width:0.5;stroke-miterlimit:10;}
	.st29{font-size:5.8436px;}
	.st30{fill:none;stroke:#231815;stroke-miterlimit:10;stroke-dasharray:2;}
	.st31{fill:#CC5A40;stroke:#CC5A40;stroke-width:0.5;stroke-miterlimit:10;}
	.st32{letter-spacing:-1;}
</style>
<g>
	<rect x="52.38" y="46.39" class="st0" width="40.92" height="10.58"/>
	<text transform="matrix(1 0 0 1 52.3777 55.285)" class="st1 st2 st3">现实环境</text>
</g>
<g>
	<rect x="99.97" y="46.39" class="st0" width="31.93" height="10.58"/>
	<text transform="matrix(1 0 0 1 99.9652 55.285)" class="st1 st2 st3">传感器</text>
</g>
<g>
	<rect x="244.1" y="48.92" class="st0" width="46.28" height="10.58"/>
	<text transform="matrix(1 0 0 1 244.0975 57.8115)" class="st1 st2 st3">决策意见</text>
</g>
<g>
	<rect x="100.87" y="73.09" class="st0" width="31.71" height="10.58"/>
	<text transform="matrix(1 0 0 1 100.8665 80.1855)" class="st1 st4 st5">感知</text>
</g>
<rect x="391.14" y="276.25" class="st0" width="45.25" height="10.58"/>
<text transform="matrix(1 0 0 1 391.1399 283.365)" class="st1 st2 st5">摄像头ID</text>
<rect x="391.14" y="261.64" class="st0" width="45.25" height="10.58"/>
<text transform="matrix(1 0 0 1 391.1399 268.7518)" class="st1 st2 st5">人</text>
<rect x="391.14" y="249.02" class="st0" width="45.25" height="10.58"/>
<text transform="matrix(1 0 0 1 391.1399 256.1386)" class="st1 st2 st5">车</text>
<g>
	<rect x="391.14" y="291.71" class="st0" width="85.75" height="10.58"/>
	<text transform="matrix(1 0 0 1 391.1399 298.8194)" class="st1 st2 st5">数字孪生感知空间</text>
</g>
<g>
	<rect x="391.14" y="307.42" class="st0" width="31.71" height="10.58"/>
	<text transform="matrix(1 0 0 1 391.1394 314.5347)" class="st1 st2 st5">摄像头</text>
</g>
<g>
	<rect x="391.14" y="322.5" class="st0" width="31.71" height="10.58"/>
	<text transform="matrix(1 0 0 1 391.1394 329.6121)" class="st1 st2 st5">建筑</text>
</g>
<g>
	<text transform="matrix(1 0 0 1 64.2357 236.3859)" class="st1 st2 st3">老旧社区的数字公共空间</text>
</g>
<g>
	<text transform="matrix(1 0 0 1 194.8083 237.6502)" class="st1 st2 st3">T1-老旧社区人车数据分布图</text>
</g>
<path class="st6" d="M145.38,202.61H44.82c-3.62,0-6.56-2.94-6.56-6.56v-85.76c0-3.62,2.94-6.56,6.56-6.56h100.56
	c3.62,0,6.56,2.94,6.56,6.56v85.76C151.94,199.67,149,202.61,145.38,202.61z"/>
<rect x="55.2" y="111.15" class="st7" width="35.87" height="10.33"/>
<rect x="361.47" y="320.67" class="st7" width="21.8" height="10.33"/>
<rect x="55.2" y="133.29" class="st7" width="35.87" height="10.33"/>
<rect x="55.2" y="156.49" class="st7" width="35.87" height="10.33"/>
<rect x="55.2" y="177.4" class="st7" width="35.87" height="10.33"/>
<rect x="102.88" y="110.56" class="st7" width="35.87" height="10.33"/>
<rect x="102.88" y="132.58" class="st7" width="35.87" height="10.33"/>
<rect x="102.88" y="158.33" class="st7" width="35.87" height="10.33"/>
<rect x="102.88" y="179.11" class="st7" width="35.87" height="10.33"/>
<g>
	<g>
		<line class="st8" x1="93.76" y1="68.13" x2="93.76" y2="69.13"/>
		<line class="st9" x1="93.76" y1="71.25" x2="93.76" y2="91.36"/>
		<line class="st8" x1="93.76" y1="92.42" x2="93.76" y2="93.42"/>
		<g>
			<path class="st1" d="M90.69,89.04c0.15-0.09,0.35-0.05,0.44,0.1l2.63,4.13l2.63-4.13c0.09-0.15,0.29-0.19,0.44-0.1
				s0.19,0.29,0.1,0.44l-2.9,4.55c-0.06,0.09-0.16,0.15-0.27,0.15s-0.21-0.06-0.27-0.15l-2.9-4.55c-0.03-0.05-0.05-0.11-0.05-0.17
				C90.54,89.21,90.59,89.1,90.69,89.04z"/>
		</g>
	</g>
</g>
<g>
	<g>
		<g>
			<line class="st7" x1="48.74" y1="129.08" x2="48.9" y2="128.89"/>
			<line class="st10" x1="49.22" y1="128.52" x2="53.55" y2="123.51"/>
			<line class="st7" x1="53.71" y1="123.32" x2="53.88" y2="123.13"/>
			<g>
				<path class="st1" d="M49.48,129.66c-0.34,0.39-0.93,0.44-1.33,0.1c-0.39-0.34-0.44-0.93-0.1-1.33c0.34-0.39,0.93-0.44,1.33-0.1
					C49.78,128.68,49.82,129.27,49.48,129.66z"/>
			</g>
			<g>
				<path class="st1" d="M53.67,125.21c-0.07-0.01-0.12-0.07-0.11-0.14l0.28-1.89l-1.83,0.55c-0.07,0.02-0.14-0.02-0.16-0.08
					c-0.02-0.07,0.02-0.14,0.08-0.16l2.02-0.61c0.04-0.01,0.09,0,0.12,0.03s0.05,0.07,0.04,0.11l-0.3,2.09
					c0,0.02-0.01,0.05-0.03,0.06C53.75,125.2,53.71,125.22,53.67,125.21z"/>
			</g>
		</g>
	</g>
</g>
<g>
	<g>
		<g>
			<line class="st7" x1="102.9" y1="151.01" x2="103.06" y2="150.82"/>
			<line class="st10" x1="103.38" y1="150.45" x2="107.71" y2="145.44"/>
			<line class="st7" x1="107.87" y1="145.25" x2="108.03" y2="145.06"/>
			<g>
				<circle class="st1" cx="102.93" cy="150.98" r="0.94"/>
			</g>
			<g>
				<path class="st1" d="M107.83,147.14c-0.07-0.01-0.12-0.07-0.11-0.14l0.28-1.89l-1.83,0.55c-0.07,0.02-0.14-0.02-0.16-0.08
					s0.02-0.14,0.08-0.16l2.02-0.61c0.04-0.01,0.09,0,0.12,0.03c0.03,0.03,0.05,0.07,0.04,0.11l-0.3,2.09
					c0,0.02-0.01,0.05-0.03,0.06C107.91,147.13,107.87,147.15,107.83,147.14z"/>
			</g>
		</g>
	</g>
</g>
<g>
	<g>
		<g>
			<line class="st7" x1="48.37" y1="187.94" x2="48.53" y2="187.75"/>
			<line class="st10" x1="48.85" y1="187.38" x2="53.18" y2="182.36"/>
			<line class="st7" x1="53.34" y1="182.18" x2="53.5" y2="181.99"/>
			<g>
				<path class="st1" d="M49.11,188.52c-0.34,0.39-0.93,0.44-1.33,0.1c-0.39-0.34-0.44-0.93-0.1-1.33c0.34-0.39,0.93-0.44,1.33-0.1
					C49.41,187.53,49.45,188.12,49.11,188.52z"/>
			</g>
			<g>
				<path class="st1" d="M53.3,184.07c-0.07-0.01-0.12-0.07-0.11-0.14l0.28-1.89l-1.83,0.55c-0.07,0.02-0.14-0.02-0.16-0.08
					c-0.02-0.07,0.02-0.14,0.08-0.16l2.02-0.61c0.04-0.01,0.09,0,0.12,0.03c0.03,0.03,0.05,0.07,0.04,0.11l-0.3,2.09
					c0,0.02-0.01,0.05-0.03,0.06C53.38,184.05,53.34,184.07,53.3,184.07z"/>
			</g>
		</g>
	</g>
</g>
<g>
	<g>
		<g>
			<line class="st7" x1="370.43" y1="315.36" x2="370.6" y2="315.17"/>
			<line class="st10" x1="370.92" y1="314.8" x2="375.24" y2="309.79"/>
			<line class="st7" x1="375.4" y1="309.6" x2="375.57" y2="309.41"/>
			<g>
				<path class="st1" d="M371.18,315.94c-0.34,0.39-0.93,0.44-1.33,0.1c-0.39-0.34-0.44-0.93-0.1-1.33s0.93-0.44,1.33-0.1
					C371.47,314.96,371.51,315.55,371.18,315.94z"/>
			</g>
			<g>
				<path class="st1" d="M375.36,311.49c-0.07-0.01-0.12-0.07-0.11-0.14l0.28-1.89l-1.83,0.55c-0.07,0.02-0.14-0.02-0.16-0.08
					s0.02-0.14,0.08-0.16l2.02-0.61c0.04-0.01,0.09,0,0.12,0.03c0.03,0.03,0.05,0.07,0.04,0.11l-0.3,2.09
					c0,0.02-0.01,0.05-0.03,0.06C375.45,311.48,375.4,311.5,375.36,311.49z"/>
			</g>
		</g>
	</g>
</g>
<g>
	<g>
		<g>
			<line class="st7" x1="94.25" y1="128.22" x2="94.08" y2="128.04"/>
			<line class="st11" x1="93.73" y1="127.65" x2="91.08" y2="124.75"/>
			<line class="st7" x1="90.9" y1="124.56" x2="90.73" y2="124.37"/>
			<g>
				<path class="st1" d="M94.91,127.55c0.35,0.38,0.32,0.98-0.06,1.33s-0.98,0.32-1.33-0.06c-0.35-0.38-0.32-0.98,0.06-1.33
					S94.56,127.17,94.91,127.55z"/>
			</g>
			<g>
				<path class="st1" d="M92.77,124.83c-0.02,0.07-0.09,0.11-0.15,0.09l-1.85-0.5l0.33,1.88c0.01,0.07-0.03,0.13-0.1,0.14
					c-0.07,0.01-0.13-0.03-0.14-0.1l-0.36-2.08c-0.01-0.04,0.01-0.09,0.04-0.11c0.03-0.03,0.08-0.04,0.12-0.03l2.04,0.55
					c0.02,0.01,0.04,0.02,0.06,0.04C92.77,124.74,92.78,124.78,92.77,124.83z"/>
			</g>
		</g>
	</g>
</g>
<g>
	<g>
		<g>
			<line class="st7" x1="141.12" y1="125.27" x2="140.95" y2="125.09"/>
			<line class="st11" x1="140.6" y1="124.7" x2="137.95" y2="121.8"/>
			<line class="st7" x1="137.77" y1="121.61" x2="137.61" y2="121.43"/>
			<g>
				<path class="st1" d="M141.78,124.6c0.35,0.38,0.32,0.98-0.06,1.33c-0.38,0.35-0.98,0.32-1.33-0.06
					c-0.35-0.38-0.32-0.98,0.06-1.33C140.84,124.19,141.43,124.22,141.78,124.6z"/>
			</g>
			<g>
				<path class="st1" d="M139.64,121.88c-0.02,0.07-0.09,0.11-0.15,0.09l-1.85-0.5l0.33,1.88c0.01,0.07-0.03,0.13-0.1,0.14
					c-0.07,0.01-0.13-0.03-0.14-0.1l-0.36-2.08c-0.01-0.04,0.01-0.09,0.04-0.11s0.08-0.04,0.12-0.03l2.04,0.55
					c0.02,0.01,0.04,0.02,0.06,0.04C139.64,121.79,139.65,121.84,139.64,121.88z"/>
			</g>
		</g>
	</g>
</g>
<g>
	<g>
		<g>
			<line class="st7" x1="141.94" y1="177.35" x2="141.77" y2="177.16"/>
			<line class="st11" x1="141.42" y1="176.78" x2="138.77" y2="173.88"/>
			<line class="st7" x1="138.6" y1="173.69" x2="138.43" y2="173.5"/>
			<g>
				<path class="st1" d="M142.6,176.68c0.35,0.38,0.32,0.98-0.06,1.33c-0.38,0.35-0.98,0.32-1.33-0.06
					c-0.35-0.38-0.32-0.98,0.06-1.33S142.25,176.3,142.6,176.68z"/>
			</g>
			<g>
				<path class="st1" d="M140.47,173.95c-0.02,0.07-0.09,0.11-0.15,0.09l-1.85-0.5l0.33,1.88c0.01,0.07-0.03,0.13-0.1,0.14
					c-0.07,0.01-0.13-0.03-0.14-0.1l-0.36-2.08c-0.01-0.04,0.01-0.09,0.04-0.11s0.08-0.04,0.12-0.03l2.04,0.55
					c0.02,0.01,0.04,0.02,0.06,0.04C140.47,173.87,140.48,173.91,140.47,173.95z"/>
			</g>
		</g>
	</g>
</g>
<g>
	<g>
		<g>
			<line class="st7" x1="100.22" y1="193.66" x2="100.05" y2="193.47"/>
			<line class="st11" x1="99.7" y1="193.09" x2="97.05" y2="190.19"/>
			<line class="st7" x1="96.87" y1="189.99" x2="96.71" y2="189.81"/>
			<g>
				<path class="st1" d="M100.88,192.99c0.35,0.38,0.32,0.98-0.06,1.33c-0.38,0.35-0.98,0.32-1.33-0.06
					c-0.35-0.38-0.32-0.98,0.06-1.33C99.94,192.58,100.53,192.6,100.88,192.99z"/>
			</g>
			<g>
				<path class="st1" d="M98.74,190.26c-0.02,0.07-0.09,0.11-0.15,0.09l-1.85-0.5l0.33,1.88c0.01,0.07-0.03,0.13-0.1,0.14
					c-0.07,0.01-0.13-0.03-0.14-0.1l-0.36-2.08c-0.01-0.04,0.01-0.09,0.04-0.11s0.08-0.04,0.12-0.03l2.04,0.55
					c0.02,0.01,0.04,0.02,0.06,0.04C98.74,190.18,98.76,190.22,98.74,190.26z"/>
			</g>
		</g>
	</g>
</g>
<text transform="matrix(1 0 0 1 43.3659 126.3327)" class="st1 st12 st5">A</text>
<text transform="matrix(1 0 0 1 44.46 155.2669)" class="st1 st12 st5">B</text>
<text transform="matrix(1 0 0 1 44.1718 196.7067)" class="st1 st12 st5">I</text>
<text transform="matrix(1 0 0 1 365.8742 282.2039)" class="st1 st12 st5">A~J</text>
<text transform="matrix(1 0 0 1 366.002 300.3876)" class="st13 st12 st5">I~III</text>
<text transform="matrix(1 0 0 1 94.5084 172.9978)" class="st1 st12 st5">H</text>
<text transform="matrix(1 0 0 1 104.3216 197.8295)" class="st1 st12 st5">J</text>
<text transform="matrix(1 0 0 1 105.2742 156.4899)" class="st1 st12 st5">D</text>
<text transform="matrix(1 0 0 1 131.9338 156.4895)" class="st1 st12 st5">E</text>
<text transform="matrix(1 0 0 1 143.1122 135.5641)" class="st1 st12 st5">F</text>
<text transform="matrix(1 0 0 1 141.8274 187.7347)" class="st1 st12 st5">G</text>
<text transform="matrix(1 0 0 1 94.1325 138.3337)" class="st1 st12 st5">C</text>
<g>
	<g>
		<g>
			<line class="st7" x1="51.91" y1="147.81" x2="52.11" y2="147.96"/>
			<line class="st10" x1="52.5" y1="148.26" x2="57.79" y2="152.25"/>
			<line class="st7" x1="57.98" y1="152.4" x2="58.18" y2="152.55"/>
			<g>
				<path class="st1" d="M51.38,148.59c-0.41-0.31-0.5-0.9-0.18-1.32c0.31-0.41,0.9-0.5,1.32-0.18c0.41,0.31,0.5,0.9,0.18,1.32
					C52.38,148.82,51.79,148.91,51.38,148.59z"/>
			</g>
			<g>
				<path class="st1" d="M56.09,152.48c0.01-0.07,0.07-0.12,0.13-0.11l1.91,0.15l-0.67-1.79c-0.02-0.06,0.01-0.14,0.07-0.16
					c0.06-0.02,0.14,0.01,0.16,0.07l0.74,1.98c0.01,0.04,0.01,0.08-0.02,0.12c-0.03,0.03-0.07,0.05-0.11,0.05l-2.1-0.17
					c-0.02,0-0.05-0.01-0.07-0.02C56.11,152.56,56.09,152.52,56.09,152.48z"/>
			</g>
		</g>
	</g>
</g>
<g>
	<g>
		<g>
			<line class="st7" x1="137.42" y1="148.54" x2="137.62" y2="148.69"/>
			<line class="st10" x1="138.01" y1="148.98" x2="143.3" y2="152.97"/>
			<line class="st7" x1="143.5" y1="153.12" x2="143.7" y2="153.27"/>
			<g>
				<path class="st1" d="M136.89,149.32c-0.41-0.31-0.5-0.9-0.18-1.32c0.31-0.41,0.9-0.5,1.32-0.18c0.41,0.31,0.5,0.9,0.18,1.32
					C137.9,149.55,137.31,149.63,136.89,149.32z"/>
			</g>
			<g>
				<path class="st1" d="M141.61,153.2c0.01-0.07,0.07-0.12,0.13-0.11l1.91,0.15l-0.67-1.79c-0.02-0.06,0.01-0.14,0.07-0.16
					c0.06-0.02,0.14,0.01,0.16,0.07l0.74,1.98c0.01,0.04,0.01,0.08-0.02,0.12c-0.03,0.03-0.07,0.05-0.11,0.05l-2.1-0.17
					c-0.02,0-0.05-0.01-0.07-0.02C141.63,153.29,141.61,153.24,141.61,153.2z"/>
			</g>
		</g>
	</g>
</g>
<g>
	<g>
		<g>
			<line class="st7" x1="92.7" y1="174.71" x2="92.9" y2="174.86"/>
			<line class="st10" x1="93.29" y1="175.16" x2="98.58" y2="179.14"/>
			<line class="st7" x1="98.77" y1="179.29" x2="98.97" y2="179.44"/>
			<g>
				<path class="st1" d="M92.17,175.49c-0.41-0.31-0.5-0.9-0.18-1.32c0.31-0.41,0.9-0.5,1.32-0.18c0.41,0.31,0.5,0.9,0.18,1.32
					S92.58,175.8,92.17,175.49z"/>
			</g>
			<g>
				<path class="st1" d="M96.89,179.37c0.01-0.07,0.07-0.12,0.13-0.11l1.91,0.15l-0.67-1.79c-0.02-0.06,0.01-0.14,0.07-0.16
					c0.06-0.02,0.14,0.01,0.16,0.07l0.74,1.98c0.01,0.04,0.01,0.08-0.02,0.12c-0.03,0.03-0.07,0.05-0.11,0.05l-2.1-0.17
					c-0.02,0-0.05-0.01-0.07-0.02C96.9,179.46,96.88,179.42,96.89,179.37z"/>
			</g>
		</g>
	</g>
</g>
<line class="st6" x1="54.46" y1="194.78" x2="54.46" y2="280.52"/>
<circle class="st14" cx="59.36" cy="154.5" r="37.06"/>
<rect x="44.52" y="280.52" class="st6" width="113.68" height="30.97"/>
<g>
	<text transform="matrix(1 0 0 1 18.2695 373.2801)" class="st1 st2 st3">不同时间切片的单视角的视频数据</text>
</g>
<g>
	<text transform="matrix(1 0 0 1 207.3045 373.2801)" class="st1 st2 st3">不同时刻识别后的物体list列表</text>
</g>
<line class="st6" x1="67.82" y1="280.52" x2="67.82" y2="311.49"/>
<line class="st6" x1="90.83" y1="280.52" x2="90.83" y2="311.49"/>
<line class="st6" x1="113.73" y1="280.52" x2="113.73" y2="311.49"/>
<line class="st6" x1="135.2" y1="280.52" x2="135.2" y2="311.49"/>
<text transform="matrix(1 0 0 1 28.4592 157.8542)" class="st13 st12 st5">I</text>
<g>
	<rect x="111.3" y="250.28" class="st0" width="18.81" height="10.58"/>
	<text transform="matrix(1 0 0 1 111.3001 257.3759)" class="st1 st4 st5">传输</text>
</g>
<g>
	<rect x="334.56" y="230.21" class="st0" width="53.82" height="10.58"/>
	<text transform="matrix(1 0 0 1 334.5642 237.3046)" class="st1 st4 st5">可视化</text>
</g>
<g>
	<rect x="189.71" y="344.4" class="st0" width="82.45" height="10.58"/>
	<text transform="matrix(1 0 0 1 189.7108 351.4926)" class="st1 st4 st5">Yolov5模型+判定算法</text>
</g>
<g>
	<g>
		<line class="st8" x1="104.57" y1="241.06" x2="104.57" y2="242.06"/>
		<line class="st9" x1="104.57" y1="244.18" x2="104.57" y2="264.29"/>
		<line class="st8" x1="104.57" y1="265.35" x2="104.57" y2="266.35"/>
		<g>
			<path class="st1" d="M101.5,261.97c0.15-0.1,0.35-0.05,0.44,0.1l2.63,4.13l2.63-4.13c0.09-0.15,0.29-0.19,0.44-0.1
				c0.15,0.09,0.19,0.29,0.1,0.44l-2.9,4.55c-0.06,0.09-0.16,0.15-0.27,0.15s-0.21-0.06-0.27-0.15l-2.9-4.55
				c-0.03-0.05-0.05-0.11-0.05-0.17C101.35,262.14,101.4,262.03,101.5,261.97z"/>
		</g>
	</g>
</g>
<text transform="matrix(1 0 0 1 344.022 213.3459)" class="st1 st12 st5">x</text>
<text transform="matrix(1 0 0 1 207.3044 126.7446)" class="st1 st12 st5">y</text>
<circle class="st15" cx="59.36" cy="154.5" r="37.06"/>
<g>
	<circle class="st14" cx="112.18" cy="186.53" r="37.06"/>
	<circle class="st15" cx="112.18" cy="186.53" r="37.06"/>
</g>
<g>
	<circle class="st14" cx="123.1" cy="126.51" r="37.56"/>
	<circle class="st15" cx="123.11" cy="126.52" r="37.56"/>
</g>
<path class="st7" d="M379.54,285.76h-14.02c-2.06,0-3.73-1.67-3.73-3.73v-3.77c0-2.06,1.67-3.73,3.73-3.73h14.02
	c2.06,0,3.73,1.67,3.73,3.73v3.77C383.27,284.09,381.6,285.76,379.54,285.76z"/>
<path class="st15" d="M132.78,63.13H51.53c-3.74,0-6.78-3.04-6.78-6.78V27.7c0-3.74,3.04-6.78,6.78-6.78h81.25
	c3.74,0,6.78,3.04,6.78,6.78v28.65C139.56,60.1,136.53,63.13,132.78,63.13z"/>
<path class="st15" d="M329.96,63.21h-86.29c-3.74,0-6.78-3.04-6.78-6.78V27.78c0-3.74,3.04-6.78,6.78-6.78h86.29
	c3.74,0,6.78,3.04,6.78,6.78v28.65C336.73,60.17,333.7,63.21,329.96,63.21z"/>
<path class="st16" d="M379.54,303.26h-14.02c-2.06,0-3.73-1.67-3.73-3.73v-3.77c0-2.06,1.67-3.73,3.73-3.73h14.02
	c2.06,0,3.73,1.67,3.73,3.73v3.77C383.27,301.59,381.6,303.26,379.54,303.26z"/>
<text transform="matrix(1 0 0 1 131.4986 210.8314)" class="st13 st12 st5">II</text>
<text transform="matrix(1 0 0 1 120.1766 98.907)" class="st13 st12 st5">III</text>
<path class="st6" d="M335.2,196.15H234.64c-3.62,0-6.56-2.94-6.56-6.56v-85.76c0-3.62,2.94-6.56,6.56-6.56H335.2
	c3.62,0,6.56,2.94,6.56,6.56v85.76C341.76,193.21,338.82,196.15,335.2,196.15z"/>
<rect x="245.02" y="104.69" class="st7" width="35.87" height="10.33"/>
<rect x="245.02" y="126.83" class="st7" width="35.87" height="10.33"/>
<rect x="245.02" y="150.03" class="st7" width="35.87" height="10.33"/>
<rect x="245.02" y="170.94" class="st7" width="35.87" height="10.33"/>
<rect x="292.7" y="104.1" class="st7" width="35.87" height="10.33"/>
<rect x="292.7" y="151.87" class="st7" width="35.87" height="10.33"/>
<rect x="292.7" y="172.65" class="st7" width="35.87" height="10.33"/>
<g>
	<g>
		<g>
			<line class="st7" x1="238.56" y1="122.62" x2="238.73" y2="122.43"/>
			<line class="st10" x1="239.05" y1="122.06" x2="243.37" y2="117.05"/>
			<line class="st7" x1="243.53" y1="116.86" x2="243.7" y2="116.67"/>
			<g>
				<path class="st1" d="M239.31,123.2c-0.34,0.39-0.93,0.44-1.33,0.1s-0.44-0.93-0.1-1.33c0.34-0.39,0.93-0.44,1.33-0.1
					C239.6,122.21,239.64,122.81,239.31,123.2z"/>
			</g>
			<g>
				<path class="st1" d="M243.49,118.75c-0.07-0.01-0.12-0.07-0.11-0.14l0.28-1.89l-1.83,0.55c-0.07,0.02-0.14-0.02-0.16-0.08
					c-0.02-0.07,0.02-0.14,0.08-0.16l2.02-0.61c0.04-0.01,0.09,0,0.12,0.03c0.03,0.03,0.05,0.07,0.04,0.11l-0.3,2.09
					c0,0.02-0.01,0.05-0.03,0.06C243.58,118.74,243.53,118.76,243.49,118.75z"/>
			</g>
		</g>
	</g>
</g>
<g>
	<g>
		<g>
			<line class="st7" x1="292.72" y1="144.55" x2="292.89" y2="144.36"/>
			<line class="st10" x1="293.21" y1="143.99" x2="297.53" y2="138.98"/>
			<line class="st7" x1="297.69" y1="138.79" x2="297.86" y2="138.6"/>
			<g>
				<path class="st1" d="M293.47,145.13c-0.34,0.39-0.93,0.44-1.33,0.1c-0.39-0.34-0.44-0.93-0.1-1.33c0.34-0.39,0.93-0.44,1.33-0.1
					C293.76,144.14,293.8,144.74,293.47,145.13z"/>
			</g>
			<g>
				<path class="st1" d="M297.65,140.68c-0.07-0.01-0.12-0.07-0.11-0.14l0.28-1.89l-1.83,0.55c-0.07,0.02-0.14-0.02-0.16-0.08
					c-0.02-0.07,0.02-0.14,0.08-0.16l2.02-0.61c0.04-0.01,0.09,0,0.12,0.03c0.03,0.03,0.05,0.07,0.04,0.11l-0.3,2.09
					c0,0.02-0.01,0.05-0.03,0.06C297.74,140.67,297.69,140.69,297.65,140.68z"/>
			</g>
		</g>
	</g>
</g>
<g>
	<g>
		<g>
			<line class="st7" x1="238.19" y1="181.48" x2="238.36" y2="181.29"/>
			<line class="st10" x1="238.68" y1="180.92" x2="243" y2="175.9"/>
			<line class="st7" x1="243.16" y1="175.72" x2="243.33" y2="175.53"/>
			<g>
				<path class="st1" d="M238.93,182.06c-0.34,0.39-0.93,0.44-1.33,0.1c-0.39-0.34-0.44-0.93-0.1-1.33c0.34-0.39,0.93-0.44,1.33-0.1
					C239.23,181.07,239.27,181.66,238.93,182.06z"/>
			</g>
			<g>
				<path class="st1" d="M243.12,177.6c-0.07-0.01-0.12-0.07-0.11-0.14l0.28-1.89l-1.83,0.55c-0.07,0.02-0.14-0.02-0.16-0.08
					c-0.02-0.07,0.02-0.14,0.08-0.16l2.02-0.61c0.04-0.01,0.09,0,0.12,0.03c0.03,0.03,0.05,0.07,0.04,0.11l-0.3,2.09
					c0,0.02-0.01,0.05-0.03,0.06C243.2,177.59,243.16,177.61,243.12,177.6z"/>
			</g>
		</g>
	</g>
</g>
<g>
	<g>
		<g>
			<line class="st7" x1="284.07" y1="121.76" x2="283.9" y2="121.57"/>
			<line class="st11" x1="283.55" y1="121.19" x2="280.9" y2="118.29"/>
			<line class="st7" x1="280.72" y1="118.1" x2="280.56" y2="117.91"/>
			<g>
				<path class="st1" d="M284.73,121.09c0.35,0.38,0.32,0.98-0.06,1.33s-0.98,0.32-1.33-0.06c-0.35-0.38-0.32-0.98,0.06-1.33
					C283.79,120.68,284.38,120.71,284.73,121.09z"/>
			</g>
			<g>
				<path class="st1" d="M282.59,118.36c-0.02,0.07-0.09,0.11-0.15,0.09l-1.85-0.5l0.33,1.88c0.01,0.07-0.03,0.13-0.1,0.14
					s-0.13-0.03-0.14-0.1l-0.36-2.08c-0.01-0.04,0.01-0.08,0.04-0.11c0.03-0.03,0.08-0.04,0.12-0.03l2.04,0.55
					c0.02,0.01,0.04,0.02,0.06,0.04C282.59,118.28,282.61,118.32,282.59,118.36z"/>
			</g>
		</g>
	</g>
</g>
<g>
	<g>
		<g>
			<line class="st7" x1="330.93" y1="118.88" x2="330.72" y2="118.76"/>
			<line class="st11" x1="330.26" y1="118.5" x2="326.82" y2="116.61"/>
			<line class="st7" x1="326.59" y1="116.49" x2="326.37" y2="116.37"/>
			<g>
				<path class="st1" d="M331.35,118.03c0.45,0.25,0.62,0.82,0.37,1.28c-0.25,0.45-0.82,0.62-1.28,0.37s-0.62-0.82-0.37-1.28
					C330.32,117.95,330.89,117.78,331.35,118.03z"/>
			</g>
			<g>
				<path class="st1" d="M328.44,116.14c0,0.07-0.05,0.13-0.12,0.13l-1.91,0.12l0.92,1.68c0.03,0.06,0.01,0.14-0.05,0.17
					s-0.14,0.01-0.17-0.05l-1.01-1.85c-0.02-0.04-0.02-0.08,0-0.12c0.02-0.04,0.06-0.06,0.1-0.06l2.1-0.14c0.02,0,0.05,0,0.07,0.02
					C328.42,116.06,328.44,116.09,328.44,116.14z"/>
			</g>
		</g>
	</g>
</g>
<g>
	<g>
		<g>
			<line class="st7" x1="331.76" y1="170.89" x2="331.6" y2="170.7"/>
			<line class="st11" x1="331.24" y1="170.32" x2="328.6" y2="167.42"/>
			<line class="st7" x1="328.42" y1="167.23" x2="328.25" y2="167.04"/>
			<g>
				<path class="st1" d="M332.43,170.22c0.35,0.38,0.32,0.98-0.06,1.33c-0.38,0.35-0.98,0.32-1.33-0.06
					c-0.35-0.38-0.32-0.98,0.06-1.33S332.08,169.84,332.43,170.22z"/>
			</g>
			<g>
				<path class="st1" d="M330.29,167.49c-0.02,0.07-0.09,0.11-0.15,0.09l-1.85-0.5l0.33,1.88c0.01,0.07-0.03,0.13-0.1,0.14
					c-0.07,0.01-0.13-0.03-0.14-0.1l-0.36-2.08c-0.01-0.04,0.01-0.09,0.04-0.11c0.03-0.03,0.08-0.04,0.12-0.03l2.04,0.55
					c0.02,0.01,0.04,0.02,0.06,0.04C330.29,167.41,330.3,167.45,330.29,167.49z"/>
			</g>
		</g>
	</g>
</g>
<g>
	<g>
		<g>
			<line class="st7" x1="290.04" y1="187.2" x2="289.87" y2="187.01"/>
			<line class="st11" x1="289.52" y1="186.62" x2="286.87" y2="183.73"/>
			<line class="st7" x1="286.7" y1="183.53" x2="286.53" y2="183.35"/>
			<g>
				<path class="st1" d="M290.7,186.53c0.35,0.38,0.32,0.98-0.06,1.33c-0.38,0.35-0.98,0.32-1.33-0.06
					c-0.35-0.38-0.32-0.98,0.06-1.33S290.35,186.14,290.7,186.53z"/>
			</g>
			<g>
				<path class="st1" d="M288.57,183.8c-0.02,0.07-0.09,0.11-0.15,0.09l-1.85-0.5l0.33,1.88c0.01,0.07-0.03,0.13-0.1,0.14
					c-0.07,0.01-0.13-0.03-0.14-0.1l-0.36-2.08c-0.01-0.04,0.01-0.09,0.04-0.11c0.03-0.03,0.08-0.04,0.12-0.03l2.04,0.55
					c0.02,0.01,0.04,0.02,0.06,0.04C288.57,183.71,288.58,183.76,288.57,183.8z"/>
			</g>
		</g>
	</g>
</g>
<text transform="matrix(1 0 0 1 233.1884 119.8717)" class="st1 st12 st5">A</text>
<text transform="matrix(1 0 0 1 234.2825 148.8059)" class="st1 st12 st5">B</text>
<text transform="matrix(1 0 0 1 233.9944 190.2456)" class="st1 st12 st5">I</text>
<text transform="matrix(1 0 0 1 284.3309 166.5368)" class="st1 st12 st5">H</text>
<text transform="matrix(1 0 0 1 294.1442 191.3685)" class="st1 st12 st5">J</text>
<text transform="matrix(1 0 0 1 295.0967 150.0288)" class="st1 st12 st5">D</text>
<text transform="matrix(1 0 0 1 321.7563 150.0285)" class="st1 st12 st5">E</text>
<text transform="matrix(1 0 0 1 332.9348 129.1031)" class="st1 st12 st5">F</text>
<text transform="matrix(1 0 0 1 331.6499 181.2737)" class="st1 st12 st5">G</text>
<text transform="matrix(1 0 0 1 283.955 131.8727)" class="st1 st12 st5">C</text>
<g>
	<g>
		<g>
			<line class="st7" x1="241.73" y1="141.35" x2="241.93" y2="141.5"/>
			<line class="st10" x1="242.32" y1="141.8" x2="247.61" y2="145.79"/>
			<line class="st7" x1="247.8" y1="145.94" x2="248" y2="146.09"/>
			<g>
				<path class="st1" d="M241.2,142.13c-0.41-0.31-0.5-0.9-0.18-1.32c0.31-0.41,0.9-0.5,1.32-0.18c0.41,0.31,0.5,0.9,0.18,1.32
					C242.2,142.36,241.62,142.44,241.2,142.13z"/>
			</g>
			<g>
				<path class="st1" d="M245.92,146.02c0.01-0.07,0.07-0.12,0.13-0.11l1.91,0.15l-0.67-1.79c-0.02-0.06,0.01-0.14,0.07-0.16
					s0.14,0.01,0.16,0.07l0.74,1.98c0.01,0.04,0.01,0.08-0.02,0.12c-0.03,0.03-0.07,0.05-0.11,0.05l-2.1-0.17
					c-0.02,0-0.05-0.01-0.07-0.02C245.93,146.1,245.91,146.06,245.92,146.02z"/>
			</g>
		</g>
	</g>
</g>
<g>
	<g>
		<g>
			<line class="st7" x1="327.24" y1="142.08" x2="327.44" y2="142.23"/>
			<line class="st10" x1="327.84" y1="142.52" x2="333.12" y2="146.51"/>
			<line class="st7" x1="333.32" y1="146.66" x2="333.52" y2="146.81"/>
			<g>
				<path class="st1" d="M326.72,142.86c-0.41-0.31-0.5-0.9-0.18-1.32c0.31-0.41,0.9-0.5,1.32-0.18c0.41,0.31,0.5,0.9,0.18,1.32
					S327.13,143.17,326.72,142.86z"/>
			</g>
			<g>
				<path class="st1" d="M331.43,146.74c0.01-0.07,0.07-0.12,0.13-0.11l1.91,0.15l-0.67-1.79c-0.02-0.06,0.01-0.14,0.07-0.16
					c0.06-0.02,0.14,0.01,0.16,0.07l0.74,1.98c0.01,0.04,0.01,0.08-0.02,0.12c-0.03,0.03-0.07,0.05-0.11,0.05l-2.1-0.17
					c-0.02,0-0.05-0.01-0.07-0.02C331.45,146.82,331.43,146.78,331.43,146.74z"/>
			</g>
		</g>
	</g>
</g>
<g>
	<g>
		<g>
			<line class="st7" x1="282.52" y1="168.25" x2="282.72" y2="168.4"/>
			<line class="st10" x1="283.11" y1="168.7" x2="288.4" y2="172.68"/>
			<line class="st7" x1="288.59" y1="172.83" x2="288.79" y2="172.98"/>
			<g>
				<path class="st1" d="M281.99,169.03c-0.41-0.31-0.5-0.9-0.18-1.32c0.31-0.41,0.9-0.5,1.32-0.18c0.41,0.31,0.5,0.9,0.18,1.32
					S282.41,169.34,281.99,169.03z"/>
			</g>
			<g>
				<path class="st1" d="M286.71,172.91c0.01-0.07,0.07-0.12,0.13-0.11l1.91,0.15l-0.67-1.79c-0.02-0.06,0.01-0.14,0.07-0.16
					c0.06-0.02,0.14,0.01,0.16,0.07l0.74,1.98c0.01,0.04,0.01,0.08-0.02,0.12c-0.03,0.03-0.07,0.05-0.11,0.05l-2.1-0.17
					c-0.02,0-0.05-0.01-0.07-0.02C286.72,173,286.7,172.96,286.71,172.91z"/>
			</g>
		</g>
	</g>
</g>
<path class="st17" d="M109.09,41.16c-0.43,0-0.79-0.14-1.07-0.42s-0.43-0.64-0.43-1.08v-10.4c0-0.43,0.14-0.79,0.43-1.07
	s0.64-0.43,1.07-0.43h10.4c0.43,0,0.79,0.14,1.07,0.43s0.43,0.64,0.43,1.07v4.7l2.75-2.75v6.5l-2.75-2.75v4.7
	c0,0.43-0.14,0.79-0.43,1.08s-0.64,0.42-1.07,0.42H109.09z M109.09,40.46h10.4c0.23,0,0.42-0.08,0.57-0.22
	c0.15-0.15,0.22-0.34,0.22-0.58v-10.4c0-0.23-0.07-0.42-0.22-0.57s-0.34-0.23-0.57-0.23h-10.4c-0.23,0-0.43,0.08-0.57,0.23
	c-0.15,0.15-0.23,0.34-0.23,0.57v10.4c0,0.23,0.08,0.42,0.23,0.58C108.66,40.39,108.85,40.46,109.09,40.46z M108.29,40.46v-12V40.46
	z"/>
<path class="st17" d="M67.56,41.36c-0.39,0-0.71-0.13-0.97-0.38c-0.26-0.26-0.38-0.58-0.38-0.97V28.82c0-0.39,0.13-0.71,0.38-0.97
	c0.26-0.26,0.58-0.38,0.97-0.38h11.19c0.39,0,0.71,0.13,0.97,0.38s0.38,0.58,0.38,0.97v11.19c0,0.39-0.13,0.71-0.38,0.97
	c-0.26,0.26-0.58,0.38-0.97,0.38H67.56z M67.56,40.73h5.28V28.1h-5.28c-0.18,0-0.35,0.08-0.5,0.23c-0.15,0.15-0.23,0.32-0.23,0.5
	v11.19c0,0.18,0.08,0.35,0.23,0.5S67.38,40.73,67.56,40.73z M73.47,40.73h5.28c0.18,0,0.35-0.08,0.5-0.23
	c0.15-0.15,0.23-0.32,0.23-0.5v-5.6h-6V40.73z M73.47,33.78h6v-4.96c0-0.18-0.08-0.35-0.23-0.5c-0.15-0.15-0.32-0.23-0.5-0.23h-5.28
	V33.78z"/>
<text transform="matrix(1 0 0 1 91.0663 37.5727)" class="st1 st2 st3">+</text>
<text transform="matrix(1 0 0 1 284.9202 39.1432)" class="st1 st2 st3">+</text>
<g>
	<rect x="65.57" y="261.38" class="st0" width="6.32" height="10.58"/>
	<text transform="matrix(1 0 0 1 65.5714 269.8254)" class="st1 st18 st5">T</text>
</g>
<g>
	<rect x="88.58" y="261.38" class="st0" width="6.32" height="10.58"/>
	<text transform="matrix(1 0 0 1 88.5811 269.8254)" class="st1 st18 st5">T</text>
</g>
<g>
	<rect x="132.95" y="260.86" class="st0" width="6.32" height="10.58"/>
	<text transform="matrix(1 0 0 1 132.9544 269.3104)" class="st1 st18 st5">T</text>
</g>
<g>
	<rect x="112.09" y="260.77" class="st0" width="6.24" height="9.26"/>
	<text transform="matrix(1 0 0 1 112.0873 269.2192)" class="st1 st18 st5">T</text>
</g>
<g>
	<rect x="23.58" y="332.29" class="st0" width="59.58" height="10.58"/>
	<text transform="matrix(1 0 0 1 23.5753 339.4051)" class="st2 st5">T=1min,5min,......</text>
</g>
<g>
	<rect x="292.7" y="126.12" class="st7" width="35.87" height="10.33"/>
</g>
<g>
	<g>
		<path class="st19" d="M62.73,277.44c0-3.32,2.69-6,6-6c3.17,0,5.76,2.46,5.99,5.57"/>
		<g>
			<polygon class="st1" points="72.88,275.92 73.13,275.61 74.66,276.86 75.79,275.25 76.12,275.48 74.73,277.44 			"/>
		</g>
	</g>
</g>
<g>
	<g>
		<path class="st19" d="M85.74,277.44c0-3.32,2.69-6,6-6c3.17,0,5.76,2.46,5.99,5.57"/>
		<g>
			<polygon class="st1" points="95.89,275.92 96.14,275.61 97.67,276.86 98.8,275.25 99.13,275.48 97.74,277.44 			"/>
		</g>
	</g>
</g>
<g>
	<g>
		<path class="st19" d="M108.64,277.44c0-3.32,2.69-6,6-6c3.17,0,5.76,2.46,5.99,5.57"/>
		<g>
			<polygon class="st1" points="118.79,275.92 119.04,275.61 120.57,276.86 121.71,275.25 122.03,275.48 120.65,277.44 			"/>
		</g>
	</g>
</g>
<g>
	<g>
		<path class="st19" d="M130.11,277.44c0-3.32,2.69-6,6-6c3.17,0,5.76,2.46,5.99,5.57"/>
		<g>
			<polygon class="st1" points="140.26,275.92 140.51,275.61 142.04,276.86 143.18,275.25 143.5,275.48 142.12,277.44 			"/>
		</g>
	</g>
</g>
<g>
	<g>
		<g>
			<polyline class="st20" points="78.16,343.58 78.16,355.8 281.22,355.8 281.22,338.18 			"/>
			<g>
				<path class="st1" d="M284.29,342.55c-0.15,0.09-0.35,0.05-0.44-0.1l-2.63-4.13l-2.63,4.13c-0.1,0.15-0.29,0.19-0.44,0.1
					c-0.15-0.1-0.19-0.29-0.1-0.44l2.9-4.55c0.06-0.09,0.16-0.15,0.27-0.15s0.21,0.06,0.27,0.15l2.9,4.55
					c0.03,0.05,0.05,0.11,0.05,0.17C284.44,342.39,284.38,342.49,284.29,342.55z"/>
			</g>
		</g>
	</g>
	<line class="st21" x1="104.12" y1="343.58" x2="104.12" y2="355.8"/>
	<line class="st21" x1="126.28" y1="343.58" x2="126.28" y2="355.8"/>
	<line class="st21" x1="147.69" y1="343.58" x2="147.69" y2="355.8"/>
	<line class="st21" x1="171.83" y1="343.58" x2="171.83" y2="355.8"/>
	<g>
		<path class="st0" d="M80.12,355.8"/>
	</g>
</g>
<circle class="st1" cx="282.75" cy="184.78" r="0.56"/>
<circle class="st1" cx="239.77" cy="169.18" r="0.56"/>
<circle class="st1" cx="244.37" cy="120.89" r="0.56"/>
<circle class="st22" cx="281.26" cy="185.7" r="0.56"/>
<circle class="st1" cx="241.85" cy="170.03" r="0.56"/>
<circle class="st22" cx="240.36" cy="170.95" r="0.56"/>
<circle class="st22" cx="247.67" cy="116.83" r="0.56"/>
<circle class="st22" cx="236.88" cy="166.54" r="0.56"/>
<circle class="st1" cx="253.66" cy="145.46" r="0.56"/>
<circle class="st1" cx="259.96" cy="147.44" r="0.56"/>
<circle class="st1" cx="247.67" cy="148.15" r="0.56"/>
<circle class="st22" cx="254.82" cy="142.81" r="0.56"/>
<circle class="st22" cx="250.77" cy="142.81" r="0.56"/>
<circle class="st1" cx="275.09" cy="119" r="0.56"/>
<circle class="st1" cx="289.98" cy="139.64" r="0.56"/>
<circle class="st1" cx="293.26" cy="138.57" r="0.56"/>
<circle class="st22" cx="320.47" cy="119" r="0.56"/>
<circle class="st22" cx="277.93" cy="139.31" r="0.56"/>
<circle class="st22" cx="272.76" cy="139.31" r="0.56"/>
<circle class="st1" cx="326.26" cy="164.87" r="0.56"/>
<circle class="st1" cx="324.88" cy="170.47" r="0.56"/>
<circle class="st22" cx="313.7" cy="164.31" r="0.56"/>
<circle class="st22" cx="286.87" cy="169.54" r="0.56"/>
<circle class="st22" cx="277.37" cy="183.96" r="0.56"/>
<circle class="st22" cx="319.91" cy="166.98" r="0.56"/>
<circle class="st1" cx="285.29" cy="181.28" r="0.56"/>
<circle class="st1" cx="287.8" cy="180.71" r="0.56"/>
<circle class="st1" cx="284.36" cy="171.84" r="0.56"/>
<circle class="st1" cx="289.93" cy="171" r="0.56"/>
<circle class="st1" cx="282.75" cy="179.53" r="0.56"/>
<circle class="st22" cx="283.8" cy="182.19" r="0.56"/>
<g>
	<rect x="55.74" y="289.86" class="st23" width="23.3" height="30.49"/>
	<rect x="79.03" y="289.86" class="st23" width="23.3" height="30.49"/>
	<rect x="102.33" y="289.86" class="st23" width="23.3" height="30.49"/>
	<rect x="125.62" y="289.86" class="st23" width="23.3" height="30.49"/>
	<rect x="148.92" y="289.86" class="st23" width="23.3" height="30.49"/>
</g>
<g>
	<rect x="67.38" y="298.98" class="st23" width="23.3" height="30.49"/>
	<rect x="90.68" y="298.98" class="st23" width="23.3" height="30.49"/>
	<rect x="113.97" y="298.98" class="st23" width="23.3" height="30.49"/>
	<rect x="137.27" y="298.98" class="st23" width="23.3" height="30.49"/>
	<rect x="160.56" y="298.98" class="st23" width="23.3" height="30.49"/>
</g>
<g>
	<text transform="matrix(1 0 0 1 46.42 287.4092)" class="st1 st4 st24">A场景</text>
</g>
<g>
	<text transform="matrix(1 0 0 1 58.8964 296.8308)" class="st1 st4 st24">A场景</text>
</g>
<g>
	<text transform="matrix(1 0 0 1 69.7008 311.0265)" class="st1 st4 st24">A场景</text>
</g>
<g>
	<text transform="matrix(1 0 0 1 70.3548 287.7715)" class="st1 st4 st24">B场景</text>
</g>
<g>
	<text transform="matrix(1 0 0 1 82.3014 296.8309)" class="st1 st4 st24">B场景</text>
</g>
<g>
	<text transform="matrix(1 0 0 1 94.9022 288.1339)" class="st1 st4 st24">C场景</text>
</g>
<g>
	<text transform="matrix(1 0 0 1 105.8488 297.1931)" class="st1 st4 st24">C场景</text>
</g>
<g>
	<text transform="matrix(1 0 0 1 120.6477 285.712)" class="st1 st4 st24">......</text>
</g>
<g>
	<text transform="matrix(1 0 0 1 133.9129 295.114)" class="st1 st4 st24">......</text>
</g>
<g>
	<text transform="matrix(1 0 0 1 144.3152 315.3088)" class="st1 st4 st24">......</text>
</g>
<g>
	<text transform="matrix(1 0 0 1 139.0773 287.9045)" class="st1 st4 st24">J场景</text>
</g>
<g>
	<text transform="matrix(1 0 0 1 151.0239 296.9638)" class="st1 st4 st24">J场景</text>
</g>
<g>
	<text transform="matrix(1 0 0 1 71.0604 320.0899)" class="st1 st4 st24">Tn时刻</text>
</g>
<g>
	<text transform="matrix(1 0 0 1 92.7986 311.3349)" class="st1 st4 st24">B场景</text>
</g>
<g>
	<text transform="matrix(1 0 0 1 94.1583 320.3983)" class="st1 st4 st24">Tn时刻</text>
</g>
<g>
	<text transform="matrix(1 0 0 1 115.9936 311.6973)" class="st1 st4 st24">C场景</text>
</g>
<g>
	<text transform="matrix(1 0 0 1 117.3533 320.7608)" class="st1 st4 st24">Tn时刻</text>
</g>
<g>
	<text transform="matrix(1 0 0 1 165.4612 311.4895)" class="st1 st4 st24">J场景</text>
</g>
<g>
	<text transform="matrix(1 0 0 1 163.461 320.7609)" class="st1 st4 st24">Tn时刻</text>
</g>
<g>
	<text transform="matrix(1 0 0 1 56.9437 303.9579)"><tspan x="0" y="0" class="st1 st4 st25">Tn-1</tspan><tspan x="0" y="4.8" class="st1 st4 st25">时刻</tspan></text>
</g>
<g>
	<text transform="matrix(1 0 0 1 46.3209 294.2878)"><tspan x="0" y="0" class="st1 st4 st25">T1</tspan><tspan x="0" y="4.8" class="st1 st4 st25">时刻</tspan></text>
</g>
<g>
	<rect x="206.09" y="264.56" class="st26" width="13.77" height="66"/>
	
		<rect x="269.57" y="201.07" transform="matrix(-1.836970e-16 1 -1 -1.836970e-16 547.3281 -5.0154)" class="st26" width="13.2" height="140.17"/>
	
		<rect x="206.37" y="264.27" transform="matrix(-1.836970e-16 1 -1 -1.836970e-16 484.128 58.1847)" class="st27" width="13.2" height="13.77"/>
	
		<rect x="206.37" y="277.47" transform="matrix(-1.836970e-16 1 -1 -1.836970e-16 497.3275 71.3843)" class="st26" width="13.2" height="13.77"/>
	
		<rect x="206.37" y="290.67" transform="matrix(-1.836970e-16 1 -1 -1.836970e-16 510.5271 84.5838)" class="st26" width="13.2" height="13.77"/>
	
		<rect x="206.37" y="303.87" transform="matrix(-1.836970e-16 1 -1 -1.836970e-16 523.7267 97.7834)" class="st26" width="13.2" height="13.77"/>
	
		<rect x="276.42" y="221.12" transform="matrix(-1.836970e-16 1 -1 -1.836970e-16 567.3759 1.3359)" class="st28" width="13.2" height="126.47"/>
	
		<rect x="276.42" y="234.32" transform="matrix(-1.836970e-16 1 -1 -1.836970e-16 580.5754 14.5355)" class="st28" width="13.2" height="126.47"/>
	
		<rect x="276.42" y="247.52" transform="matrix(-1.836970e-16 1 -1 -1.836970e-16 593.775 27.7351)" class="st28" width="13.2" height="126.47"/>
	
		<rect x="276.42" y="260.72" transform="matrix(-1.836970e-16 1 -1 -1.836970e-16 606.9745 40.9346)" class="st28" width="13.2" height="126.47"/>
	<g>
		<text transform="matrix(1.0268 0 0 1 227.572 287.409)" class="st1 st4 st29">1人1车</text>
	</g>
	<g>
		<text transform="matrix(1.0268 0 0 1 268.3308 313.8702)" class="st1 st4 st29">n-1人n-1车</text>
	</g>
	<g>
		<text transform="matrix(1.0268 0 0 1 275.8008 326.3099)" class="st1 st4 st29">n人n车</text>
	</g>
	<g>
		<text transform="matrix(1.0268 0 0 1 209.4921 286.4908)" class="st1 st4 st29">T1</text>
	</g>
	<g>
		<text transform="matrix(1.0268 0 0 1 209.6001 298.2714)" class="st1 st4 st29">......</text>
	</g>
	<g>
		<text transform="matrix(1.0268 0 0 1 232.3671 298.3242)" class="st1 st4 st29">......</text>
	</g>
	<g>
		<text transform="matrix(1.0268 0 0 1 255.7105 298.3767)" class="st1 st4 st29">......</text>
	</g>
	<g>
		<text transform="matrix(1.0268 0 0 1 281.5826 298.4296)" class="st1 st4 st29">......</text>
	</g>
	<g>
		<text transform="matrix(1.0268 0 0 1 303.6469 298.3764)" class="st1 st4 st29">......</text>
	</g>
	<g>
		<text transform="matrix(1.0268 0 0 1 325.148 298.4822)" class="st1 st4 st29">......</text>
	</g>
	<g>
		<text transform="matrix(1.0268 0 0 1 303.6465 285.438)" class="st1 st4 st29">......</text>
	</g>
	<g>
		<text transform="matrix(1.0268 0 0 1 303.1848 271.9306)" class="st1 st4 st29">......</text>
	</g>
	<g>
		<text transform="matrix(1.0268 0 0 1 206.9344 313.8831)" class="st1 st4 st29">Tn-1</text>
	</g>
	<g>
		<text transform="matrix(1.0268 0 0 1 209.4919 327.3227)" class="st1 st4 st29">Tn</text>
	</g>
	<g>
		<text transform="matrix(1.0268 0 0 1 208.9285 273.4748)" class="st1 st4 st29">list</text>
	</g>
	<g>
		<text transform="matrix(1.0268 0 0 1 251.432 287.1694)" class="st1 st4 st29">3人2车</text>
	</g>
	<g>
		<text transform="matrix(1.0268 0 0 1 319.6503 287.4095)" class="st1 st4 st29">4人3车</text>
	</g>
	<g>
		<text transform="matrix(1 0 0 1 229.1077 273.8527)" class="st1 st4 st24">A场景</text>
	</g>
	<g>
		<text transform="matrix(1 0 0 1 253.0862 273.4749)" class="st1 st4 st24">B场景</text>
	</g>
	<g>
		<text transform="matrix(1.0268 0 0 1 276.5624 287.1694)" class="st1 st4 st29">1人4车</text>
	</g>
	<g>
		<text transform="matrix(1 0 0 1 278.2166 273.4749)" class="st1 st4 st24">C场景</text>
	</g>
	<g>
		<text transform="matrix(1 0 0 1 320.2737 273.4745)" class="st1 st4 st24">J场景</text>
	</g>
	<rect x="206.09" y="264.56" class="st6" width="140.17" height="66"/>
</g>
<line class="st30" x1="328.57" y1="187.73" x2="328.57" y2="264.56"/>
<path class="st17" d="M24.57,306.14c-0.43,0-0.79-0.14-1.08-0.42c-0.28-0.28-0.42-0.64-0.42-1.08v-10.4c0-0.43,0.14-0.79,0.42-1.07
	c0.28-0.28,0.64-0.43,1.08-0.43h10.4c0.43,0,0.79,0.14,1.07,0.43c0.28,0.28,0.43,0.64,0.43,1.07v4.7l2.75-2.75v6.5l-2.75-2.75v4.7
	c0,0.43-0.14,0.79-0.43,1.08s-0.64,0.42-1.07,0.42H24.57z M24.57,305.44h10.4c0.23,0,0.42-0.08,0.57-0.23
	c0.15-0.15,0.23-0.34,0.23-0.58v-10.4c0-0.23-0.08-0.42-0.23-0.57c-0.15-0.15-0.34-0.23-0.57-0.23h-10.4
	c-0.23,0-0.42,0.07-0.58,0.23c-0.15,0.15-0.22,0.34-0.22,0.57v10.4c0,0.23,0.07,0.43,0.22,0.58
	C24.14,305.36,24.33,305.44,24.57,305.44z M23.77,305.44v-12V305.44z"/>
<circle class="st22" cx="373.24" cy="252.66" r="1.65"/>
<circle class="st1" cx="373.24" cy="266.07" r="1.65"/>
<line class="st6" x1="216.5" y1="213.35" x2="216.5" y2="122.63"/>
<line class="st6" x1="208.12" y1="202.84" x2="349.72" y2="202.84"/>
<path class="st1" d="M220.12,160.74"/>
<rect x="221.02" y="177.81" class="st1" width="3.58" height="24.8"/>
<rect x="231.15" y="160.36" class="st1" width="4.55" height="42.48"/>
<rect x="239.8" y="189.44" class="st1" width="5.13" height="13.4"/>
<rect x="256.17" y="187.85" class="st1" width="4.35" height="14.99"/>
<rect x="269.53" y="183.96" class="st1" width="5.26" height="18.65"/>
<rect x="308.16" y="192.82" class="st1" width="2.51" height="9.79"/>
<rect x="317.61" y="189.38" class="st1" width="4.78" height="13.23"/>
<path class="st17" d="M317.91,39.14v-7.15l-5.65-3.95l-5.65,3.95v3.05h-0.7v-3.38l6.35-4.52l6.35,4.52v7.47H317.91z M312.89,32.72
	h0.75v-0.75h-0.75V32.72z M310.89,32.72h0.75v-0.75h-0.75V32.72z M312.89,34.72h0.75v-0.75h-0.75V34.72z M310.89,34.72h0.75v-0.75
	h-0.75V34.72z M305.14,42.84l7.75,2.3l6-1.85c0-0.35-0.08-0.6-0.25-0.74c-0.16-0.14-0.35-0.21-0.55-0.21h-4.65
	c-0.41,0-0.81-0.02-1.17-0.05s-0.74-0.12-1.12-0.25l-2.15-0.7l0.27-0.7l2.02,0.75c0.33,0.13,0.71,0.21,1.12,0.23
	s0.98,0.02,1.67,0.02c0-0.35-0.06-0.62-0.17-0.82c-0.12-0.2-0.29-0.34-0.52-0.43l-5.73-2.1c-0.05-0.02-0.1-0.03-0.14-0.04
	c-0.04-0.01-0.09-0.01-0.14-0.01h-2.25V42.84z M301.74,44.84v-7.3h5.62c0.09,0,0.18,0.01,0.27,0.03s0.18,0.04,0.26,0.07l5.75,2.1
	c0.3,0.12,0.57,0.33,0.8,0.64c0.23,0.31,0.35,0.73,0.35,1.26h3.3c0.53,0,0.92,0.16,1.16,0.49c0.24,0.32,0.36,0.73,0.36,1.21v0.5
	l-6.68,2.05l-7.8-2.3v1.25H301.74z M302.44,44.14h2v-5.9h-2V44.14z"/>
<path class="st17" d="M255.84,44.97c-0.48,0-0.89-0.16-1.21-0.49s-0.49-0.73-0.49-1.21v-2.7h3v-13h12.4v15.7
	c0,0.48-0.16,0.89-0.49,1.21c-0.33,0.33-0.73,0.49-1.21,0.49H255.84z M267.84,44.27c0.28,0,0.52-0.1,0.71-0.29
	c0.19-0.19,0.29-0.43,0.29-0.71v-15h-11v12.3h9v2.7c0,0.28,0.1,0.52,0.29,0.71C267.32,44.17,267.56,44.27,267.84,44.27z
	 M259.34,32.47v-0.7h8v0.7H259.34z M259.34,35.17v-0.7h8v0.7H259.34z M255.84,44.27h10.3v-3h-11.3v2c0,0.28,0.1,0.52,0.29,0.71
	C255.32,44.17,255.56,44.27,255.84,44.27z M255.84,44.27h-1h11.3H255.84z"/>
<g>
	<g>
		<line class="st20" x1="219.36" y1="40.73" x2="158.97" y2="40.73"/>
		<g>
			<path class="st1" d="M163.34,37.66c0.1,0.15,0.05,0.35-0.1,0.44l-4.13,2.63l4.13,2.63c0.15,0.09,0.19,0.29,0.1,0.44
				c-0.1,0.15-0.29,0.19-0.44,0.1l-4.55-2.9c-0.09-0.06-0.15-0.16-0.15-0.27s0.06-0.21,0.15-0.27l4.55-2.9
				c0.05-0.03,0.11-0.05,0.17-0.05C163.18,37.51,163.28,37.56,163.34,37.66z"/>
		</g>
	</g>
</g>
<g>
	<rect x="294.81" y="73.09" class="st0" width="31.71" height="10.58"/>
	<text transform="matrix(1 0 0 1 294.8077 80.1855)" class="st1 st4 st5">反馈</text>
</g>
<g>
	<rect x="173.13" y="29.17" class="st0" width="41.68" height="10.58"/>
	<text transform="matrix(1 0 0 1 173.1254 36.2661)" class="st1 st4 st5">设计决策</text>
</g>
<g>
	<rect x="168.73" y="45.45" class="st0" width="59.35" height="10.58"/>
	<text transform="matrix(1 0 0 1 168.7324 52.5429)" class="st1 st4 st5">改善现实环境</text>
</g>
<g>
	<g>
		<line class="st8" x1="287.7" y1="68.9" x2="287.7" y2="69.9"/>
		<line class="st9" x1="287.7" y1="72.02" x2="287.7" y2="92.13"/>
		<line class="st8" x1="287.7" y1="93.19" x2="287.7" y2="94.19"/>
		<g>
			<path class="st1" d="M284.63,73.28c0.15,0.09,0.35,0.05,0.44-0.1l2.63-4.13l2.63,4.13c0.1,0.15,0.29,0.19,0.44,0.1
				c0.15-0.1,0.19-0.29,0.1-0.44l-2.9-4.55c-0.06-0.09-0.16-0.15-0.27-0.15s-0.21,0.06-0.27,0.15l-2.9,4.55
				c-0.03,0.05-0.05,0.11-0.05,0.17C284.48,73.11,284.54,73.21,284.63,73.28z"/>
		</g>
	</g>
</g>
<circle class="st22" cx="274.17" cy="124.77" r="0.56"/>
<circle class="st22" cx="274.17" cy="116.42" r="0.56"/>
<circle class="st22" cx="269.75" cy="116.42" r="0.56"/>
<circle class="st22" cx="265.68" cy="116.42" r="0.56"/>
<circle class="st1" cx="323.52" cy="137.93" r="0.56"/>
<circle class="st1" cx="316.19" cy="137.76" r="0.56"/>
<circle class="st1" cx="319.85" cy="141.53" r="0.56"/>
<circle class="st1" cx="322.64" cy="142.25" r="0.56"/>
<circle class="st1" cx="316.19" cy="133.92" r="0.56"/>
<circle class="st1" cx="310.65" cy="142.09" r="0.56"/>
<g>
	<rect x="291.26" y="48.92" class="st0" width="46.28" height="10.58"/>
	<text transform="matrix(1 0 0 1 291.263 57.8115)" class="st1 st2 st3">整改方案</text>
</g>
<path class="st17" d="M132.78,20.92"/>
<path class="st17" d="M119.49,28.46"/>
<g>
	<g>
		<rect x="387.4" y="151.08" class="st0" width="58.76" height="9.76"/>
		<text transform="matrix(1 0 0 1 387.4017 158.1991)" class="st1 st2 st5">I 类 高低峰错开</text>
	</g>
	<g>
		<rect x="387.4" y="166.35" class="st0" width="63.01" height="9.76"/>
		<text transform="matrix(1 0 0 1 387.4017 173.4621)" class="st1 st2 st5">I 类 人少车多</text>
	</g>
	<g>
		<rect x="387.4" y="182.38" class="st0" width="63.01" height="9.76"/>
		<text transform="matrix(1 0 0 1 387.4017 189.4955)" class="st1 st2 st5">III 类 人多车少</text>
	</g>
	<g>
		<rect x="387.4" y="197.65" class="st0" width="58.76" height="9.76"/>
		<text transform="matrix(1 0 0 1 387.4017 204.7595)" class="st1 st2 st5">IV 类 人少车少</text>
	</g>
	<g>
		<circle class="st14" cx="256.62" cy="125.18" r="27.75"/>
		<circle class="st15" cx="256.62" cy="125.18" r="27.75"/>
	</g>
	<g>
		<circle class="st14" cx="335.33" cy="172.38" r="27.75"/>
		<circle class="st15" cx="335.34" cy="172.38" r="27.75"/>
	</g>
	<g>
		<circle class="st14" cx="328.58" cy="105.4" r="27.75"/>
		<circle class="st15" cx="328.58" cy="105.4" r="27.75"/>
	</g>
	<g>
		<circle class="st14" cx="276.5" cy="182.99" r="27.75"/>
		<circle class="st15" cx="276.5" cy="183" r="27.75"/>
	</g>
	<text transform="matrix(1 0 0 1 262.9642 168.5553)"><tspan x="0" y="0" class="st31 st12 st5">α</tspan><tspan x="8" y="0" class="st31 st12 st5 st32">​​</tspan></text>
	<text transform="matrix(1 0 0 1 373.8653 155.9653)"><tspan x="0" y="0" class="st31 st12 st5">α</tspan><tspan x="8" y="0" class="st31 st12 st5 st32">​​</tspan></text>
	<text transform="matrix(1 0 0 1 316.7543 158.8049)" class="st31 st12 st5">β</text>
	<text transform="matrix(1 0 0 1 374.1268 171.6572)" class="st31 st12 st5">β</text>
	<text transform="matrix(1 0 0 1 313.1375 123.5803)"><tspan x="0" y="0" class="st31 st12 st5">γ</tspan><tspan x="8" y="0" class="st31 st12 st5 st32">​​​​</tspan></text>
	<text transform="matrix(1 0 0 1 374.0737 187.0151)"><tspan x="0" y="0" class="st31 st12 st5">γ</tspan><tspan x="8" y="0" class="st31 st12 st5 st32">​​​​</tspan></text>
	<text transform="matrix(1 0 0 1 260.5248 145.6418)"><tspan x="0" y="0" class="st31 st12 st5">δ</tspan><tspan x="8" y="0" class="st31 st12 st5 st32">​​​​</tspan></text>
	<text transform="matrix(1 0 0 1 373.8007 204.1032)"><tspan x="0" y="0" class="st31 st12 st5">δ</tspan><tspan x="8" y="0" class="st31 st12 st5 st32">​​​​</tspan></text>
</g>
</svg>
