<?xml version="1.0" encoding="utf-8"?>
<!-- Generator: Adobe Illustrator 25.3.1, SVG Export Plug-In . SVG Version: 6.00 Build 0)  -->
<svg version="1.1" id="图层_1" xmlns="http://www.w3.org/2000/svg" xmlns:xlink="http://www.w3.org/1999/xlink" x="0px" y="0px"
	 viewBox="0 0 681.66 396.48" style="enable-background:new 0 0 681.66 396.48;" xml:space="preserve">
<style type="text/css">
	.st0{fill:#CC5A40;}
	.st1{font-family:'AdobeSongStd-Light-GBpc-EUC-H';}
	.st2{font-size:8px;}
	.st3{fill:none;}
	.st4{fill:#231815;}
	.st5{font-family:'HarmonyOS_Sans_SC_Light';}
	.st6{font-size:7px;}
	.st7{font-family:'HarmonyOS_Sans_SC_Thin';}
	.st8{font-size:6px;}
	.st9{font-size:6.45px;}
	.st10{fill:none;stroke:#231815;stroke-miterlimit:10;}
	.st11{fill:none;stroke:#231815;stroke-width:0.5;stroke-miterlimit:10;}
	.st12{fill:none;stroke:#231815;stroke-width:0.8;stroke-miterlimit:10;}
	.st13{fill:none;stroke:#231815;stroke-width:0.8;stroke-miterlimit:10;stroke-dasharray:2.1166,2.1166;}
	.st14{fill:none;stroke:#231815;stroke-width:0.5;stroke-miterlimit:10;stroke-dasharray:0.4906,0.4906;}
	.st15{fill:none;stroke:#231815;stroke-width:0.5;stroke-miterlimit:10;stroke-dasharray:0.5096,0.5096;}
	.st16{fill:none;stroke:#231815;stroke-width:0.5;stroke-miterlimit:10;stroke-dasharray:0.5233,0.5233;}
	.st17{opacity:0.2;fill:#DA8080;stroke:#231815;stroke-width:0.5;stroke-miterlimit:10;stroke-dasharray:2;}
	.st18{font-size:10px;}
	.st19{fill:none;stroke:#231815;stroke-width:0.5;stroke-miterlimit:10;stroke-dasharray:2;}
	.st20{fill:none;stroke:#CC5A40;stroke-width:0.5;stroke-miterlimit:10;}
	.st21{fill:#1D1E1E;}
	.st22{fill:none;stroke:#231815;stroke-width:0.8;stroke-miterlimit:10;stroke-dasharray:2.1259,2.1259;}
	.st23{fill:#DA8080;}
	.st24{font-size:5px;}
	.st25{font-family:'HarmonyOS_Sans_SC_Bold';}
	.st26{fill:none;stroke:#231815;stroke-width:0.4;stroke-miterlimit:10;}
	.st27{fill:none;stroke:#231815;stroke-width:0.8;stroke-miterlimit:10;stroke-dasharray:2,2;}
	.st28{fill:none;stroke:#231815;stroke-width:0.8;stroke-miterlimit:10;stroke-dasharray:2;}
	.st29{fill:#FFFFFF;stroke:#231815;stroke-miterlimit:10;}
	.st30{font-size:4px;}
	.st31{fill:#EFEFEF;stroke:#040000;stroke-width:0.5;stroke-miterlimit:10;}
	.st32{fill:#DAD8D8;stroke:#040000;stroke-width:0.5;stroke-miterlimit:10;}
	.st33{fill:none;stroke:#040000;stroke-width:0.5;stroke-miterlimit:10;}
	.st34{font-size:5.8436px;}
	.st35{fill:none;stroke:#231815;stroke-miterlimit:10;stroke-dasharray:2;}
	.st36{fill:#CC5A40;stroke:#CC5A40;stroke-width:0.5;stroke-miterlimit:10;}
	.st37{letter-spacing:-1;}
</style>
<text transform="matrix(1 0 0 1 170.3965 210.9221)" class="st0 st1 st2">II</text>
<g>
	<rect x="74.42" y="49.23" class="st3" width="79.35" height="7.2"/>
	<text transform="matrix(1 0 0 1 74.421 55.4542)" class="st4 st5 st6">Real-world environment</text>
</g>
<g>
	<rect x="286.02" y="52.83" class="st3" width="156.83" height="7.2"/>
	<text transform="matrix(1 0 0 1 286.0195 59.0523)" class="st4 st5 st6">Decision Recommendations</text>
</g>
<g>
	<rect x="378.84" y="52.83" class="st3" width="61.06" height="7.2"/>
	<text transform="matrix(1 0 0 1 378.8405 59.0523)" class="st4 st5 st6">Rectification Plans</text>
</g>
<g>
	<rect x="161.44" y="49.24" class="st3" width="28.21" height="10.58"/>
	<text transform="matrix(1 0 0 1 161.4369 55.4674)" class="st4 st5 st6">Sensors</text>
</g>
<g>
	<rect x="137.91" y="73.89" class="st3" width="30.01" height="10.58"/>
	<text transform="matrix(1 0 0 1 137.9115 79.2081)" class="st4 st7 st8">Sensing</text>
</g>
<rect x="472.46" y="286.74" class="st3" width="36.48" height="8.53"/>
<text transform="matrix(1 0 0 1 472.4601 292.4724)" class="st4 st5 st9">Camera IDs</text>
<g>
	<rect x="472.46" y="300.81" class="st3" width="63.45" height="8.53"/>
	<text transform="matrix(1 0 0 1 472.4601 306.5451)" class="st4 st5 st9">Digital-twin spaces</text>
</g>
<g>
	<rect x="472.46" y="313.48" class="st3" width="25.56" height="8.53"/>
	<text transform="matrix(1 0 0 1 472.4601 319.2155)" class="st4 st5 st9">Camera</text>
</g>
<g>
	<rect x="472.46" y="324.83" class="st3" width="25.56" height="8.53"/>
	<text transform="matrix(1 0 0 1 472.4601 330.5651)" class="st4 st5 st9">Building</text>
</g>
<path class="st10" d="M182.42,203.41H81.86c-3.62,0-6.56-2.94-6.56-6.56v-85.76c0-3.62,2.94-6.56,6.56-6.56h100.56
	c3.62,0,6.56,2.94,6.56,6.56v85.76C188.98,200.47,186.04,203.41,182.42,203.41z"/>
<rect x="92.24" y="111.94" class="st11" width="35.87" height="10.33"/>
<rect x="448.54" y="324.16" class="st11" width="17.57" height="8.33"/>
<rect x="92.24" y="134.08" class="st11" width="35.87" height="10.33"/>
<rect x="92.24" y="157.29" class="st11" width="35.87" height="10.33"/>
<rect x="92.24" y="178.2" class="st11" width="35.87" height="10.33"/>
<rect x="139.92" y="111.36" class="st11" width="35.87" height="10.33"/>
<rect x="139.92" y="133.38" class="st11" width="35.87" height="10.33"/>
<rect x="139.92" y="159.12" class="st11" width="35.87" height="10.33"/>
<rect x="139.92" y="179.9" class="st11" width="35.87" height="10.33"/>
<g>
	<g>
		<line class="st12" x1="130.81" y1="68.93" x2="130.81" y2="69.93"/>
		<line class="st13" x1="130.81" y1="72.04" x2="130.81" y2="92.15"/>
		<line class="st12" x1="130.81" y1="93.21" x2="130.81" y2="94.21"/>
		<g>
			<path class="st4" d="M127.73,89.84c0.15-0.09,0.35-0.05,0.44,0.1l2.63,4.13l2.63-4.13c0.09-0.15,0.29-0.19,0.44-0.1
				c0.15,0.09,0.19,0.29,0.1,0.44l-2.9,4.55c-0.06,0.09-0.16,0.15-0.27,0.15s-0.21-0.06-0.27-0.15l-2.9-4.55
				c-0.03-0.05-0.05-0.11-0.05-0.17C127.59,90,127.64,89.9,127.73,89.84z"/>
		</g>
	</g>
</g>
<g>
	<g>
		<g>
			<line class="st11" x1="85.79" y1="129.88" x2="85.95" y2="129.69"/>
			<line class="st14" x1="86.27" y1="129.32" x2="90.6" y2="124.3"/>
			<line class="st11" x1="90.76" y1="124.12" x2="90.92" y2="123.93"/>
			<g>
				<path class="st4" d="M86.53,130.46c-0.34,0.39-0.93,0.44-1.33,0.1c-0.39-0.34-0.44-0.93-0.1-1.33c0.34-0.39,0.93-0.44,1.33-0.1
					C86.82,129.47,86.87,130.06,86.53,130.46z"/>
			</g>
			<g>
				<path class="st4" d="M90.71,126.01c-0.07-0.01-0.12-0.07-0.11-0.14l0.28-1.89l-1.83,0.55c-0.07,0.02-0.14-0.02-0.16-0.08
					c-0.02-0.07,0.02-0.14,0.08-0.16l2.02-0.61c0.04-0.01,0.09,0,0.12,0.03s0.05,0.07,0.04,0.11l-0.3,2.09
					c0,0.02-0.01,0.05-0.03,0.06C90.8,126,90.76,126.01,90.71,126.01z"/>
			</g>
		</g>
	</g>
</g>
<g>
	<g>
		<g>
			<line class="st11" x1="139.94" y1="151.81" x2="140.11" y2="151.62"/>
			<line class="st14" x1="140.43" y1="151.25" x2="144.76" y2="146.23"/>
			<line class="st11" x1="144.92" y1="146.05" x2="145.08" y2="145.86"/>
			<g>
				
					<ellipse transform="matrix(0.8438 -0.5366 0.5366 0.8438 -59.5822 98.81)" class="st4" cx="139.98" cy="151.77" rx="0.94" ry="0.94"/>
			</g>
			<g>
				<path class="st4" d="M144.87,147.94c-0.07-0.01-0.12-0.07-0.11-0.14l0.28-1.89l-1.83,0.55c-0.07,0.02-0.14-0.02-0.16-0.08
					c-0.02-0.07,0.02-0.14,0.08-0.16l2.02-0.61c0.04-0.01,0.09,0,0.12,0.03s0.05,0.07,0.04,0.11l-0.3,2.09
					c0,0.02-0.01,0.05-0.03,0.06C144.96,147.93,144.92,147.94,144.87,147.94z"/>
			</g>
		</g>
	</g>
</g>
<g>
	<g>
		<g>
			<line class="st11" x1="85.41" y1="188.73" x2="85.58" y2="188.54"/>
			<line class="st14" x1="85.9" y1="188.17" x2="90.22" y2="183.16"/>
			<line class="st11" x1="90.39" y1="182.97" x2="90.55" y2="182.78"/>
			<g>
				<path class="st4" d="M86.16,189.31c-0.34,0.39-0.93,0.44-1.33,0.1c-0.39-0.34-0.44-0.93-0.1-1.33c0.34-0.39,0.93-0.44,1.33-0.1
					C86.45,188.33,86.5,188.92,86.16,189.31z"/>
			</g>
			<g>
				<path class="st4" d="M90.34,184.86c-0.07-0.01-0.12-0.07-0.11-0.14l0.28-1.89l-1.83,0.55c-0.07,0.02-0.14-0.02-0.16-0.08
					s0.02-0.14,0.08-0.16l2.02-0.61c0.04-0.01,0.09,0,0.12,0.03s0.05,0.07,0.04,0.11l-0.3,2.09c0,0.02-0.01,0.05-0.03,0.06
					C90.43,184.85,90.38,184.87,90.34,184.86z"/>
			</g>
		</g>
	</g>
</g>
<g>
	<g>
		<g>
			<line class="st11" x1="455.88" y1="318.95" x2="456.04" y2="318.76"/>
			<line class="st15" x1="456.38" y1="318.37" x2="459.54" y2="314.71"/>
			<line class="st11" x1="459.7" y1="314.51" x2="459.87" y2="314.32"/>
			<g>
				<path class="st4" d="M456.62,319.52c-0.34,0.39-0.93,0.44-1.33,0.1c-0.39-0.34-0.44-0.93-0.1-1.33s0.93-0.44,1.33-0.1
					C456.92,318.54,456.96,319.13,456.62,319.52z"/>
			</g>
			<g>
				<path class="st4" d="M459.66,316.4c-0.07-0.01-0.12-0.07-0.11-0.14l0.28-1.89l-1.83,0.55c-0.07,0.02-0.14-0.02-0.16-0.08
					s0.02-0.14,0.08-0.16l2.02-0.61c0.04-0.01,0.09,0,0.12,0.03s0.05,0.07,0.04,0.11l-0.3,2.09c0,0.02-0.01,0.05-0.03,0.06
					C459.75,316.39,459.7,316.41,459.66,316.4z"/>
			</g>
		</g>
	</g>
</g>
<g>
	<g>
		<g>
			<line class="st11" x1="131.29" y1="129.02" x2="131.12" y2="128.83"/>
			<line class="st16" x1="130.77" y1="128.44" x2="128.12" y2="125.55"/>
			<line class="st11" x1="127.95" y1="125.35" x2="127.78" y2="125.17"/>
			<g>
				<path class="st4" d="M131.95,128.35c0.35,0.38,0.32,0.98-0.06,1.33c-0.38,0.35-0.98,0.32-1.33-0.06
					c-0.35-0.38-0.32-0.98,0.06-1.33C131.01,127.94,131.6,127.96,131.95,128.35z"/>
			</g>
			<g>
				<path class="st4" d="M129.82,125.62c-0.02,0.07-0.09,0.11-0.15,0.09l-1.85-0.5l0.33,1.88c0.01,0.07-0.03,0.13-0.1,0.14
					c-0.07,0.01-0.13-0.03-0.14-0.1l-0.36-2.08c-0.01-0.04,0.01-0.09,0.04-0.11c0.03-0.03,0.08-0.04,0.12-0.03l2.04,0.55
					c0.02,0.01,0.04,0.02,0.06,0.04C129.82,125.53,129.83,125.58,129.82,125.62z"/>
			</g>
		</g>
	</g>
</g>
<g>
	<g>
		<g>
			<line class="st11" x1="178.16" y1="126.07" x2="177.99" y2="125.88"/>
			<line class="st16" x1="177.64" y1="125.5" x2="174.99" y2="122.6"/>
			<line class="st11" x1="174.82" y1="122.41" x2="174.65" y2="122.22"/>
			<g>
				<path class="st4" d="M178.83,125.4c0.35,0.38,0.32,0.98-0.06,1.33c-0.38,0.35-0.98,0.32-1.33-0.06
					c-0.35-0.38-0.32-0.98,0.06-1.33S178.48,125.02,178.83,125.4z"/>
			</g>
			<g>
				<path class="st4" d="M176.69,122.67c-0.02,0.07-0.09,0.11-0.15,0.09l-1.85-0.5l0.33,1.88c0.01,0.07-0.03,0.13-0.1,0.14
					c-0.07,0.01-0.13-0.03-0.14-0.1l-0.36-2.08c-0.01-0.04,0.01-0.09,0.04-0.11s0.08-0.04,0.12-0.03l2.04,0.55
					c0.02,0.01,0.04,0.02,0.06,0.04C176.69,122.59,176.7,122.63,176.69,122.67z"/>
			</g>
		</g>
	</g>
</g>
<g>
	<g>
		<g>
			<line class="st11" x1="178.99" y1="178.14" x2="178.82" y2="177.96"/>
			<line class="st16" x1="178.47" y1="177.57" x2="175.82" y2="174.68"/>
			<line class="st11" x1="175.64" y1="174.48" x2="175.47" y2="174.3"/>
			<g>
				<path class="st4" d="M179.65,177.48c0.35,0.38,0.32,0.98-0.06,1.33c-0.38,0.35-0.98,0.32-1.33-0.06
					c-0.35-0.38-0.32-0.98,0.06-1.33C178.7,177.07,179.3,177.09,179.65,177.48z"/>
			</g>
			<g>
				<path class="st4" d="M177.51,174.75c-0.02,0.07-0.09,0.11-0.15,0.09l-1.85-0.5l0.33,1.88c0.01,0.07-0.03,0.13-0.1,0.14
					s-0.13-0.03-0.14-0.1l-0.36-2.08c-0.01-0.04,0.01-0.09,0.04-0.11s0.08-0.04,0.12-0.03l2.04,0.55c0.02,0.01,0.04,0.02,0.06,0.04
					C177.51,174.66,177.52,174.71,177.51,174.75z"/>
			</g>
		</g>
	</g>
</g>
<g>
	<g>
		<g>
			<line class="st11" x1="137.26" y1="194.45" x2="137.1" y2="194.27"/>
			<line class="st16" x1="136.74" y1="193.88" x2="134.1" y2="190.98"/>
			<line class="st11" x1="133.92" y1="190.79" x2="133.75" y2="190.61"/>
			<g>
				<path class="st4" d="M137.93,193.78c0.35,0.38,0.32,0.98-0.06,1.33s-0.98,0.32-1.33-0.06c-0.35-0.38-0.32-0.98,0.06-1.33
					C136.98,193.37,137.58,193.4,137.93,193.78z"/>
			</g>
			<g>
				<path class="st4" d="M135.79,191.06c-0.02,0.07-0.09,0.11-0.15,0.09l-1.85-0.5l0.33,1.88c0.01,0.07-0.03,0.13-0.1,0.14
					s-0.13-0.03-0.14-0.1l-0.36-2.08c-0.01-0.04,0.01-0.09,0.04-0.11c0.03-0.03,0.08-0.04,0.12-0.03l2.04,0.55
					c0.02,0.01,0.04,0.02,0.06,0.04C135.79,190.97,135.8,191.02,135.79,191.06z"/>
			</g>
		</g>
	</g>
</g>
<text transform="matrix(1 0 0 1 80.4104 127.1283)" class="st4 st1 st2">A</text>
<text transform="matrix(1 0 0 1 81.5045 156.0624)" class="st4 st1 st2">B</text>
<text transform="matrix(1 0 0 1 81.2164 197.5022)" class="st4 st1 st2">I</text>
<text transform="matrix(1 0 0 1 452.09 292.342)" class="st4 st1 st9">A~J</text>
<text transform="matrix(1 0 0 1 452.1935 307.0026)" class="st0 st1 st9">I~III</text>
<text transform="matrix(1 0 0 1 131.5529 173.7934)" class="st4 st1 st2">H</text>
<text transform="matrix(1 0 0 1 141.3661 198.6251)" class="st4 st1 st2">J</text>
<text transform="matrix(1 0 0 1 142.3187 157.2854)" class="st4 st1 st2">D</text>
<text transform="matrix(1 0 0 1 168.9782 157.2851)" class="st4 st1 st2">E</text>
<text transform="matrix(1 0 0 1 180.1567 136.3596)" class="st4 st1 st2">F</text>
<g>
	<rect x="371.14" y="127.21" class="st11" width="35.87" height="10.33"/>
</g>
<text transform="matrix(1 0 0 1 178.8718 188.5302)" class="st4 st1 st2">G</text>
<text transform="matrix(1 0 0 1 131.1769 139.1292)" class="st4 st1 st2">C</text>
<g>
	<g>
		<g>
			<line class="st11" x1="88.95" y1="148.61" x2="89.15" y2="148.76"/>
			<line class="st14" x1="89.54" y1="149.06" x2="94.83" y2="153.04"/>
			<line class="st11" x1="95.03" y1="153.19" x2="95.23" y2="153.34"/>
			<g>
				<path class="st4" d="M88.42,149.39c-0.41-0.31-0.5-0.9-0.18-1.32c0.31-0.41,0.9-0.5,1.32-0.18c0.41,0.31,0.5,0.9,0.18,1.32
					S88.84,149.7,88.42,149.39z"/>
			</g>
			<g>
				<path class="st4" d="M93.14,153.27c0.01-0.07,0.07-0.12,0.13-0.11l1.91,0.15l-0.67-1.79c-0.02-0.06,0.01-0.14,0.07-0.16
					c0.06-0.02,0.14,0.01,0.16,0.07l0.74,1.98c0.01,0.04,0.01,0.08-0.02,0.12s-0.07,0.05-0.11,0.05l-2.1-0.17
					c-0.02,0-0.05-0.01-0.07-0.02C93.16,153.36,93.14,153.32,93.14,153.27z"/>
			</g>
		</g>
	</g>
</g>
<g>
	<g>
		<g>
			<line class="st11" x1="174.47" y1="149.33" x2="174.67" y2="149.48"/>
			<line class="st14" x1="175.06" y1="149.78" x2="180.34" y2="153.77"/>
			<line class="st11" x1="180.54" y1="153.92" x2="180.74" y2="154.07"/>
			<g>
				<path class="st4" d="M173.94,150.11c-0.41-0.31-0.5-0.9-0.18-1.32c0.31-0.41,0.9-0.5,1.32-0.18c0.41,0.31,0.5,0.9,0.18,1.32
					C174.94,150.34,174.35,150.42,173.94,150.11z"/>
			</g>
			<g>
				<path class="st4" d="M178.65,154c0.01-0.07,0.07-0.12,0.13-0.11l1.91,0.15l-0.67-1.79c-0.02-0.06,0.01-0.14,0.07-0.16
					s0.14,0.01,0.16,0.07l0.74,1.98c0.01,0.04,0.01,0.08-0.02,0.12c-0.03,0.03-0.07,0.05-0.11,0.05l-2.1-0.17
					c-0.02,0-0.05-0.01-0.07-0.02C178.67,154.08,178.65,154.04,178.65,154z"/>
			</g>
		</g>
	</g>
</g>
<g>
	<g>
		<g>
			<line class="st11" x1="129.74" y1="175.51" x2="129.94" y2="175.66"/>
			<line class="st14" x1="130.33" y1="175.95" x2="135.62" y2="179.94"/>
			<line class="st11" x1="135.82" y1="180.09" x2="136.02" y2="180.24"/>
			<g>
				<path class="st4" d="M129.21,176.28c-0.41-0.31-0.5-0.9-0.18-1.32c0.31-0.41,0.9-0.5,1.32-0.18s0.5,0.9,0.18,1.32
					C130.22,176.51,129.63,176.6,129.21,176.28z"/>
			</g>
			<g>
				<path class="st4" d="M133.93,180.17c0.01-0.07,0.07-0.12,0.13-0.11l1.91,0.15l-0.67-1.79c-0.02-0.06,0.01-0.14,0.07-0.16
					s0.14,0.01,0.16,0.07l0.74,1.98c0.01,0.04,0.01,0.08-0.02,0.12c-0.03,0.03-0.07,0.05-0.11,0.05l-2.1-0.17
					c-0.02,0-0.05-0.01-0.07-0.02C133.95,180.25,133.93,180.21,133.93,180.17z"/>
			</g>
		</g>
	</g>
</g>
<circle class="st17" cx="96.41" cy="155.3" r="37.06"/>
<g>
	<text transform="matrix(1 0 0 1 27.1636 372.1768)" class="st4 st5 st18">Single-view video data at different time slices</text>
</g>
<text transform="matrix(1 0 0 1 65.5037 158.6498)" class="st0 st1 st2">I</text>
<circle class="st19" cx="96.41" cy="155.3" r="37.06"/>
<g>
	<circle class="st17" cx="149.22" cy="187.32" r="37.06"/>
	<circle class="st19" cx="149.22" cy="187.32" r="37.06"/>
</g>
<g>
	<circle class="st17" cx="157.52" cy="124.89" r="37.56"/>
	<circle class="st19" cx="157.53" cy="124.89" r="37.56"/>
</g>
<path class="st11" d="M462.39,295.21h-9.86c-2.06,0-3.73-1.67-3.73-3.73v-1.6c0-2.06,1.67-3.73,3.73-3.73h9.86
	c2.06,0,3.73,1.67,3.73,3.73v1.6C466.12,293.54,464.45,295.21,462.39,295.21z"/>
<path class="st19" d="M186.5,63.4H72.8c-3.74,0-6.78-3.04-6.78-6.78V27.97c0-3.74,3.04-6.78,6.78-6.78h113.7
	c3.74,0,6.78,3.04,6.78,6.78v28.65C193.28,60.37,190.25,63.4,186.5,63.4z"/>
<path class="st20" d="M462.39,309.32h-9.86c-2.06,0-3.73-1.67-3.73-3.73v-1.6c0-2.06,1.67-3.73,3.73-3.73h9.86
	c2.06,0,3.73,1.67,3.73,3.73v1.6C466.12,307.65,464.45,309.32,462.39,309.32z"/>
<text transform="matrix(1 0 0 1 157.2211 99.7026)" class="st0 st1 st2">III</text>
<path class="st21" d="M75.36,45.3c-0.39,0-0.71-0.13-0.97-0.38c-0.26-0.26-0.38-0.58-0.38-0.97V32.75c0-0.39,0.13-0.71,0.38-0.97
	c0.26-0.26,0.58-0.38,0.97-0.38h11.19c0.39,0,0.71,0.13,0.97,0.38s0.38,0.58,0.38,0.97v11.19c0,0.39-0.13,0.71-0.38,0.97
	c-0.26,0.26-0.58,0.38-0.97,0.38H75.36z M75.36,44.67h5.28V32.03h-5.28c-0.18,0-0.35,0.08-0.5,0.23c-0.15,0.15-0.23,0.32-0.23,0.5
	v11.19c0,0.18,0.08,0.35,0.23,0.5C75.01,44.59,75.18,44.67,75.36,44.67z M81.27,44.67h5.28c0.18,0,0.35-0.08,0.5-0.23
	c0.15-0.15,0.23-0.32,0.23-0.5v-5.6h-6V44.67z M81.27,37.72h6v-4.96c0-0.18-0.08-0.35-0.23-0.5c-0.15-0.15-0.32-0.23-0.5-0.23h-5.28
	V37.72z"/>
<path class="st21" d="M170.47,44.5c-0.8-0.8-1.43-1.73-1.88-2.78s-0.68-2.17-0.68-3.38s0.23-2.33,0.68-3.38s1.07-1.97,1.88-2.78
	l0.5,0.5c-0.73,0.73-1.31,1.58-1.72,2.55c-0.42,0.97-0.62,2-0.62,3.1c0,1.12,0.21,2.16,0.62,3.12c0.42,0.97,0.99,1.81,1.72,2.53
	L170.47,44.5z M173.29,41.67c-0.43-0.43-0.77-0.93-1.01-1.5s-0.36-1.17-0.36-1.83s0.12-1.26,0.36-1.83c0.24-0.57,0.58-1.07,1.01-1.5
	l0.5,0.5c-0.37,0.37-0.65,0.79-0.86,1.28c-0.21,0.48-0.31,1-0.31,1.55s0.1,1.07,0.31,1.55c0.21,0.48,0.5,0.91,0.86,1.28
	L173.29,41.67z M176.62,39.05c-0.18,0-0.35-0.07-0.49-0.21s-0.21-0.3-0.21-0.49s0.07-0.35,0.21-0.49s0.3-0.21,0.49-0.21
	s0.35,0.07,0.49,0.21c0.14,0.14,0.21,0.3,0.21,0.49s-0.07,0.35-0.21,0.49C176.96,38.98,176.8,39.05,176.62,39.05z M179.94,41.67
	l-0.5-0.5c0.37-0.37,0.65-0.79,0.86-1.28c0.21-0.48,0.31-1,0.31-1.55s-0.1-1.07-0.31-1.55c-0.21-0.48-0.5-0.91-0.86-1.28l0.5-0.5
	c0.43,0.43,0.77,0.93,1.01,1.5c0.24,0.57,0.36,1.17,0.36,1.83s-0.12,1.26-0.36,1.83S180.38,41.24,179.94,41.67z M182.77,44.5
	l-0.5-0.5c0.73-0.73,1.31-1.58,1.73-2.55c0.42-0.97,0.62-2,0.62-3.1s-0.21-2.13-0.62-3.1c-0.42-0.97-0.99-1.82-1.73-2.55l0.5-0.5
	c0.8,0.8,1.43,1.73,1.88,2.78s0.68,2.17,0.68,3.38s-0.23,2.33-0.68,3.38S183.57,43.7,182.77,44.5z"/>
<g>
	<text transform="matrix(1 0 0 1 96.2687 232.8797)"><tspan x="0" y="0" class="st4 st5 st2">Digital public space of the </tspan><tspan x="0" y="9.6" class="st4 st5 st2">existing/old community</tspan></text>
</g>
<g>
	<rect x="143" y="252.39" class="st3" width="40.14" height="6.52"/>
	<text transform="matrix(1 0 0 1 143.0013 257.7059)" class="st4 st7 st8">Transmission</text>
</g>
<g>
	<g>
		<line class="st12" x1="139.05" y1="245.24" x2="139.05" y2="246.24"/>
		<line class="st22" x1="139.05" y1="248.37" x2="139.05" y2="264.31"/>
		<line class="st12" x1="139.05" y1="265.37" x2="139.05" y2="266.37"/>
		<g>
			<path class="st4" d="M135.98,262c0.15-0.09,0.35-0.05,0.44,0.1l2.63,4.13l2.63-4.13c0.1-0.15,0.29-0.19,0.44-0.1
				c0.15,0.1,0.19,0.29,0.1,0.44l-2.9,4.55c-0.06,0.09-0.16,0.15-0.27,0.15s-0.21-0.06-0.27-0.15l-2.9-4.55
				c-0.03-0.05-0.05-0.11-0.05-0.17C135.83,262.16,135.88,262.06,135.98,262z"/>
		</g>
	</g>
</g>
<rect x="471.85" y="273.49" class="st3" width="36.48" height="8.53"/>
<text transform="matrix(1 0 0 1 471.8498 279.2238)" class="st4 st5 st9">Pedestrian</text>
<rect x="471.85" y="261.75" class="st3" width="36.48" height="8.53"/>
<text transform="matrix(1 0 0 1 471.8498 267.4813)" class="st4 st5 st9">Vehicle</text>
<g>
	<rect x="465.81" y="152.17" class="st3" width="198.42" height="9.76"/>
	<text transform="matrix(1 0 0 1 465.8133 157.9017)" class="st4 st5 st9">I Pedestrian and vehicle peak periods are staggered (PV-Balanced)</text>
</g>
<g>
	<rect x="465.81" y="167.43" class="st3" width="198.42" height="9.76"/>
	<text transform="matrix(1 0 0 1 465.8133 173.1646)" class="st4 st5 st9">II Low pedestrian volume, high vehicle volume(LowP-HighV)</text>
</g>
<g>
	<rect x="465.81" y="183.46" class="st3" width="198.42" height="9.76"/>
	<text transform="matrix(1 0 0 1 465.8133 189.1981)" class="st4 st5 st9">III High pedestrian volume, low vehicle volume(HighP-LowV)</text>
</g>
<g>
	<rect x="465.81" y="198.73" class="st3" width="198.42" height="9.76"/>
	<text transform="matrix(1 0 0 1 465.8133 204.462)" class="st4 st5 st9">IV Low pedestrian volume, low vehicle volume(LowP-LowV)</text>
</g>
<circle class="st23" cx="457.42" cy="265.44" r="1.33"/>
<circle class="st4" cx="457.42" cy="277.06" r="1.33"/>
<g>
	<text transform="matrix(1 0 0 1 273.0527 232.8797)"><tspan x="0" y="0" class="st4 st5 st2">T1-Distribution Map of People and </tspan><tspan x="0" y="9.6" class="st4 st5 st2">Vehicles in existing/old communities</tspan></text>
</g>
<line class="st10" x1="87.88" y1="195.86" x2="87.88" y2="281.6"/>
<rect x="77.95" y="281.6" class="st10" width="113.68" height="30.97"/>
<g>
	<text transform="matrix(1 0 0 1 260.7267 372.357)" class="st4 st5 st18">List of Identified Objects at Different Times</text>
</g>
<line class="st10" x1="101.24" y1="281.6" x2="101.24" y2="312.57"/>
<line class="st10" x1="124.25" y1="281.6" x2="124.25" y2="312.57"/>
<line class="st10" x1="147.15" y1="281.6" x2="147.15" y2="312.57"/>
<line class="st10" x1="168.62" y1="281.6" x2="168.62" y2="312.57"/>
<g>
	<rect x="412.99" y="231.29" class="st3" width="53.82" height="10.58"/>
	<text transform="matrix(1 0 0 1 412.9865 236.6086)" class="st4 st7 st8"> Data Visualization</text>
</g>
<g>
	<rect x="215.81" y="346.97" class="st3" width="126.84" height="10.58"/>
	<text transform="matrix(1 0 0 1 215.8069 352.29)" class="st4 st7 st8">YOLOv5 model recognition + algorithm filtering</text>
</g>
<text transform="matrix(1 0 0 1 422.4442 214.4228)" class="st4 st1 st2">x</text>
<text transform="matrix(1 0 0 1 285.7267 127.8215)" class="st4 st1 st2">y</text>
<path class="st19" d="M433.54,64.28H289.23c-3.74,0-6.78-3.04-6.78-6.78V28.85c0-3.74,3.04-6.78,6.78-6.78h144.31
	c3.74,0,6.78,3.04,6.78,6.78V57.5C440.32,61.25,437.28,64.28,433.54,64.28z"/>
<path class="st10" d="M413.62,197.23H313.06c-3.62,0-6.56-2.94-6.56-6.56v-85.76c0-3.62,2.94-6.56,6.56-6.56h100.56
	c3.62,0,6.56,2.94,6.56,6.56v85.76C420.18,194.29,417.24,197.23,413.62,197.23z"/>
<rect x="323.44" y="105.77" class="st11" width="35.87" height="10.33"/>
<rect x="323.44" y="127.9" class="st11" width="35.87" height="10.33"/>
<rect x="323.44" y="151.11" class="st11" width="35.87" height="10.33"/>
<rect x="323.44" y="172.02" class="st11" width="35.87" height="10.33"/>
<rect x="371.12" y="105.18" class="st11" width="35.87" height="10.33"/>
<rect x="371.12" y="152.94" class="st11" width="35.87" height="10.33"/>
<rect x="371.12" y="173.72" class="st11" width="35.87" height="10.33"/>
<g>
	<g>
		<g>
			<line class="st11" x1="316.99" y1="123.7" x2="317.15" y2="123.51"/>
			<line class="st14" x1="317.47" y1="123.14" x2="321.8" y2="118.12"/>
			<line class="st11" x1="321.96" y1="117.94" x2="322.12" y2="117.75"/>
			<g>
				<path class="st4" d="M317.73,124.28c-0.34,0.39-0.93,0.44-1.33,0.1s-0.44-0.93-0.1-1.33c0.34-0.39,0.93-0.44,1.33-0.1
					S318.07,123.88,317.73,124.28z"/>
			</g>
			<g>
				<path class="st4" d="M321.91,119.83c-0.07-0.01-0.12-0.07-0.11-0.14l0.28-1.89l-1.83,0.55c-0.07,0.02-0.14-0.02-0.16-0.08
					s0.02-0.14,0.08-0.16l2.02-0.61c0.04-0.01,0.09,0,0.12,0.03c0.03,0.03,0.05,0.07,0.04,0.11l-0.3,2.09
					c0,0.02-0.01,0.05-0.03,0.06C322,119.82,321.96,119.83,321.91,119.83z"/>
			</g>
		</g>
	</g>
</g>
<g>
	<g>
		<g>
			<line class="st11" x1="371.15" y1="145.63" x2="371.31" y2="145.44"/>
			<line class="st14" x1="371.63" y1="145.07" x2="375.96" y2="140.05"/>
			<line class="st11" x1="376.12" y1="139.87" x2="376.28" y2="139.68"/>
			<g>
				<circle class="st4" cx="371.18" cy="145.59" r="0.94"/>
			</g>
			<g>
				<path class="st4" d="M376.07,141.76c-0.07-0.01-0.12-0.07-0.11-0.14l0.28-1.89l-1.83,0.55c-0.07,0.02-0.14-0.02-0.16-0.08
					c-0.02-0.07,0.02-0.14,0.08-0.16l2.02-0.61c0.04-0.01,0.09,0,0.12,0.03c0.03,0.03,0.05,0.07,0.04,0.11l-0.3,2.09
					c0,0.02-0.01,0.05-0.03,0.06C376.16,141.75,376.12,141.76,376.07,141.76z"/>
			</g>
		</g>
	</g>
</g>
<g>
	<g>
		<g>
			<line class="st11" x1="316.61" y1="182.55" x2="316.78" y2="182.37"/>
			<line class="st14" x1="317.1" y1="181.99" x2="321.43" y2="176.98"/>
			<line class="st11" x1="321.59" y1="176.79" x2="321.75" y2="176.6"/>
			<g>
				<path class="st4" d="M317.36,183.13c-0.34,0.39-0.93,0.44-1.33,0.1c-0.39-0.34-0.44-0.93-0.1-1.33c0.34-0.39,0.93-0.44,1.33-0.1
					C317.65,182.15,317.7,182.74,317.36,183.13z"/>
			</g>
			<g>
				<path class="st4" d="M321.54,178.68c-0.07-0.01-0.12-0.07-0.11-0.14l0.28-1.89l-1.83,0.55c-0.07,0.02-0.14-0.02-0.16-0.08
					s0.02-0.14,0.08-0.16l2.02-0.61c0.04-0.01,0.09,0,0.12,0.03s0.05,0.07,0.04,0.11l-0.3,2.09c0,0.02-0.01,0.05-0.03,0.06
					C321.63,178.67,321.59,178.69,321.54,178.68z"/>
			</g>
		</g>
	</g>
</g>
<g>
	<g>
		<g>
			<line class="st11" x1="362.49" y1="122.84" x2="362.32" y2="122.65"/>
			<line class="st16" x1="361.97" y1="122.26" x2="359.32" y2="119.37"/>
			<line class="st11" x1="359.15" y1="119.17" x2="358.98" y2="118.99"/>
			<g>
				<path class="st4" d="M363.15,122.17c0.35,0.38,0.32,0.98-0.06,1.33s-0.98,0.32-1.33-0.06c-0.35-0.38-0.32-0.98,0.06-1.33
					S362.8,121.78,363.15,122.17z"/>
			</g>
			<g>
				<path class="st4" d="M361.02,119.44c-0.02,0.07-0.09,0.11-0.15,0.09l-1.85-0.5l0.33,1.88c0.01,0.07-0.03,0.13-0.1,0.14
					s-0.13-0.03-0.14-0.1l-0.36-2.08c-0.01-0.04,0.01-0.08,0.04-0.11c0.03-0.03,0.08-0.04,0.12-0.03l2.04,0.55
					c0.02,0.01,0.04,0.02,0.06,0.04C361.02,119.36,361.03,119.4,361.02,119.44z"/>
			</g>
		</g>
	</g>
</g>
<g>
	<g>
		<g>
			<line class="st11" x1="409.36" y1="119.96" x2="409.13" y2="119.86"/>
			<line class="st16" x1="408.66" y1="119.63" x2="405.13" y2="117.92"/>
			<line class="st11" x1="404.89" y1="117.81" x2="404.66" y2="117.7"/>
			<g>
				<path class="st4" d="M409.72,119.1c0.47,0.23,0.66,0.79,0.44,1.25c-0.23,0.47-0.79,0.66-1.25,0.44
					c-0.47-0.23-0.66-0.79-0.44-1.25C408.69,119.07,409.26,118.87,409.72,119.1z"/>
			</g>
			<g>
				<path class="st4" d="M406.73,117.36c0.01,0.07-0.04,0.13-0.11,0.14l-1.9,0.23l1.01,1.63c0.04,0.06,0.02,0.14-0.04,0.17
					s-0.14,0.02-0.17-0.04l-1.11-1.79c-0.02-0.04-0.02-0.08-0.01-0.12c0.02-0.04,0.06-0.06,0.1-0.07l2.09-0.25
					c0.02,0,0.05,0,0.07,0.01C406.69,117.28,406.72,117.32,406.73,117.36z"/>
			</g>
		</g>
	</g>
</g>
<g>
	<g>
		<g>
			<line class="st11" x1="410.19" y1="171.96" x2="410.02" y2="171.78"/>
			<line class="st16" x1="409.67" y1="171.39" x2="407.02" y2="168.5"/>
			<line class="st11" x1="406.84" y1="168.3" x2="406.67" y2="168.12"/>
			<g>
				<path class="st4" d="M410.85,171.3c0.35,0.38,0.32,0.98-0.06,1.33c-0.38,0.35-0.98,0.32-1.33-0.06
					c-0.35-0.38-0.32-0.98,0.06-1.33S410.5,170.91,410.85,171.3z"/>
			</g>
			<g>
				<path class="st4" d="M408.71,168.57c-0.02,0.07-0.09,0.11-0.15,0.09l-1.85-0.5l0.33,1.88c0.01,0.07-0.03,0.13-0.1,0.14
					c-0.07,0.01-0.13-0.03-0.14-0.1l-0.36-2.08c-0.01-0.04,0.01-0.09,0.04-0.11c0.03-0.03,0.08-0.04,0.12-0.03l2.04,0.55
					c0.02,0.01,0.04,0.02,0.06,0.04C408.71,168.48,408.72,168.53,408.71,168.57z"/>
			</g>
		</g>
	</g>
</g>
<g>
	<g>
		<g>
			<line class="st11" x1="368.46" y1="188.27" x2="368.3" y2="188.09"/>
			<line class="st16" x1="367.94" y1="187.7" x2="365.3" y2="184.8"/>
			<line class="st11" x1="365.12" y1="184.61" x2="364.95" y2="184.43"/>
			<g>
				<path class="st4" d="M369.13,187.6c0.35,0.38,0.32,0.98-0.06,1.33c-0.38,0.35-0.98,0.32-1.33-0.06
					c-0.35-0.38-0.32-0.98,0.06-1.33S368.78,187.22,369.13,187.6z"/>
			</g>
			<g>
				<path class="st4" d="M366.99,184.88c-0.02,0.07-0.09,0.11-0.15,0.09l-1.85-0.5l0.33,1.88c0.01,0.07-0.03,0.13-0.1,0.14
					c-0.07,0.01-0.13-0.03-0.14-0.1l-0.36-2.08c-0.01-0.04,0.01-0.09,0.04-0.11c0.03-0.03,0.08-0.04,0.12-0.03l2.04,0.55
					c0.02,0.01,0.04,0.02,0.06,0.04C366.99,184.79,367,184.84,366.99,184.88z"/>
			</g>
		</g>
	</g>
</g>
<text transform="matrix(1 0 0 1 311.6107 120.9486)" class="st4 st1 st2">A</text>
<text transform="matrix(1 0 0 1 312.7047 149.8828)" class="st4 st1 st2">B</text>
<text transform="matrix(1 0 0 1 312.4166 191.3225)" class="st4 st1 st2">I</text>
<text transform="matrix(1 0 0 1 362.7532 167.6137)" class="st4 st1 st2">H</text>
<text transform="matrix(1 0 0 1 372.5664 192.4454)" class="st4 st1 st2">J</text>
<text transform="matrix(1 0 0 1 373.5189 151.1057)" class="st4 st1 st2">D</text>
<text transform="matrix(1 0 0 1 400.1785 151.1054)" class="st4 st1 st2">E</text>
<text transform="matrix(1 0 0 1 411.3571 130.18)" class="st4 st1 st2">F</text>
<text transform="matrix(1 0 0 1 410.0721 182.3506)" class="st4 st1 st2">G</text>
<text transform="matrix(1 0 0 1 362.3772 132.9496)" class="st4 st1 st2">C</text>
<g>
	<g>
		<g>
			<line class="st11" x1="320.15" y1="142.43" x2="320.35" y2="142.58"/>
			<line class="st14" x1="320.74" y1="142.88" x2="326.03" y2="146.86"/>
			<line class="st11" x1="326.23" y1="147.01" x2="326.43" y2="147.16"/>
			<g>
				<path class="st4" d="M319.62,143.21c-0.41-0.31-0.5-0.9-0.18-1.32s0.9-0.5,1.32-0.18c0.41,0.31,0.5,0.9,0.18,1.32
					S320.04,143.52,319.62,143.21z"/>
			</g>
			<g>
				<path class="st4" d="M324.34,147.09c0.01-0.07,0.07-0.12,0.13-0.11l1.91,0.15l-0.67-1.79c-0.02-0.06,0.01-0.14,0.07-0.16
					c0.06-0.02,0.14,0.01,0.16,0.07l0.74,1.98c0.01,0.04,0.01,0.08-0.02,0.12s-0.07,0.05-0.11,0.05l-2.1-0.17
					c-0.02,0-0.05-0.01-0.07-0.02C324.36,147.18,324.34,147.14,324.34,147.09z"/>
			</g>
		</g>
	</g>
</g>
<g>
	<g>
		<g>
			<line class="st11" x1="360.94" y1="169.33" x2="361.14" y2="169.48"/>
			<line class="st14" x1="361.53" y1="169.77" x2="366.82" y2="173.76"/>
			<line class="st11" x1="367.02" y1="173.91" x2="367.22" y2="174.06"/>
			<g>
				<path class="st4" d="M360.41,170.1c-0.41-0.31-0.5-0.9-0.18-1.32c0.31-0.41,0.9-0.5,1.32-0.18c0.41,0.31,0.5,0.9,0.18,1.32
					S360.83,170.42,360.41,170.1z"/>
			</g>
			<g>
				<path class="st4" d="M365.13,173.99c0.01-0.07,0.07-0.12,0.13-0.11l1.91,0.15l-0.67-1.79c-0.02-0.06,0.01-0.14,0.07-0.16
					c0.06-0.02,0.14,0.01,0.16,0.07l0.74,1.98c0.01,0.04,0.01,0.08-0.02,0.12c-0.03,0.03-0.07,0.05-0.11,0.05l-2.1-0.17
					c-0.02,0-0.05-0.01-0.07-0.02C365.15,174.07,365.13,174.03,365.13,173.99z"/>
			</g>
		</g>
	</g>
</g>
<g>
	<rect x="68.26" y="305.39" class="st3" width="10.55" height="10.58"/>
	<text transform="matrix(1 0 0 1 68.2622 312.5065)"><tspan x="0" y="0" class="st4 st5 st2">T</tspan><tspan x="4.38" y="0" class="st4 st5 st24">1</tspan></text>
</g>
<g>
	<rect x="75.43" y="314.27" class="st3" width="18.62" height="10.58"/>
	<text transform="matrix(1 0 0 1 75.4257 321.3889)"><tspan x="0" y="0" class="st4 st5 st2">T</tspan><tspan x="4.38" y="0" class="st4 st5 st24">n-1</tspan></text>
</g>
<g>
	<rect x="90.88" y="323.67" class="st3" width="18.62" height="10.58"/>
	<text transform="matrix(1 0 0 1 90.8826 330.7888)"><tspan x="0" y="0" class="st4 st5 st2">T</tspan><tspan x="4.38" y="0" class="st4 st5 st24">n</tspan></text>
</g>
<g>
	<rect x="122" y="262.45" class="st3" width="6.32" height="10.58"/>
	<text transform="matrix(1 0 0 1 122.0033 270.9023)" class="st4 st25 st2">T</text>
</g>
<g>
	<rect x="99.99" y="261.94" class="st3" width="6.32" height="10.58"/>
	<text transform="matrix(1 0 0 1 99.9936 270.3872)" class="st4 st25 st2">T</text>
</g>
<g>
	<rect x="166.38" y="261.94" class="st3" width="6.32" height="10.58"/>
	<text transform="matrix(1 0 0 1 166.3766 270.3872)" class="st4 st25 st2">T</text>
</g>
<g>
	<rect x="145.51" y="261.85" class="st3" width="6.24" height="9.26"/>
	<text transform="matrix(1 0 0 1 145.5096 270.2961)" class="st4 st25 st2">T</text>
</g>
<g>
	<rect x="57" y="333.37" class="st3" width="59.58" height="10.58"/>
	<text transform="matrix(1 0 0 1 56.9975 340.482)" class="st5 st2">T=1min,5min,......</text>
</g>
<g>
	<g>
		<path class="st26" d="M96.15,278.52c0-3.32,2.69-6,6-6c3.17,0,5.76,2.46,5.99,5.57"/>
		<g>
			<polygon class="st4" points="106.3,277 106.55,276.69 108.08,277.94 109.21,276.33 109.54,276.56 108.16,278.52 			"/>
		</g>
	</g>
</g>
<g>
	<g>
		<path class="st26" d="M119.16,278.52c0-3.32,2.69-6,6-6c3.17,0,5.76,2.46,5.99,5.57"/>
		<g>
			<polygon class="st4" points="129.31,277 129.56,276.69 131.09,277.94 132.22,276.33 132.55,276.56 131.17,278.52 			"/>
		</g>
	</g>
</g>
<g>
	<g>
		<path class="st26" d="M142.06,278.52c0-3.32,2.69-6,6-6c3.17,0,5.76,2.46,5.99,5.57"/>
		<g>
			<polygon class="st4" points="152.21,277 152.47,276.69 153.99,277.94 155.13,276.33 155.45,276.56 154.07,278.52 			"/>
		</g>
	</g>
</g>
<g>
	<g>
		<path class="st26" d="M163.53,278.52c0-3.32,2.69-6,6-6c3.17,0,5.76,2.46,5.99,5.57"/>
		<g>
			<polygon class="st4" points="173.68,277 173.94,276.69 175.46,277.94 176.6,276.33 176.92,276.56 175.54,278.52 			"/>
		</g>
	</g>
</g>
<g>
	<g>
		<g>
			<polyline class="st27" points="111.58,344.66 111.58,356.88 358.98,356.88 358.98,339.25 			"/>
			<g>
				<path class="st4" d="M362.05,343.63c-0.15,0.09-0.35,0.05-0.44-0.1l-2.63-4.13l-2.63,4.13c-0.1,0.15-0.29,0.19-0.44,0.1
					c-0.15-0.1-0.19-0.29-0.1-0.44l2.9-4.55c0.06-0.09,0.16-0.15,0.27-0.15s0.21,0.06,0.27,0.15l2.9,4.55
					c0.03,0.05,0.05,0.11,0.05,0.17C362.2,343.46,362.15,343.57,362.05,343.63z"/>
			</g>
		</g>
	</g>
	<line class="st28" x1="137.55" y1="344.66" x2="137.55" y2="356.88"/>
	<line class="st28" x1="159.7" y1="344.66" x2="159.7" y2="356.88"/>
	<line class="st28" x1="181.11" y1="344.66" x2="181.11" y2="356.88"/>
	<line class="st28" x1="205.25" y1="344.66" x2="205.25" y2="356.88"/>
	<g>
		<path class="st3" d="M113.55,356.88"/>
	</g>
</g>
<circle class="st4" cx="361.17" cy="185.86" r="0.56"/>
<circle class="st4" cx="318.19" cy="170.26" r="0.56"/>
<circle class="st4" cx="322.79" cy="121.97" r="0.56"/>
<circle class="st23" cx="359.68" cy="186.77" r="0.56"/>
<circle class="st4" cx="320.27" cy="171.11" r="0.56"/>
<circle class="st23" cx="318.79" cy="172.03" r="0.56"/>
<circle class="st23" cx="326.1" cy="117.91" r="0.56"/>
<circle class="st23" cx="315.3" cy="167.61" r="0.56"/>
<circle class="st4" cx="332.08" cy="146.54" r="0.56"/>
<circle class="st4" cx="338.39" cy="148.51" r="0.56"/>
<circle class="st4" cx="326.1" cy="149.22" r="0.56"/>
<circle class="st23" cx="333.24" cy="143.89" r="0.56"/>
<circle class="st23" cx="329.2" cy="143.89" r="0.56"/>
<circle class="st4" cx="353.51" cy="120.08" r="0.56"/>
<circle class="st4" cx="368.4" cy="140.71" r="0.56"/>
<circle class="st4" cx="371.68" cy="139.65" r="0.56"/>
<circle class="st23" cx="398.89" cy="120.08" r="0.56"/>
<circle class="st23" cx="356.35" cy="140.38" r="0.56"/>
<circle class="st23" cx="352.59" cy="125.85" r="0.56"/>
<circle class="st23" cx="352.59" cy="117.5" r="0.56"/>
<circle class="st23" cx="348.17" cy="117.5" r="0.56"/>
<circle class="st23" cx="344.11" cy="117.5" r="0.56"/>
<circle class="st23" cx="351.19" cy="140.38" r="0.56"/>
<circle class="st4" cx="404.69" cy="165.94" r="0.56"/>
<circle class="st4" cx="402.25" cy="140.58" r="0.56"/>
<text transform="matrix(1 0 0 1 400.2329 151.1052)" class="st4 st1 st2">E</text>
<g>
	<g>
		<g>
			<line class="st11" x1="405.72" y1="143.15" x2="405.92" y2="143.3"/>
			<line class="st14" x1="406.31" y1="143.6" x2="411.6" y2="147.59"/>
			<line class="st11" x1="411.8" y1="147.74" x2="412" y2="147.89"/>
			<g>
				<path class="st4" d="M405.19,143.93c-0.41-0.31-0.5-0.9-0.18-1.32s0.9-0.5,1.32-0.18c0.41,0.31,0.5,0.9,0.18,1.32
					C406.2,144.16,405.61,144.25,405.19,143.93z"/>
			</g>
			<g>
				<path class="st4" d="M409.91,147.82c0.01-0.07,0.07-0.12,0.13-0.11l1.91,0.15l-0.67-1.79c-0.02-0.06,0.01-0.14,0.07-0.16
					c0.06-0.02,0.14,0.01,0.16,0.07l0.74,1.98c0.01,0.04,0.01,0.08-0.02,0.12c-0.03,0.03-0.07,0.05-0.11,0.05l-2.1-0.17
					c-0.02,0-0.05-0.01-0.07-0.02C409.92,147.9,409.9,147.86,409.91,147.82z"/>
			</g>
		</g>
	</g>
</g>
<circle class="st4" cx="402" cy="139" r="0.56"/>
<circle class="st4" cx="394.67" cy="138.84" r="0.56"/>
<circle class="st4" cx="398.32" cy="142.61" r="0.56"/>
<circle class="st4" cx="401.12" cy="143.33" r="0.56"/>
<circle class="st4" cx="389.13" cy="143.17" r="0.56"/>
<circle class="st4" cx="403.3" cy="171.55" r="0.56"/>
<circle class="st23" cx="392.12" cy="165.38" r="0.56"/>
<circle class="st23" cx="365.29" cy="170.62" r="0.56"/>
<circle class="st23" cx="355.8" cy="185.03" r="0.56"/>
<circle class="st23" cx="398.33" cy="168.05" r="0.56"/>
<circle class="st4" cx="363.71" cy="182.35" r="0.56"/>
<circle class="st4" cx="366.22" cy="181.79" r="0.56"/>
<circle class="st4" cx="362.78" cy="172.92" r="0.56"/>
<circle class="st4" cx="368.35" cy="172.08" r="0.56"/>
<circle class="st4" cx="361.17" cy="180.61" r="0.56"/>
<circle class="st23" cx="362.22" cy="183.27" r="0.56"/>
<g>
	<rect x="89.16" y="290.94" class="st29" width="23.3" height="30.49"/>
	<rect x="112.45" y="290.94" class="st29" width="23.3" height="30.49"/>
	<rect x="135.75" y="290.94" class="st29" width="23.3" height="30.49"/>
	<rect x="159.04" y="290.94" class="st29" width="23.3" height="30.49"/>
	<rect x="182.34" y="290.94" class="st29" width="23.3" height="30.49"/>
</g>
<g>
	<rect x="100.81" y="300.05" class="st29" width="23.3" height="30.49"/>
	<rect x="124.1" y="300.05" class="st29" width="23.3" height="30.49"/>
	<rect x="147.4" y="300.05" class="st29" width="23.3" height="30.49"/>
	<rect x="170.69" y="300.05" class="st29" width="23.3" height="30.49"/>
	<rect x="193.99" y="300.05" class="st29" width="23.3" height="30.49"/>
</g>
<g>
	<text transform="matrix(1 0 0 1 79.8422 288.4861)" class="st4 st7 st24">AScene</text>
</g>
<g>
	<text transform="matrix(1 0 0 1 92.3187 297.9077)" class="st4 st7 st24">AScene</text>
</g>
<g>
	<text transform="matrix(1 0 0 1 103.1231 312.1034)" class="st4 st7 st24">AScene</text>
</g>
<g>
	<text transform="matrix(1 0 0 1 103.7772 288.8484)" class="st4 st7 st24">BScene</text>
</g>
<g>
	<text transform="matrix(1 0 0 1 115.7237 297.9078)" class="st4 st7 st24">BScene</text>
</g>
<g>
	<text transform="matrix(1 0 0 1 128.3245 289.2107)" class="st4 st7 st24">CScene</text>
</g>
<g>
	<text transform="matrix(1 0 0 1 139.2711 298.2701)" class="st4 st7 st24">CScene</text>
</g>
<g>
	<text transform="matrix(1 0 0 1 154.07 286.7889)" class="st4 st7 st8">......</text>
</g>
<g>
	<text transform="matrix(1 0 0 1 167.3351 296.1909)" class="st4 st7 st8">......</text>
</g>
<g>
	<text transform="matrix(1 0 0 1 177.7375 316.3857)" class="st4 st7 st8">......</text>
</g>
<g>
	<text transform="matrix(1 0 0 1 172.4996 288.9814)" class="st4 st7 st24">JScene</text>
</g>
<g>
	<text transform="matrix(1 0 0 1 186.5466 297.8097)" class="st4 st7 st24">JScene</text>
</g>
<g>
	<text transform="matrix(1 0 0 1 104.4827 321.1668)"><tspan x="0" y="0" class="st4 st7 st8">Tn</tspan><tspan x="6.52" y="0" class="st4 st7 st24">time</tspan></text>
</g>
<g>
	<text transform="matrix(1 0 0 1 126.2209 312.4118)" class="st4 st7 st24">BScene</text>
</g>
<g>
	<text transform="matrix(1 0 0 1 127.5806 321.4752)"><tspan x="0" y="0" class="st4 st7 st8">Tn</tspan><tspan x="6.52" y="0" class="st4 st7 st24">time</tspan></text>
</g>
<g>
	<text transform="matrix(1 0 0 1 149.4158 312.7742)" class="st4 st7 st24">CScene</text>
</g>
<g>
	<text transform="matrix(1 0 0 1 150.7756 321.8377)"><tspan x="0" y="0" class="st4 st7 st8">Tn</tspan><tspan x="6.52" y="0" class="st4 st7 st24">time</tspan></text>
</g>
<g>
	<text transform="matrix(1 0 0 1 198.8835 312.5664)" class="st4 st7 st24">JScene</text>
</g>
<g>
	<text transform="matrix(1 0 0 1 196.8832 321.8378)"><tspan x="0" y="0" class="st4 st7 st8">Tn</tspan><tspan x="6.52" y="0" class="st4 st7 st24">time</tspan></text>
</g>
<g>
	<text transform="matrix(1 0 0 1 90.3659 305.0348)"><tspan x="0" y="0" class="st4 st7 st30">Tn-1</tspan><tspan x="0" y="6" class="st4 st7 st24">time</tspan></text>
</g>
<g>
	<text transform="matrix(1 0 0 1 78.7431 295.3647)"><tspan x="0" y="0" class="st4 st7 st30">T1</tspan><tspan x="0" y="6" class="st4 st7 st24">time</tspan></text>
</g>
<g>
	<rect x="284.51" y="265.63" class="st31" width="13.77" height="66"/>
	
		<rect x="347.99" y="202.15" transform="matrix(-1.836970e-16 1 -1 -1.836970e-16 626.8272 -82.3608)" class="st31" width="13.2" height="140.17"/>
	
		<rect x="284.79" y="265.35" transform="matrix(-1.836970e-16 1 -1 -1.836970e-16 563.6271 -19.1607)" class="st32" width="13.2" height="13.77"/>
	
		<rect x="284.79" y="278.55" transform="matrix(-1.836970e-16 1 -1 -1.836970e-16 576.8267 -5.9611)" class="st31" width="13.2" height="13.77"/>
	
		<rect x="284.79" y="291.75" transform="matrix(-1.836970e-16 1 -1 -1.836970e-16 590.0262 7.2385)" class="st31" width="13.2" height="13.77"/>
	
		<rect x="284.79" y="304.95" transform="matrix(-1.836970e-16 1 -1 -1.836970e-16 603.2258 20.438)" class="st31" width="13.2" height="13.77"/>
	
		<rect x="354.84" y="222.2" transform="matrix(-1.836970e-16 1 -1 -1.836970e-16 646.875 -76.0094)" class="st33" width="13.2" height="126.47"/>
	
		<rect x="354.84" y="235.4" transform="matrix(-1.836970e-16 1 -1 -1.836970e-16 660.0746 -62.8099)" class="st33" width="13.2" height="126.47"/>
	
		<rect x="354.84" y="248.6" transform="matrix(-1.836970e-16 1 -1 -1.836970e-16 673.2741 -49.6103)" class="st33" width="13.2" height="126.47"/>
	
		<rect x="354.84" y="261.8" transform="matrix(-1.836970e-16 1 -1 -1.836970e-16 686.4737 -36.4107)" class="st33" width="13.2" height="126.47"/>
	<g>
		<text transform="matrix(1.0268 0 0 1 304.9538 284.7783)"><tspan x="0" y="0" class="st4 st7 st30">1Pedestrian</tspan><tspan x="0" y="4.8" class="st4 st7 st30">1Vehicle</tspan></text>
	</g>
	<g>
		<text transform="matrix(1.0268 0 0 1 330.7139 284.8142)"><tspan x="0" y="0" class="st4 st7 st30">3Pedestrian</tspan><tspan x="0" y="4.8" class="st4 st7 st30">2Vehicle</tspan></text>
	</g>
	<g>
		<text transform="matrix(1.0268 0 0 1 356.2915 284.7782)"><tspan x="0" y="0" class="st4 st7 st30">1Pedestrian</tspan><tspan x="0" y="4.8" class="st4 st7 st30">4Vehicle</tspan></text>
	</g>
	<g>
		<text transform="matrix(1.0268 0 0 1 399.0165 284.8149)"><tspan x="0" y="0" class="st4 st7 st30">4Pedestrian</tspan><tspan x="0" y="4.8" class="st4 st7 st30">3Vehicle</tspan></text>
	</g>
	<g>
		<text transform="matrix(1.0268 0 0 1 330.1498 314.9996)" class="st4 st7 st34">(n-1)Pedestrian (n-1)Vehicle</text>
	</g>
	<g>
		<text transform="matrix(1.0268 0 0 1 334.5947 327.3868)" class="st4 st7 st34">(n)Pedestrian (n)Vehicle</text>
	</g>
	<g>
		<text transform="matrix(1.0268 0 0 1 287.9144 287.5677)" class="st4 st7 st34">T1</text>
	</g>
	<g>
		<text transform="matrix(1.0268 0 0 1 288.0224 299.3483)" class="st4 st7 st34">......</text>
	</g>
	<g>
		<text transform="matrix(1.0268 0 0 1 310.7894 299.401)" class="st4 st7 st34">......</text>
	</g>
	<g>
		<text transform="matrix(1.0268 0 0 1 334.1328 299.4536)" class="st4 st7 st34">......</text>
	</g>
	<g>
		<text transform="matrix(1.0268 0 0 1 360.0049 299.5065)" class="st4 st7 st34">......</text>
	</g>
	<g>
		<text transform="matrix(1.0268 0 0 1 382.0692 299.4533)" class="st4 st7 st34">......</text>
	</g>
	<g>
		<text transform="matrix(1.0268 0 0 1 403.5703 299.5591)" class="st4 st7 st34">......</text>
	</g>
	<g>
		<text transform="matrix(1.0268 0 0 1 382.0688 286.5149)" class="st4 st7 st34">......</text>
	</g>
	<g>
		<text transform="matrix(1.0268 0 0 1 381.6071 273.0075)" class="st4 st7 st34">......</text>
	</g>
	<g>
		<text transform="matrix(1.0268 0 0 1 285.3566 314.96)" class="st4 st7 st34">Tn-1</text>
	</g>
	<g>
		<text transform="matrix(1.0268 0 0 1 287.9142 328.3996)" class="st4 st7 st34">Tn</text>
	</g>
	<g>
		<text transform="matrix(1.0268 0 0 1 287.3508 274.5517)" class="st4 st7 st34">list</text>
	</g>
	<g>
		<text transform="matrix(1 0 0 1 307.5299 274.9296)"><tspan x="0" y="0" class="st4 st7 st8">A</tspan><tspan x="3.8" y="0" class="st4 st7 st24">Scene</tspan></text>
	</g>
	<g>
		<text transform="matrix(1 0 0 1 331.5084 274.5518)"><tspan x="0" y="0" class="st4 st7 st8">B</tspan><tspan x="3.65" y="0" class="st4 st7 st24">Scene</tspan></text>
	</g>
	<g>
		<text transform="matrix(1 0 0 1 356.6388 274.5518)"><tspan x="0" y="0" class="st4 st7 st8">C</tspan><tspan x="3.78" y="0" class="st4 st7 st24">Scene</tspan></text>
	</g>
	<g>
		<text transform="matrix(1 0 0 1 398.6959 274.5514)"><tspan x="0" y="0" class="st4 st7 st8">J</tspan><tspan x="2.45" y="0" class="st4 st7 st24">Scenev</tspan></text>
	</g>
	<rect x="284.51" y="265.63" class="st10" width="140.17" height="66"/>
</g>
<line class="st35" x1="406.99" y1="188.81" x2="406.99" y2="265.63"/>
<path class="st21" d="M59.61,301.38c-0.43,0-0.79-0.14-1.08-0.42c-0.28-0.28-0.42-0.64-0.42-1.08v-10.4c0-0.43,0.14-0.79,0.42-1.08
	c0.28-0.28,0.64-0.42,1.08-0.42h10.4c0.43,0,0.79,0.14,1.08,0.42c0.28,0.28,0.42,0.64,0.42,1.08v4.7l2.75-2.75v6.5l-2.75-2.75v4.7
	c0,0.43-0.14,0.79-0.42,1.08s-0.64,0.42-1.08,0.42H59.61z M59.61,300.68h10.4c0.23,0,0.43-0.08,0.58-0.23s0.22-0.34,0.22-0.58v-10.4
	c0-0.23-0.07-0.42-0.22-0.58c-0.15-0.15-0.34-0.22-0.58-0.22h-10.4c-0.23,0-0.42,0.07-0.58,0.22c-0.15,0.15-0.22,0.34-0.22,0.58
	v10.4c0,0.23,0.08,0.43,0.22,0.58C59.19,300.61,59.38,300.68,59.61,300.68z M58.81,300.68v-12V300.68z"/>
<line class="st10" x1="294.92" y1="214.42" x2="294.92" y2="123.71"/>
<line class="st10" x1="286.54" y1="203.92" x2="428.14" y2="203.92"/>
<path class="st4" d="M298.55,161.82"/>
<rect x="299.44" y="178.89" class="st4" width="3.58" height="24.8"/>
<rect x="309.58" y="161.44" class="st4" width="4.55" height="42.48"/>
<rect x="318.23" y="190.52" class="st4" width="5.13" height="13.4"/>
<rect x="334.59" y="188.93" class="st4" width="4.35" height="14.99"/>
<rect x="347.95" y="185.03" class="st4" width="5.26" height="18.65"/>
<rect x="386.59" y="193.9" class="st4" width="2.51" height="9.79"/>
<rect x="396.04" y="190.45" class="st4" width="4.78" height="13.23"/>
<path class="st21" d="M303.94,42.66v-7.15l-5.65-3.95l-5.65,3.95v3.05h-0.7v-3.38l6.35-4.52l6.35,4.52v7.47H303.94z M298.91,36.24
	h0.75v-0.75h-0.75V36.24z M296.91,36.24h0.75v-0.75h-0.75V36.24z M298.91,38.24h0.75v-0.75h-0.75V38.24z M296.91,38.24h0.75v-0.75
	h-0.75V38.24z M291.16,46.36l7.75,2.3l6-1.85c0-0.35-0.08-0.6-0.25-0.74c-0.16-0.14-0.35-0.21-0.55-0.21h-4.65
	c-0.41,0-0.81-0.02-1.17-0.05s-0.74-0.12-1.12-0.25l-2.15-0.7l0.27-0.7l2.02,0.75c0.33,0.13,0.71,0.21,1.12,0.23
	c0.42,0.02,0.98,0.02,1.68,0.02c0-0.35-0.06-0.62-0.18-0.82c-0.12-0.2-0.29-0.34-0.52-0.43l-5.73-2.1c-0.05-0.02-0.1-0.03-0.14-0.04
	c-0.04-0.01-0.09-0.01-0.14-0.01h-2.25V46.36z M287.76,48.36v-7.3h5.62c0.09,0,0.18,0.01,0.27,0.03c0.09,0.02,0.18,0.04,0.26,0.07
	l5.75,2.1c0.3,0.12,0.57,0.33,0.8,0.64c0.23,0.31,0.35,0.73,0.35,1.26h3.3c0.53,0,0.92,0.16,1.16,0.49
	c0.24,0.32,0.36,0.73,0.36,1.21v0.5l-6.67,2.05l-7.8-2.3v1.25H287.76z M288.46,47.66h2v-5.9h-2V47.66z"/>
<path class="st21" d="M420.04,48.56c-0.48,0-0.89-0.16-1.21-0.49c-0.32-0.33-0.49-0.73-0.49-1.21v-2.7h3v-13h12.4v15.7
	c0,0.48-0.16,0.89-0.49,1.21c-0.33,0.33-0.73,0.49-1.21,0.49H420.04z M432.04,47.86c0.28,0,0.52-0.1,0.71-0.29
	c0.19-0.19,0.29-0.43,0.29-0.71v-15h-11v12.3h9v2.7c0,0.28,0.1,0.52,0.29,0.71C431.51,47.77,431.75,47.86,432.04,47.86z
	 M423.54,36.06v-0.7h8v0.7H423.54z M423.54,38.76v-0.7h8v0.7H423.54z M420.04,47.86h10.3v-3h-11.3v2c0,0.28,0.1,0.52,0.29,0.71
	C419.51,47.77,419.75,47.86,420.04,47.86z M420.04,47.86h-1h11.3H420.04z"/>
<g>
	<g>
		<line class="st27" x1="272.83" y1="41.81" x2="202.65" y2="41.81"/>
		<g>
			<path class="st4" d="M207.03,38.74c0.1,0.15,0.05,0.35-0.1,0.44l-4.13,2.63l4.13,2.63c0.15,0.1,0.19,0.29,0.1,0.44
				c-0.1,0.15-0.29,0.19-0.44,0.1l-4.55-2.9c-0.09-0.06-0.15-0.16-0.15-0.27s0.06-0.21,0.15-0.27l4.55-2.9
				c0.05-0.03,0.11-0.05,0.17-0.05C206.86,38.59,206.97,38.64,207.03,38.74z"/>
		</g>
	</g>
</g>
<g>
	<rect x="218.55" y="30.25" class="st3" width="47.06" height="10.58"/>
	<text transform="matrix(1 0 0 1 218.5472 35.57)" class="st4 st7 st8">Design Decisions</text>
</g>
<g>
	<rect x="212.15" y="47.53" class="st3" width="60.68" height="13.29"/>
	<text transform="matrix(1 0 0 1 212.1546 52.8468)"><tspan x="0" y="0" class="st4 st7 st8">Improving Real-World </tspan><tspan x="0" y="7.2" class="st4 st7 st8">Environments</tspan></text>
</g>
<g>
	<g>
		<line class="st12" x1="363.12" y1="69.98" x2="363.12" y2="70.98"/>
		<line class="st13" x1="363.12" y1="73.1" x2="363.12" y2="93.2"/>
		<line class="st12" x1="363.12" y1="94.26" x2="363.12" y2="95.26"/>
		<g>
			<path class="st4" d="M360.05,74.35c0.15,0.09,0.35,0.05,0.44-0.1l2.63-4.13l2.63,4.13c0.1,0.15,0.29,0.19,0.44,0.1
				c0.15-0.1,0.19-0.29,0.1-0.44l-2.9-4.55c-0.06-0.09-0.16-0.15-0.27-0.15s-0.21,0.06-0.27,0.15l-2.9,4.55
				c-0.03,0.05-0.05,0.11-0.05,0.17C359.9,74.19,359.96,74.29,360.05,74.35z"/>
		</g>
	</g>
</g>
<path class="st28" d="M182.42,203.41"/>
<g>
	<circle class="st17" cx="335.03" cy="126.26" r="27.75"/>
	<circle class="st19" cx="335.03" cy="126.26" r="27.75"/>
</g>
<g>
	<circle class="st17" cx="413.75" cy="173.46" r="27.75"/>
	<circle class="st19" cx="413.75" cy="173.46" r="27.75"/>
</g>
<g>
	<circle class="st17" cx="406.99" cy="106.48" r="27.75"/>
	<circle class="st19" cx="406.99" cy="106.49" r="27.75"/>
</g>
<g>
	<circle class="st17" cx="354.91" cy="184.08" r="27.75"/>
	<circle class="st19" cx="354.91" cy="184.08" r="27.75"/>
</g>
<g>
	<rect x="334.77" y="80.76" class="st3" width="31.71" height="10.58"/>
	<text transform="matrix(1 0 0 1 334.7703 86.0742)" class="st4 st7 st8">feedback</text>
</g>
<text transform="matrix(1 0 0 1 341.3768 169.6362)"><tspan x="0" y="0" class="st36 st1 st2">α</tspan><tspan x="8" y="0" class="st36 st1 st2 st37">​​</tspan></text>
<text transform="matrix(1 0 0 1 452.278 157.0463)"><tspan x="0" y="0" class="st36 st1 st2">α</tspan><tspan x="8" y="0" class="st36 st1 st2 st37">​​</tspan></text>
<text transform="matrix(1 0 0 1 396.61 160.7305)" class="st36 st1 st2">β</text>
<text transform="matrix(1 0 0 1 452.5394 172.7382)" class="st36 st1 st2">β</text>
<text transform="matrix(1 0 0 1 387.8403 123.88)"><tspan x="0" y="0" class="st36 st1 st2">γ</tspan><tspan x="8" y="0" class="st36 st1 st2 st37">​​​​</tspan></text>
<text transform="matrix(1 0 0 1 452.4863 188.096)"><tspan x="0" y="0" class="st36 st1 st2">γ</tspan><tspan x="8" y="0" class="st36 st1 st2 st37">​​​​</tspan></text>
<text transform="matrix(1 0 0 1 340.2231 145.977)"><tspan x="0" y="0" class="st36 st1 st2">δ</tspan><tspan x="8" y="0" class="st36 st1 st2 st37">​​​​</tspan></text>
<text transform="matrix(1 0 0 1 452.2134 205.1841)"><tspan x="0" y="0" class="st36 st1 st2">δ</tspan><tspan x="8" y="0" class="st36 st1 st2 st37">​​​​</tspan></text>
</svg>
